{"glyphs":{"0":{"ha":848,"x_min":111,"x_max":928,"o":"m 111 359 q 258 856 111 659 q 616 1054 405 1054 q 846 955 764 1054 q 928 688 928 857 q 871 368 928 559 q 704 75 814 177 q 423 -26 593 -26 q 111 359 111 -26 m 296 365 q 451 149 296 149 q 669 336 603 149 q 736 685 736 524 q 700 832 736 787 q 588 878 664 878 q 421 794 494 878 q 322 586 349 711 q 296 365 296 460 z "},"1":{"ha":848,"x_min":85,"x_max":597,"o":"m 203 0 q 85 67 85 0 q 243 172 85 172 l 258 172 q 274 171 265 172 l 370 772 q 286 732 301 732 q 228 755 252 732 q 205 810 205 778 q 262 899 205 852 l 349 954 l 442 1021 q 546 1057 494 1057 q 597 1003 597 1057 q 553 755 597 980 q 479 339 514 558 l 453 174 l 498 174 q 555 153 533 174 q 578 102 578 133 q 548 31 578 61 q 471 0 517 0 l 203 0 z "},"2":{"ha":848,"x_min":101,"x_max":892,"o":"m 298 175 q 618 195 449 195 q 733 168 678 195 q 789 99 789 140 q 756 31 789 64 q 682 -1 723 -1 q 630 4 659 -1 q 580 9 602 9 l 381 11 q 300 4 355 11 q 222 -1 259 -1 q 127 19 153 -1 q 101 84 101 39 q 139 265 101 178 q 243 410 176 353 q 459 553 309 467 q 659 699 625 648 q 693 787 693 751 q 662 842 693 818 q 580 867 631 867 q 417 803 509 867 q 298 739 327 739 q 236 757 260 739 q 212 803 212 774 q 235 866 212 837 q 377 969 258 896 q 608 1042 496 1042 q 813 983 734 1042 q 892 835 892 924 q 828 632 892 736 q 586 435 764 528 q 383 305 446 360 q 298 175 321 250 z "},"3":{"ha":848,"x_min":98,"x_max":859,"o":"m 706 550 q 811 357 811 484 q 689 85 811 201 q 402 -31 566 -31 q 222 7 296 -31 q 123 98 149 45 q 98 177 98 151 q 132 247 98 216 q 209 277 165 277 q 271 241 251 277 l 306 186 q 349 156 317 168 q 430 144 381 144 q 557 189 498 144 q 616 311 616 233 q 416 467 616 447 q 328 536 328 476 q 358 601 328 575 q 429 635 389 627 l 570 665 q 680 777 680 701 q 537 860 680 860 q 413 819 488 860 q 321 779 345 779 q 264 803 286 779 q 242 855 242 826 q 364 978 242 922 q 548 1035 486 1035 q 777 975 694 1035 q 859 807 859 915 q 823 660 859 730 q 706 550 787 589 z "},"4":{"ha":848,"x_min":50,"x_max":880,"o":"m 523 281 l 253 281 q 50 359 50 281 q 139 488 50 407 q 293 658 166 513 l 581 987 q 731 1059 643 1059 q 799 1035 771 1059 q 820 970 827 1012 l 741 460 q 852 443 823 457 q 880 390 880 428 q 711 281 880 271 q 659 22 684 63 q 574 -18 633 -18 q 492 68 492 -18 q 498 118 492 90 l 523 281 m 600 764 q 349 460 537 682 l 552 460 l 600 764 z "},"5":{"ha":848,"x_min":80,"x_max":926,"o":"m 427 860 q 388 722 409 791 q 608 765 484 765 q 809 685 742 765 q 877 475 877 604 q 733 110 877 263 q 373 -43 589 -43 q 153 25 225 -43 q 81 142 81 94 q 114 212 80 182 q 191 243 149 243 q 231 233 216 243 q 283 177 245 223 q 401 134 317 134 q 603 226 518 134 q 688 456 688 318 q 580 590 688 590 q 489 577 532 590 q 414 543 446 564 q 308 449 382 521 q 224 414 267 414 q 167 436 189 414 q 145 488 145 458 q 156 540 145 499 q 240 893 240 863 q 235 930 240 900 q 231 967 231 960 q 263 1020 231 1000 q 340 1040 296 1040 l 420 1035 l 747 1035 q 800 1038 760 1035 q 854 1042 839 1042 q 926 974 926 1042 q 890 901 926 928 q 806 866 854 873 q 630 860 758 860 l 427 860 z "},"6":{"ha":848,"x_min":104,"x_max":844,"o":"m 406 637 q 535 665 484 665 q 764 597 684 665 q 844 401 844 530 q 721 84 844 218 q 404 -49 598 -49 q 178 35 252 -49 q 104 263 104 119 q 196 617 104 441 q 485 945 288 793 l 567 1011 q 656 1055 621 1055 q 715 1033 691 1055 q 739 980 739 1010 q 708 919 739 952 q 515 757 678 886 q 406 637 445 699 m 311 424 q 292 283 292 348 q 433 115 292 115 q 596 194 538 115 q 654 363 654 273 q 488 482 654 482 q 311 424 414 482 z "},"7":{"ha":848,"x_min":156,"x_max":989,"o":"m 668 838 q 448 841 572 838 l 274 845 q 202 853 225 846 q 168 876 180 861 q 156 916 156 892 q 189 992 156 962 q 264 1022 222 1022 q 519 1017 384 1022 q 777 1013 690 1013 l 900 1013 q 964 997 940 1013 q 989 956 989 981 q 964 894 989 928 q 854 781 939 860 q 613 479 736 671 q 413 140 490 287 q 327 2 367 50 q 239 -45 288 -45 q 181 -23 205 -45 q 157 31 157 -1 q 205 143 157 62 l 387 456 q 668 838 521 688 z "},"8":{"ha":848,"x_min":85,"x_max":854,"o":"m 267 532 q 195 688 195 596 q 309 927 195 820 q 583 1035 422 1035 q 785 976 715 1035 q 854 808 854 916 q 713 550 854 622 q 833 329 833 477 q 708 60 833 155 q 406 -36 583 -36 q 171 25 258 -36 q 85 195 85 87 q 127 373 85 274 q 267 532 169 473 m 498 627 q 626 679 585 647 q 666 777 666 711 q 554 868 666 868 q 424 818 463 868 q 384 716 384 767 q 498 627 384 656 m 481 457 q 274 234 274 380 q 319 157 274 186 q 432 127 364 127 q 595 186 554 127 q 637 310 637 244 q 481 457 637 407 z "},"9":{"ha":848,"x_min":100,"x_max":906,"o":"m 591 368 q 450 339 509 339 q 220 413 306 339 q 135 609 135 488 q 260 913 135 785 q 604 1042 385 1042 q 823 952 740 1042 q 906 734 906 863 q 792 357 906 572 q 472 39 679 142 q 178 -64 264 -64 q 122 -42 144 -64 q 100 9 100 -20 q 241 129 100 96 q 591 368 463 182 m 695 596 q 717 702 717 665 q 673 828 717 777 q 559 879 630 879 q 385 808 447 879 q 323 652 323 738 q 371 551 323 590 q 496 513 419 513 q 695 596 611 513 z "}," ":{"ha":602,"x_min":0,"x_max":0,"o":""},"!":{"ha":330,"x_min":59,"x_max":410,"o":"m 405 1004 l 291 285 q 257 226 286 250 q 190 201 229 201 q 135 221 155 201 q 115 269 115 241 q 121 318 115 276 l 127 364 q 183 715 143 481 l 228 994 q 264 1064 233 1038 q 332 1089 294 1089 q 389 1065 368 1089 q 405 1004 410 1041 m 59 60 q 92 127 59 99 q 163 155 125 155 q 229 118 204 155 q 254 48 254 81 q 220 -16 254 12 q 149 -45 186 -45 q 86 -9 113 -45 q 59 60 59 26 z "},"\"":{"ha":608,"x_min":149,"x_max":688,"o":"m 149 717 q 174 879 149 747 q 186 949 182 919 q 203 1025 195 1007 q 236 1059 211 1042 q 295 1076 260 1076 q 350 1058 330 1076 q 371 1012 371 1040 q 349 884 371 995 q 328 737 328 774 q 292 655 328 677 q 227 632 256 632 q 149 717 149 632 m 631 707 q 598 652 625 675 q 531 629 570 629 q 476 648 496 629 q 455 696 455 667 q 483 862 455 697 q 543 1050 510 1027 q 612 1074 576 1074 q 667 1055 646 1074 q 688 1008 688 1036 q 680 969 688 996 q 674 943 675 949 l 631 707 z "},"#":{"ha":1171,"x_min":31,"x_max":1274,"o":"m 272 427 q 414 689 352 568 q 334 689 384 687 l 282 690 q 219 695 235 692 q 190 716 204 699 q 176 757 176 733 q 199 822 176 796 q 250 852 222 848 q 496 863 279 857 l 561 989 q 601 1042 572 1011 q 654 1074 629 1074 q 733 1011 733 1074 q 679 864 733 970 l 920 864 q 1015 1058 989 1023 q 1088 1093 1040 1093 q 1143 1072 1120 1093 q 1166 1022 1166 1051 q 1102 865 1166 999 l 1138 867 q 1274 795 1274 872 q 1256 736 1274 762 q 1206 701 1238 711 q 1087 690 1175 690 l 1029 690 l 899 427 l 996 427 q 1122 353 1122 427 q 1093 286 1122 311 q 1021 260 1063 260 l 988 260 q 923 258 964 260 l 825 258 q 740 66 785 172 q 623 -16 708 -16 q 556 39 556 -16 q 642 260 556 71 l 366 260 q 245 37 281 112 q 158 -16 220 -16 q 102 5 124 -16 q 79 54 79 26 q 98 103 79 65 q 180 260 117 141 l 102 260 q 49 284 67 260 q 31 335 31 309 q 56 402 31 375 q 155 428 81 429 l 272 427 m 600 690 l 459 427 l 719 427 l 845 690 l 600 690 z "},"$":{"ha":963,"x_min":73,"x_max":954,"o":"m 537 -21 l 511 -191 q 420 -262 499 -262 q 375 -241 389 -262 q 365 -191 360 -220 l 389 -40 l 362 -41 q 161 -17 249 -47 q 73 67 73 14 q 102 141 73 107 q 197 175 130 175 q 287 155 226 175 q 370 136 352 136 q 416 139 389 136 l 463 437 q 261 493 340 446 q 182 616 182 541 q 286 823 182 720 q 548 972 391 926 l 566 1084 q 652 1164 579 1164 q 712 1084 724 1164 l 698 994 q 866 958 777 990 q 954 883 954 926 q 921 816 954 849 q 845 783 888 783 q 756 798 810 783 q 669 811 709 808 l 635 603 l 650 603 q 846 540 752 603 q 941 351 941 477 q 537 -21 941 66 m 519 782 q 391 669 391 736 q 491 610 391 623 l 519 782 m 568 174 q 739 326 739 215 q 609 432 739 419 l 568 174 z "},"%":{"ha":1139,"x_min":208,"x_max":1154,"o":"m 208 864 q 303 1045 208 977 q 475 1114 399 1114 q 627 1056 576 1114 q 679 918 679 998 q 593 737 679 802 q 401 672 507 672 q 259 728 311 672 q 208 864 208 783 m 378 890 q 428 833 378 833 q 509 892 509 833 q 446 953 509 953 q 397 935 416 953 q 378 890 378 918 m 391 298 l 553 545 q 798 932 648 690 q 958 1088 888 1088 q 1011 1068 989 1088 q 1032 1021 1032 1049 q 1007 961 1032 992 q 896 789 978 924 q 696 481 874 754 l 503 184 q 441 83 486 160 q 370 -7 395 7 q 321 -21 345 -21 q 270 -1 291 -21 q 248 46 248 18 q 391 298 248 84 m 635 171 q 717 371 635 282 q 921 460 799 460 q 1087 408 1020 460 q 1154 277 1154 356 q 1066 78 1154 169 q 847 -14 979 -14 q 693 39 751 -14 q 635 171 635 92 m 806 198 q 888 146 806 146 q 967 185 949 146 q 984 248 984 224 q 959 284 984 268 q 896 300 934 300 q 828 266 849 300 q 806 198 806 232 z "},"&":{"ha":909,"x_min":54,"x_max":911,"o":"m 666 83 q 348 -29 511 -29 q 140 44 226 -29 q 54 223 54 117 q 92 370 54 298 q 189 484 130 441 q 437 636 247 527 q 417 779 417 711 q 495 976 417 890 q 679 1061 573 1061 q 801 1015 754 1061 q 848 899 848 969 q 638 585 848 724 q 715 400 667 502 l 753 507 q 784 548 760 525 q 841 571 808 571 q 893 544 875 571 q 911 484 911 517 q 887 373 911 444 q 805 221 863 301 q 884 24 884 68 q 851 -35 884 -6 q 779 -64 818 -64 q 749 -58 762 -64 q 725 -41 735 -52 q 701 5 715 -30 l 666 83 m 601 720 q 688 860 688 793 q 654 895 688 895 q 607 868 628 895 q 587 800 587 842 q 601 720 587 758 m 484 489 l 353 412 q 262 335 292 377 q 231 249 231 292 q 272 170 231 201 q 374 139 313 139 q 591 225 488 139 q 484 489 556 296 z "},"'":{"ha":602,"x_min":311,"x_max":545,"o":"m 487 707 q 453 651 481 672 q 387 629 425 629 q 332 650 353 629 q 311 696 311 670 q 338 850 311 716 q 374 1011 364 985 q 407 1056 383 1038 q 469 1074 430 1074 q 524 1055 503 1074 q 545 1008 545 1036 q 534 954 545 991 q 531 943 532 947 l 487 707 z "},"(":{"ha":509,"x_min":70,"x_max":638,"o":"m 266 214 q 376 -106 266 -21 q 444 -202 444 -159 q 413 -264 444 -236 q 344 -293 382 -293 q 168 -172 267 -293 q 70 183 70 -51 q 165 650 70 437 q 382 976 261 863 q 562 1089 503 1089 q 617 1067 595 1089 q 638 1015 638 1045 q 617 961 638 989 q 503 857 597 933 q 338 590 410 772 q 266 214 266 408 z "},")":{"ha":509,"x_min":11,"x_max":570,"o":"m 87 -293 q 33 -272 55 -293 q 11 -223 11 -252 q 29 -173 11 -195 q 104 -113 47 -150 q 309 159 242 -24 q 376 515 376 341 q 363 676 376 602 q 329 794 349 749 q 264 890 309 839 q 204 992 204 958 q 236 1058 204 1026 q 308 1089 267 1089 q 422 1011 353 1089 q 531 802 492 934 q 570 537 570 671 q 498 148 570 359 q 293 -178 426 -64 q 87 -293 159 -293 z "},"*":{"ha":736,"x_min":140,"x_max":815,"o":"m 610 770 q 701 615 701 659 q 669 557 701 585 q 599 529 637 529 q 528 568 561 529 q 443 686 492 630 q 232 553 283 553 q 177 573 199 553 q 155 623 155 594 q 189 687 155 658 q 268 746 224 717 q 302 771 299 767 q 156 831 172 813 q 140 872 140 848 q 171 937 140 908 q 241 966 201 966 q 387 920 262 966 q 395 970 392 949 q 426 1053 401 1025 q 498 1080 450 1080 q 554 1061 533 1080 q 575 1015 575 1042 l 564 926 q 741 945 691 945 q 795 924 774 945 q 815 876 815 904 q 786 811 815 840 q 610 770 756 782 z "},"+":{"ha":848,"x_min":176,"x_max":818,"o":"m 562 357 l 543 237 q 510 182 538 207 q 441 157 481 157 q 387 176 408 157 q 367 223 367 196 q 385 354 367 237 q 296 351 333 351 q 210 371 244 351 q 176 423 176 391 q 208 490 176 469 q 321 511 240 511 q 410 514 359 511 q 416 559 413 534 q 531 710 433 710 q 587 690 565 710 q 609 643 609 670 q 605 618 609 635 q 593 564 595 576 l 585 517 l 598 515 l 692 518 q 818 450 818 518 q 788 383 818 412 q 718 354 759 354 l 671 359 l 648 359 q 615 358 634 359 l 584 357 l 562 357 z "},",":{"ha":602,"x_min":117,"x_max":408,"o":"m 193 -233 q 139 -213 160 -233 q 117 -166 117 -193 q 180 -51 117 -150 q 270 72 243 49 q 330 96 296 96 q 386 76 363 96 q 408 30 408 56 q 305 -143 408 8 q 275 -189 288 -170 q 193 -233 245 -233 z "},"-":{"ha":848,"x_min":199,"x_max":749,"o":"m 299 286 q 228 305 256 286 q 199 355 199 323 q 237 422 199 395 q 325 449 275 449 l 646 456 q 720 437 690 456 q 749 386 749 418 q 721 321 749 348 q 622 291 692 295 q 299 286 553 286 z "},".":{"ha":602,"x_min":188,"x_max":412,"o":"m 188 10 q 227 83 188 50 q 315 115 267 115 q 385 92 359 115 q 412 35 412 69 q 373 -39 412 -7 q 284 -71 334 -71 q 216 -46 244 -71 q 188 10 188 -22 z "},"/":{"ha":711,"x_min":26,"x_max":843,"o":"m 105 -61 q 48 -40 71 -61 q 26 8 26 -19 q 301 453 26 74 q 566 856 489 714 q 694 1060 652 1017 q 765 1103 736 1103 q 817 1084 791 1103 q 843 1030 843 1065 q 814 956 843 999 q 707 772 786 913 q 452 387 628 631 q 345 235 368 271 q 194 -7 321 199 q 105 -61 158 -61 z "},":":{"ha":602,"x_min":226,"x_max":487,"o":"m 290 616 l 290 667 q 305 714 290 691 q 347 751 320 737 q 404 765 373 765 q 487 674 487 765 q 451 573 487 603 q 373 543 416 543 q 313 563 336 543 q 290 616 290 583 m 226 185 q 344 329 226 329 q 426 229 426 329 q 390 115 426 146 q 310 83 355 83 q 226 185 226 83 z "},";":{"ha":602,"x_min":134,"x_max":525,"o":"m 326 610 l 327 655 q 337 701 328 680 q 376 742 347 721 q 439 762 404 762 q 525 669 525 762 q 489 566 525 597 q 408 534 454 534 q 349 556 371 534 q 326 610 326 578 m 210 -132 q 154 -113 175 -132 q 134 -61 134 -93 q 220 90 134 -6 q 358 186 307 186 q 412 165 390 186 q 434 115 434 144 q 351 -3 434 67 q 309 -56 314 -34 q 210 -132 286 -132 z "},";":{"ha":602,"x_min":134,"x_max":525,"o":"m 326 610 l 327 655 q 337 701 328 680 q 376 742 347 721 q 439 762 404 762 q 525 669 525 762 q 489 566 525 597 q 408 534 454 534 q 349 556 371 534 q 326 610 326 578 m 210 -132 q 154 -113 175 -132 q 134 -61 134 -93 q 220 90 134 -6 q 358 186 307 186 q 412 165 390 186 q 434 115 434 144 q 351 -3 434 67 q 309 -56 314 -34 q 210 -132 286 -132 z "},"<":{"ha":848,"x_min":218,"x_max":722,"o":"m 480 418 q 615 275 517 373 q 640 222 640 254 q 609 161 640 189 q 538 132 578 132 q 451 179 498 132 l 385 256 q 277 336 332 316 q 218 400 218 357 q 292 485 218 453 q 377 532 336 503 q 538 663 418 562 q 647 720 606 720 q 701 699 680 720 q 722 650 722 677 q 700 595 722 619 q 480 418 677 571 z "},"=":{"ha":848,"x_min":172,"x_max":804,"o":"m 385 519 l 292 517 q 237 535 258 517 q 216 583 216 554 q 366 677 216 677 l 411 677 l 728 676 q 784 657 763 676 q 804 611 804 638 q 775 547 804 574 q 703 519 745 519 l 385 519 m 640 189 l 585 189 q 506 191 551 189 l 427 192 q 311 189 366 193 q 202 199 232 184 q 172 252 172 214 q 194 313 172 286 q 273 345 216 340 q 397 349 330 349 l 452 349 q 530 347 486 349 l 610 346 l 656 346 q 723 325 705 346 q 742 279 742 304 q 712 217 742 244 q 640 189 683 189 z "},">":{"ha":848,"x_min":228,"x_max":782,"o":"m 537 436 q 336 678 336 608 q 367 734 336 706 q 437 762 398 762 q 499 733 475 762 q 739 519 627 577 q 782 460 782 495 q 736 384 782 420 q 521 237 690 347 q 304 126 352 126 q 249 148 271 126 q 228 197 228 169 q 282 276 228 243 q 537 436 336 309 z "},"?":{"ha":786,"x_min":161,"x_max":838,"o":"m 334 236 q 275 260 300 236 q 251 315 251 283 q 449 508 251 399 q 648 703 648 618 q 595 808 648 757 q 477 860 543 860 q 369 818 439 860 q 271 777 298 777 q 214 800 237 777 q 191 856 191 824 q 314 986 191 930 q 505 1043 436 1043 q 740 948 642 1043 q 838 732 838 854 q 777 554 838 633 q 656 439 717 475 q 413 272 475 331 q 334 236 374 236 m 161 29 q 200 126 161 75 q 298 176 240 176 q 354 155 332 176 q 376 97 376 134 q 340 -2 376 44 q 252 -49 304 -49 q 188 -26 215 -49 q 161 29 161 -3 z "},"@":{"ha":1293,"x_min":84,"x_max":1284,"o":"m 722 353 q 549 273 630 273 q 400 325 456 273 q 344 453 344 377 q 472 708 344 584 q 751 832 600 832 q 823 780 823 832 q 797 715 823 739 q 677 659 771 691 q 571 591 602 634 q 541 507 541 548 q 552 473 541 488 q 578 458 563 458 q 667 504 626 458 l 734 593 q 819 640 769 640 q 878 583 878 640 q 858 497 878 561 q 853 474 853 483 q 934 440 853 440 q 1047 493 1005 440 q 1089 647 1089 547 q 990 844 1089 766 q 740 921 890 921 q 407 762 534 921 q 281 410 281 604 q 373 178 281 273 q 631 83 466 83 q 721 93 679 83 q 870 144 762 103 q 924 155 899 155 q 983 132 960 155 q 1006 74 1006 109 q 860 -48 1006 -3 q 605 -94 713 -94 q 229 43 374 -94 q 84 385 84 180 q 277 882 84 658 q 769 1105 471 1105 q 1140 983 995 1105 q 1284 678 1284 860 q 1185 382 1284 501 q 895 262 1086 262 q 722 353 802 262 z "},"A":{"ha":1016,"x_min":68,"x_max":954,"o":"m 722 290 q 555 275 670 283 q 388 258 441 269 q 233 20 265 55 q 153 -16 201 -16 q 93 7 117 -16 q 68 61 68 29 q 208 310 68 97 q 203 328 203 320 q 279 400 203 378 q 798 1003 734 1003 q 884 913 871 1003 q 901 522 884 787 q 925 228 918 258 q 943 158 932 198 q 954 84 954 111 q 919 11 954 43 q 841 -21 884 -21 q 722 290 756 -21 m 698 675 q 513 428 608 551 q 612 439 548 435 q 706 446 686 443 q 698 675 706 535 z "},"B":{"ha":876,"x_min":100,"x_max":888,"o":"m 743 518 q 843 424 806 484 q 880 304 880 364 q 698 61 880 155 q 195 -32 515 -32 q 126 1 153 -32 q 106 74 100 34 l 220 793 q 227 855 220 795 q 260 998 238 965 q 364 1048 281 1031 q 553 1065 446 1065 q 785 984 682 1065 q 888 786 888 902 q 743 518 888 623 m 524 882 l 453 882 q 418 880 427 882 l 396 736 l 372 595 q 447 588 417 588 q 626 635 554 588 q 697 755 697 682 q 644 841 697 801 q 524 882 590 882 m 343 407 l 302 153 q 588 193 483 163 q 693 283 693 223 q 627 369 693 334 q 526 403 560 403 q 343 407 466 403 z "},"C":{"ha":859,"x_min":64,"x_max":964,"o":"m 814 1004 q 890 1034 850 1034 q 964 933 964 1034 q 932 767 964 812 q 844 722 899 722 q 764 786 782 722 q 745 822 755 816 q 690 828 734 828 q 422 642 587 828 q 257 316 257 455 q 297 212 257 256 q 399 168 336 168 q 505 187 456 168 q 655 269 553 206 q 740 304 713 304 q 800 281 777 304 q 823 223 823 258 q 798 162 823 189 q 692 85 774 135 q 530 9 611 35 q 370 -17 449 -17 q 148 74 232 -17 q 64 287 64 164 q 292 759 64 506 q 719 1013 519 1013 q 814 1004 780 1013 z "},"D":{"ha":1002,"x_min":106,"x_max":1026,"o":"m 189 -7 q 128 17 150 -5 q 106 71 106 40 q 145 289 106 96 q 237 850 189 486 q 253 954 247 925 q 299 1019 259 983 q 381 1055 338 1055 q 487 1013 404 1055 q 604 957 581 963 q 907 761 788 894 q 1026 473 1026 629 q 873 109 1026 283 q 414 -66 720 -66 q 189 -7 282 -66 m 417 821 l 311 149 q 444 115 358 115 q 663 157 595 115 q 782 275 730 199 q 833 443 833 352 q 785 590 833 523 q 662 701 736 657 q 417 821 588 745 z "},"E":{"ha":867,"x_min":90,"x_max":994,"o":"m 409 871 q 361 603 382 707 q 630 628 445 610 q 797 640 761 640 q 857 619 835 640 q 880 564 880 598 q 854 493 880 524 q 772 457 829 462 q 598 440 716 452 q 319 416 480 429 q 279 157 279 224 q 285 125 279 133 q 368 117 290 117 l 420 117 l 622 121 q 685 127 631 121 q 760 113 731 134 q 788 53 788 92 q 730 -43 788 -20 q 410 -66 672 -66 q 140 -16 191 -66 q 90 142 90 35 q 158 550 90 258 q 219 892 219 806 q 231 995 222 964 q 266 1046 239 1026 q 336 1067 293 1067 q 387 1048 366 1067 q 677 1089 546 1089 q 888 1067 782 1089 q 994 982 994 1045 q 961 903 994 937 q 886 869 928 869 q 857 873 871 869 q 647 903 751 903 q 409 871 538 903 z "},"F":{"ha":843,"x_min":59,"x_max":959,"o":"m 389 861 q 353 636 367 710 q 528 663 457 663 q 751 649 683 663 q 820 579 820 635 q 786 498 820 531 q 710 465 751 465 q 603 471 659 465 q 498 476 549 476 q 322 446 450 476 l 256 21 q 216 -44 250 -17 q 139 -72 182 -72 q 80 -46 100 -72 q 65 21 59 -20 l 187 798 q 201 876 194 841 q 216 957 210 917 q 253 1023 223 997 q 325 1050 283 1050 q 368 1040 352 1050 q 636 1067 527 1067 q 838 1031 717 1067 q 959 948 959 996 q 926 882 959 916 q 850 847 893 847 q 817 854 835 847 q 607 882 732 882 q 389 861 534 882 z "},"G":{"ha":944,"x_min":18,"x_max":970,"o":"m 916 399 q 681 77 841 201 q 327 -47 520 -47 q 18 233 18 -47 q 233 784 18 502 q 649 1065 448 1065 q 828 1015 719 1065 q 937 907 937 964 q 903 837 937 870 q 825 804 869 804 q 741 842 805 804 q 620 880 680 880 q 432 746 557 880 q 259 483 307 611 q 211 254 211 355 q 250 159 211 180 q 356 138 289 138 q 558 204 467 138 q 701 378 649 271 q 416 314 547 368 q 372 304 398 304 q 313 329 334 304 q 291 383 291 354 q 452 520 291 474 q 886 567 613 567 q 947 545 924 567 q 970 490 970 522 q 916 399 970 432 z "},"H":{"ha":1067,"x_min":78,"x_max":1172,"o":"m 865 424 q 327 342 742 418 q 294 187 317 288 q 262 32 270 79 q 225 -32 256 -6 q 156 -57 193 -57 q 100 -35 121 -57 q 78 19 78 -13 q 123 237 78 50 q 259 965 163 400 q 295 1028 264 1003 q 365 1054 326 1054 q 421 1033 399 1054 q 444 979 444 1012 q 413 810 444 955 l 397 720 q 372 590 382 638 q 356 521 361 553 l 626 571 q 892 602 764 597 q 941 846 903 648 q 999 977 951 906 q 1090 1048 1047 1048 q 1148 1027 1124 1048 q 1172 975 1172 1005 q 1164 940 1172 957 q 1132 831 1145 895 q 1123 796 1128 816 q 1112 737 1113 748 q 1074 546 1105 699 q 1029 293 1037 370 l 1008 77 q 972 -1 1004 27 q 898 -29 941 -29 q 837 -7 861 -29 q 813 44 813 14 l 844 293 q 852 354 848 330 l 859 391 q 865 424 861 408 z "},"I":{"ha":759,"x_min":45,"x_max":886,"o":"m 583 821 q 520 489 553 688 l 473 184 l 564 186 q 660 185 622 186 q 717 162 697 184 q 736 111 736 140 q 704 35 736 67 q 627 3 671 3 l 580 3 q 513 1 552 3 l 446 0 q 262 -12 338 -2 q 127 -25 174 -25 q 68 -3 91 -25 q 45 51 45 19 q 78 127 45 94 q 156 160 111 160 q 279 170 212 160 q 395 828 348 648 l 247 823 q 189 844 214 822 q 165 901 165 865 q 195 974 165 941 q 278 1009 225 1006 q 477 1013 332 1013 q 684 1000 566 1013 q 829 982 802 988 q 871 959 856 977 q 886 912 886 942 q 852 832 886 863 q 773 802 819 802 q 583 821 740 802 z "},"J":{"ha":924,"x_min":62,"x_max":1045,"o":"m 802 838 l 799 819 q 793 789 796 808 q 652 175 737 432 q 405 -82 566 -82 q 171 4 279 -82 q 62 197 62 90 q 177 339 62 339 q 259 264 259 339 q 256 235 259 250 q 311 149 250 194 q 434 103 371 103 q 477 170 454 103 q 548 478 500 237 q 609 833 595 719 l 513 833 l 433 836 q 371 859 395 836 q 348 913 348 882 q 486 1021 348 1021 l 514 1021 q 553 1019 532 1021 l 593 1018 q 749 1022 635 1017 q 879 1028 837 1028 q 1045 943 1045 1028 q 1014 867 1045 901 q 936 833 983 833 l 855 838 l 802 838 z "},"K":{"ha":848,"x_min":76,"x_max":932,"o":"m 266 16 q 233 -49 260 -23 q 166 -75 205 -75 q 99 -44 121 -75 q 76 23 76 -12 q 158 493 76 54 q 238 946 212 773 q 277 1012 245 985 q 349 1039 309 1039 q 407 1017 384 1039 q 430 960 430 995 q 416 874 430 940 l 362 616 q 773 993 384 631 q 850 1028 808 1028 q 909 1005 885 1028 q 932 949 932 982 q 896 879 932 924 q 732 714 859 833 q 444 461 606 595 q 665 225 604 281 q 774 151 726 169 q 834 79 834 132 q 804 5 834 40 q 730 -31 774 -31 q 590 21 674 -31 q 313 300 507 72 l 266 16 z "},"L":{"ha":765,"x_min":31,"x_max":762,"o":"m 33 84 l 81 297 q 201 953 142 576 q 238 1017 207 989 q 311 1046 269 1046 q 369 1024 347 1046 q 391 968 391 1002 q 357 751 391 941 l 303 462 q 228 121 284 363 q 652 200 388 123 q 683 204 669 204 q 743 179 724 204 q 762 127 762 154 q 704 33 762 65 q 470 -31 645 1 q 175 -62 294 -62 q 31 49 31 -62 q 33 84 31 65 z "},"M":{"ha":1226,"x_min":56,"x_max":1202,"o":"m 450 606 q 351 342 428 557 q 251 52 273 127 q 133 -45 209 -45 q 77 -23 98 -45 q 56 33 56 -1 q 148 319 56 119 q 227 503 201 437 l 337 802 q 433 990 392 949 q 524 1031 475 1031 q 608 963 591 1031 q 627 628 624 895 q 647 290 630 406 q 867 787 743 469 l 930 943 q 1059 1040 968 1040 q 1127 996 1101 1040 q 1153 815 1153 952 l 1152 654 q 1157 463 1151 567 q 1176 262 1163 359 q 1202 41 1202 75 q 1166 -25 1202 6 q 1087 -57 1131 -57 q 994 50 1013 -57 l 983 214 q 979 633 980 254 q 951 571 967 611 q 821 279 864 362 l 755 154 q 663 7 697 44 q 578 -31 629 -31 q 499 45 521 -31 l 481 171 q 450 606 467 275 z "},"N":{"ha":1129,"x_min":62,"x_max":1201,"o":"m 369 686 q 292 214 325 455 q 233 -8 269 38 q 153 -54 197 -54 q 84 -30 107 -54 q 62 27 62 -5 q 81 123 62 48 q 159 576 132 358 l 178 704 q 190 827 186 752 q 201 942 195 898 q 247 1019 207 986 q 332 1051 286 1051 q 430 965 382 1051 q 924 249 667 527 l 941 351 q 973 565 943 363 q 1005 812 1003 766 l 1010 918 q 1126 1043 1017 1043 q 1201 886 1201 1043 q 1164 596 1201 783 l 1094 167 q 1059 45 1086 118 q 951 -28 1031 -28 q 874 4 913 -28 q 696 209 836 37 q 369 686 557 380 z "},"O":{"ha":1109,"x_min":85,"x_max":1158,"o":"m 85 321 q 176 636 85 463 q 420 919 267 810 q 745 1028 574 1028 q 1158 696 1158 1028 q 969 194 1158 429 q 516 -41 780 -41 q 206 60 327 -41 q 85 321 85 162 m 281 354 q 355 202 281 262 q 545 143 430 143 q 837 316 711 143 q 963 671 963 489 q 907 804 963 764 q 716 843 852 843 q 505 764 606 843 q 342 563 403 686 q 281 354 281 441 z "},"P":{"ha":740,"x_min":48,"x_max":832,"o":"m 287 383 q 234 71 268 290 q 198 8 227 33 q 131 -17 169 -17 q 70 9 92 -17 q 55 71 48 35 l 84 260 q 148 572 100 364 q 210 885 182 730 q 337 1053 239 1061 q 500 1065 377 1065 q 731 984 630 1065 q 832 789 832 902 q 689 499 832 621 q 344 378 546 378 q 287 383 321 378 m 458 890 l 420 890 q 391 889 404 890 l 376 793 q 324 558 369 747 q 372 553 353 553 q 572 617 493 553 q 652 762 652 681 q 592 851 652 812 q 458 890 532 890 z "},"Q":{"ha":1217,"x_min":84,"x_max":1244,"o":"m 774 -47 q 547 -87 652 -87 q 221 48 357 -87 q 84 372 84 183 q 304 828 84 629 q 807 1028 524 1028 q 1134 903 1024 1028 q 1244 564 1244 777 q 1176 255 1244 370 q 970 50 1107 140 l 1076 -60 l 1143 -121 q 1177 -191 1177 -151 q 1142 -263 1177 -230 q 1064 -297 1107 -297 q 774 -47 1013 -297 m 614 102 q 538 243 538 186 q 573 318 538 286 q 652 350 608 350 q 725 309 699 350 q 836 174 767 241 q 992 302 936 228 q 1048 528 1048 376 q 982 755 1048 669 q 777 840 915 840 q 428 704 576 840 q 280 403 280 568 q 377 182 280 277 q 614 102 473 87 z "},"R":{"ha":889,"x_min":68,"x_max":907,"o":"m 287 288 l 262 79 q 224 4 256 31 q 151 -24 192 -24 q 91 -1 114 -24 q 68 52 68 21 q 96 221 68 70 l 210 921 q 254 1005 218 969 q 351 1042 290 1042 q 502 1031 431 1042 q 643 998 595 1018 q 759 929 690 979 q 868 814 828 880 q 907 672 907 749 q 617 350 907 454 q 785 225 699 304 q 871 100 871 147 q 838 25 871 59 q 760 -8 804 -8 q 696 21 724 -8 q 287 288 519 214 m 381 850 l 324 490 l 353 490 q 625 541 535 490 q 715 641 715 591 q 631 775 715 710 q 448 846 548 840 q 381 850 448 846 z "},"S":{"ha":963,"x_min":54,"x_max":996,"o":"m 54 157 q 87 247 54 212 q 170 282 121 282 q 250 220 229 282 q 411 136 275 136 q 650 188 522 136 q 779 328 779 239 q 731 411 779 388 q 525 436 683 433 q 312 486 402 439 q 222 612 222 533 q 383 870 222 745 q 728 994 544 994 q 897 961 798 994 q 996 883 996 927 q 964 818 996 852 q 886 783 932 783 q 792 798 852 783 q 699 811 736 811 q 520 767 610 811 q 430 669 430 722 q 518 611 430 625 l 675 604 q 839 568 768 600 q 945 482 909 537 q 980 351 980 427 q 799 60 980 161 q 376 -41 618 -41 q 138 17 222 -41 q 54 157 54 76 z "},"T":{"ha":966,"x_min":146,"x_max":1118,"o":"m 681 831 l 649 513 q 621 275 633 348 q 614 208 618 260 q 565 37 606 80 q 485 -5 523 -5 q 424 18 448 -5 q 401 73 401 41 q 410 114 401 84 q 423 189 420 148 q 446 431 426 230 l 486 819 l 414 817 q 218 828 290 812 q 146 899 146 844 q 177 978 146 943 q 257 1013 208 1013 l 449 1000 q 621 1008 500 1000 q 785 1015 741 1015 l 998 1011 q 1067 1008 1051 1011 q 1100 987 1082 1006 q 1118 939 1118 968 q 1084 862 1118 896 q 1010 828 1050 828 l 718 831 l 681 831 z "},"U":{"ha":1023,"x_min":113,"x_max":1099,"o":"m 376 819 l 356 701 q 337 603 347 648 l 327 546 q 319 505 322 521 q 305 363 305 422 q 504 136 305 136 q 728 295 627 136 q 897 889 828 454 q 941 973 905 938 q 1025 1008 977 1008 q 1099 938 1099 1008 q 1028 586 1099 891 q 813 116 958 281 q 475 -49 668 -49 q 113 332 113 -49 q 150 626 113 433 l 180 782 q 194 861 188 821 q 237 977 203 925 q 313 1028 270 1028 q 372 1007 347 1028 q 397 953 397 985 q 376 819 397 928 z "},"V":{"ha":937,"x_min":193,"x_max":1053,"o":"m 473 285 l 697 694 l 781 857 q 854 965 798 890 q 970 1040 911 1040 q 1029 1017 1005 1040 q 1053 961 1053 994 q 1025 895 1053 925 q 941 770 977 838 l 610 163 q 506 -4 548 47 q 414 -54 464 -54 q 363 -42 383 -54 q 331 -4 342 -29 q 291 180 320 21 q 233 581 261 340 q 205 764 225 642 q 193 899 193 846 q 230 1004 193 977 q 306 1032 267 1032 q 354 1019 335 1032 q 380 984 372 1006 q 391 904 389 962 q 399 819 394 846 q 425 628 404 792 q 473 285 444 443 z "},"W":{"ha":1444,"x_min":181,"x_max":1565,"o":"m 825 21 q 803 183 808 88 q 791 583 798 278 q 658 339 727 448 q 517 83 554 174 q 520 64 520 73 q 484 -8 520 23 q 395 -39 447 -39 q 317 -13 345 -39 q 292 61 288 12 l 284 142 l 267 385 q 241 596 260 480 q 184 916 222 712 q 181 936 181 927 q 214 1005 181 975 q 294 1035 247 1035 q 346 1019 323 1035 q 385 956 369 1003 q 421 736 400 909 q 456 347 441 563 q 617 660 534 485 q 781 949 719 882 q 884 1015 843 1015 q 952 984 924 1015 q 980 818 980 953 q 976 682 980 790 q 994 257 971 554 q 1155 542 1056 361 l 1265 741 q 1319 867 1274 760 q 1481 1035 1387 1035 q 1542 1014 1520 1035 q 1565 960 1565 993 q 1558 928 1565 945 q 1519 851 1552 911 q 1459 735 1486 792 q 1388 602 1432 677 q 1307 463 1345 526 l 1165 226 q 1097 106 1122 154 q 1001 -37 1036 -8 q 920 -65 966 -65 q 849 -41 878 -65 q 825 21 820 -16 z "},"X":{"ha":1005,"x_min":10,"x_max":1117,"o":"m 715 489 q 771 389 744 439 q 948 97 879 191 q 964 48 964 76 q 928 -24 964 9 q 850 -57 893 -57 q 701 97 784 -57 q 603 279 646 206 q 564 347 585 309 q 174 -14 217 20 q 95 -47 130 -47 q 34 -24 58 -47 q 10 31 10 -1 q 23 78 10 59 q 105 160 35 98 q 471 501 243 283 q 302 758 351 679 q 220 865 253 837 q 192 925 192 892 q 227 999 192 965 q 305 1032 262 1032 q 452 901 368 1032 q 622 643 536 770 l 827 868 q 939 975 873 918 q 1033 1032 1004 1032 q 1093 1008 1068 1032 q 1117 951 1117 984 q 1081 878 1117 913 q 916 707 962 760 q 715 489 838 616 z "},"Y":{"ha":882,"x_min":138,"x_max":1006,"o":"m 418 323 q 243 680 337 481 l 143 891 q 138 924 138 906 q 171 1000 138 968 q 249 1032 205 1032 q 323 986 304 1032 l 448 707 q 541 515 517 551 q 823 971 694 747 q 921 1032 859 1032 q 982 1008 958 1032 q 1006 954 1006 983 q 947 838 1006 928 q 878 724 920 794 q 538 180 651 347 q 389 -17 425 14 q 315 -47 353 -47 q 256 -26 280 -47 q 232 28 232 -5 q 263 103 232 51 q 418 323 294 155 z "},"Z":{"ha":963,"x_min":9,"x_max":1095,"o":"m 273 134 q 749 149 634 149 q 913 132 871 149 q 955 77 955 115 q 921 1 955 32 q 838 -29 888 -29 q 779 -26 818 -29 l 745 -25 l 101 -35 q 33 -14 57 -35 q 9 39 9 7 q 33 116 9 72 q 128 236 56 159 q 387 519 199 312 q 727 847 574 727 q 564 840 621 840 l 290 840 q 214 843 228 840 q 180 864 199 845 q 161 912 161 883 q 315 1023 161 1023 q 454 1018 379 1023 q 593 1013 528 1013 l 658 1013 l 905 1017 q 1095 940 1095 1017 q 1066 874 1095 907 q 987 812 1037 840 l 884 751 q 649 545 781 682 q 276 136 516 408 l 273 134 z "},"[":{"ha":523,"x_min":46,"x_max":629,"o":"m 393 850 l 243 -102 l 268 -102 q 326 -103 307 -102 l 362 -104 q 417 -110 404 -106 q 444 -132 431 -114 q 458 -176 458 -149 q 429 -251 458 -219 q 357 -283 400 -283 q 298 -281 336 -283 l 264 -279 q 168 -283 244 -279 q 46 -204 46 -290 q 143 398 46 -177 q 214 861 170 560 q 233 967 225 946 q 270 1009 241 987 q 336 1031 299 1031 l 364 1031 q 405 1029 382 1031 l 447 1028 l 553 1031 q 629 960 629 1031 q 448 848 629 848 l 430 848 q 393 850 416 848 z "},"\\":{"ha":764,"x_min":240,"x_max":714,"o":"m 240 936 q 273 1002 240 971 q 348 1034 306 1034 q 397 1016 376 1034 q 463 894 419 998 q 547 631 506 791 l 622 339 q 707 33 669 154 q 714 3 714 17 q 682 -64 714 -32 q 608 -96 650 -96 q 539 -55 559 -96 q 483 115 520 -14 q 342 657 372 572 q 248 897 313 743 q 240 936 240 916 z "},"]":{"ha":523,"x_min":7,"x_max":602,"o":"m 253 -102 l 403 850 l 365 848 q 197 926 197 842 q 227 1000 197 970 q 303 1031 256 1031 l 379 1028 l 408 1028 q 449 1029 425 1028 l 490 1031 q 602 956 602 1035 q 568 746 602 941 q 422 -180 541 593 q 292 -283 405 -283 l 201 -279 l 176 -279 l 81 -283 q 26 -262 46 -283 q 7 -208 7 -240 q 37 -136 7 -168 q 110 -104 67 -104 l 133 -104 l 229 -102 l 253 -102 z "},"^":{"ha":848,"x_min":247,"x_max":863,"o":"m 576 933 q 323 761 386 761 q 269 782 290 761 q 247 830 247 802 q 285 893 247 865 q 521 1090 324 922 q 587 1117 552 1117 q 666 1087 626 1117 q 805 946 707 1057 q 844 903 827 920 q 863 859 863 882 q 831 801 863 827 q 760 774 800 774 q 693 807 722 774 q 576 933 664 840 z "},"_":{"ha":871,"x_min":-87,"x_max":907,"o":"m -87 -233 l -68 -109 l 907 -109 l 888 -233 l -87 -233 z "},"`":{"ha":772,"x_min":233,"x_max":551,"o":"m 233 1038 q 263 1098 233 1070 q 334 1126 294 1126 q 469 1027 387 1126 q 551 881 551 927 q 520 824 551 850 q 449 799 490 799 q 383 833 404 799 q 261 989 316 949 q 233 1038 233 1010 z "},"a":{"ha":772,"x_min":32,"x_max":741,"o":"m 511 24 q 311 -37 378 -37 q 32 220 32 -37 q 181 571 32 433 q 511 708 330 708 q 660 669 578 708 q 741 581 741 630 q 720 526 741 550 q 681 369 696 472 q 665 214 665 266 q 669 172 665 184 l 689 106 q 705 41 705 53 q 674 -15 705 15 q 599 -45 644 -45 q 511 24 570 -45 m 535 533 q 496 546 515 546 q 309 461 395 546 q 223 243 223 376 q 328 123 223 123 q 488 179 414 123 q 535 533 495 435 z "},"b":{"ha":824,"x_min":67,"x_max":825,"o":"m 209 4 q 144 -21 180 -21 q 89 0 111 -21 q 67 50 67 21 q 79 115 67 60 l 88 165 l 210 933 q 249 1025 218 981 q 330 1068 281 1068 q 392 1010 392 1068 q 387 977 392 994 q 377 933 380 951 l 336 673 q 530 729 443 729 q 747 640 670 729 q 825 425 825 551 q 692 104 825 237 q 384 -29 559 -29 q 209 4 288 -29 m 305 473 l 259 186 q 412 146 349 146 q 577 217 509 146 q 646 398 646 288 q 609 509 646 463 q 502 555 573 555 q 305 473 429 555 z "},"c":{"ha":713,"x_min":45,"x_max":725,"o":"m 45 222 q 183 549 45 378 q 469 721 321 721 q 634 680 544 721 q 725 585 725 639 q 695 519 725 549 q 624 489 665 489 q 559 519 593 489 q 441 551 523 551 q 306 439 387 551 q 224 253 224 328 q 266 162 224 197 q 382 127 307 127 q 499 163 429 127 q 589 197 572 197 q 644 175 623 197 q 665 122 665 152 q 545 10 665 62 q 356 -43 425 -43 q 131 31 216 -43 q 45 222 45 104 z "},"d":{"ha":816,"x_min":71,"x_max":915,"o":"m 665 682 q 738 1006 716 932 q 838 1080 760 1080 q 915 1007 915 1080 q 851 699 915 971 q 775 312 798 473 q 753 96 753 150 q 748 44 753 63 q 714 2 743 25 q 650 -21 685 -21 q 581 25 599 -21 q 374 -31 482 -31 q 151 52 232 -31 q 71 253 71 135 q 192 577 71 430 q 512 725 314 725 q 665 682 612 725 m 618 468 q 488 553 587 553 q 305 467 362 553 q 248 293 248 380 q 293 186 248 229 q 402 143 338 143 q 578 220 491 143 q 618 468 578 243 z "},"e":{"ha":777,"x_min":52,"x_max":755,"o":"m 238 204 q 412 134 296 134 q 571 171 501 134 q 667 204 633 204 q 727 153 727 204 q 620 21 727 73 q 385 -31 513 -31 q 140 40 229 -31 q 52 229 52 110 q 170 551 52 395 q 484 708 288 708 q 683 666 612 708 q 755 545 755 623 q 698 421 755 471 q 482 306 642 370 l 238 204 m 250 376 l 414 441 q 572 519 504 480 q 459 545 532 545 q 250 376 334 545 z "},"f":{"ha":706,"x_min":111,"x_max":837,"o":"m 501 696 q 633 705 593 705 q 746 618 760 705 q 597 532 732 528 q 467 526 555 534 q 437 343 453 454 q 410 161 414 183 q 363 -36 391 37 q 262 -109 336 -109 q 200 -84 224 -109 q 182 -22 176 -60 q 186 -5 183 -14 q 231 177 218 92 l 285 516 q 239 511 273 515 q 199 507 213 507 q 135 531 158 507 q 118 596 111 555 q 197 679 127 659 q 318 690 229 688 q 339 767 321 703 q 456 992 382 918 q 713 1084 550 1084 q 823 996 837 1084 q 693 907 808 907 q 565 850 611 907 q 507 716 530 807 l 501 696 z "},"g":{"ha":737,"x_min":-39,"x_max":791,"o":"m 488 36 q 305 -35 410 -35 q 113 36 182 -35 q 44 214 44 106 q 178 546 44 397 q 544 694 311 694 q 719 632 672 694 q 791 554 791 623 q 753 404 791 515 q 666 68 703 252 q 513 -282 621 -182 q 208 -382 404 -382 q -39 -290 -39 -382 q -13 -224 -39 -254 q 59 -195 14 -195 q 145 -205 91 -195 q 245 -218 204 -218 q 401 -158 344 -218 q 488 36 458 -98 m 597 513 q 512 541 552 541 q 307 446 380 541 q 233 236 233 352 q 333 125 233 125 q 443 178 384 125 q 525 284 503 232 q 597 513 547 336 z "},"h":{"ha":802,"x_min":79,"x_max":790,"o":"m 366 621 q 608 718 479 718 q 745 679 699 718 q 790 545 790 639 q 788 503 790 525 q 760 145 760 313 q 764 58 760 84 q 735 -7 767 27 q 654 -41 703 -41 q 586 -9 604 -41 q 568 142 568 23 q 598 418 568 281 q 609 496 609 471 q 580 536 609 536 q 327 335 463 536 q 252 31 287 79 q 163 -17 216 -17 q 102 6 126 -17 q 79 58 79 29 q 94 109 79 81 q 144 388 103 130 l 202 745 l 208 766 q 231 936 231 861 q 243 1024 231 998 q 282 1068 254 1050 q 344 1086 311 1086 q 426 981 426 1086 q 391 753 426 901 q 366 621 378 696 z "},"i":{"ha":389,"x_min":106,"x_max":475,"o":"m 258 901 q 297 981 258 947 q 382 1015 336 1015 q 448 990 420 1015 q 475 930 475 966 q 436 850 475 885 q 350 815 398 815 q 284 840 311 815 q 258 901 258 865 m 188 -21 q 128 0 151 -21 q 106 55 106 22 l 125 193 q 174 468 143 333 q 204 621 197 568 q 241 685 210 658 q 313 711 273 711 q 370 690 348 711 q 392 635 392 669 q 362 479 392 608 q 317 229 332 349 q 294 67 302 108 q 256 3 286 26 q 188 -21 226 -21 z "},"j":{"ha":560,"x_min":-155,"x_max":458,"o":"m 241 897 q 279 979 241 943 q 366 1014 317 1014 q 431 989 405 1014 q 458 926 458 964 q 420 847 458 884 q 334 811 382 811 q 268 837 294 811 q 241 897 241 862 m 26 -129 l 45 -175 q 93 -222 64 -222 q 127 -196 112 -222 q 152 -129 142 -169 q 189 249 161 -90 q 222 610 214 563 q 262 689 231 657 q 336 721 294 721 q 395 699 366 721 q 423 652 423 677 l 374 162 q 340 -130 352 -51 q 281 -273 328 -208 q 180 -372 235 -338 q 64 -406 125 -406 q -99 -313 -43 -406 q -155 -190 -155 -221 q -121 -114 -155 -145 q -41 -83 -87 -83 q 26 -129 0 -83 z "},"k":{"ha":750,"x_min":59,"x_max":802,"o":"m 382 309 q 283 248 305 259 q 247 66 260 138 q 210 2 240 28 q 140 -24 180 -24 q 59 56 59 -24 q 94 250 59 87 q 127 411 120 363 l 207 860 q 214 928 210 885 q 227 1021 219 998 q 263 1066 235 1044 q 330 1088 292 1088 q 388 1067 366 1088 q 410 1012 410 1046 l 401 926 q 358 665 391 827 q 325 476 340 577 q 647 734 431 549 q 719 765 682 765 q 778 742 753 765 q 802 687 802 718 q 789 640 802 661 q 692 546 776 618 q 544 425 608 474 l 656 243 q 731 70 731 122 q 696 3 731 33 q 618 -28 661 -28 q 545 24 564 -28 q 406 270 517 100 q 382 309 384 304 z "},"l":{"ha":380,"x_min":96,"x_max":445,"o":"m 296 100 q 182 -29 276 -29 q 119 -4 142 -29 q 103 62 96 21 l 252 1002 q 291 1065 258 1041 q 361 1089 323 1089 q 424 1064 402 1089 q 439 1002 445 1040 l 296 100 z "},"m":{"ha":1079,"x_min":71,"x_max":1063,"o":"m 334 600 q 548 720 456 720 q 687 639 654 720 q 899 713 780 713 q 1063 514 1063 713 q 1059 397 1063 469 q 1055 193 1059 385 q 1050 40 1053 89 q 1013 -34 1046 -9 q 941 -58 979 -58 q 880 -35 898 -58 q 861 54 861 -12 l 877 414 q 850 536 877 536 q 770 502 836 536 q 683 452 704 468 q 667 229 672 393 q 646 -12 658 22 q 605 -65 633 -45 q 543 -85 576 -85 q 483 -63 506 -85 q 460 -10 460 -41 l 470 66 q 481 233 476 117 q 500 461 490 396 q 505 530 507 503 q 309 366 415 484 l 254 52 q 218 -5 250 16 q 144 -26 187 -26 q 71 58 71 -26 q 79 132 71 88 l 117 383 q 138 541 132 478 q 184 695 147 638 q 266 753 222 753 q 327 727 302 753 q 351 670 351 702 q 334 600 351 661 z "},"n":{"ha":727,"x_min":59,"x_max":743,"o":"m 348 627 q 572 726 463 726 q 743 530 743 726 q 731 404 743 476 l 723 355 q 706 175 706 254 q 701 45 706 83 q 666 -21 696 7 q 594 -49 636 -49 q 513 29 513 -49 q 524 281 513 201 q 557 460 534 361 q 567 513 567 498 q 544 547 567 547 q 407 471 479 547 q 297 315 334 395 q 252 113 260 235 q 241 31 250 54 q 206 -13 233 8 q 140 -33 178 -33 q 82 -13 104 -33 q 59 39 59 7 l 64 113 q 108 350 70 187 q 150 558 144 500 q 161 656 155 622 q 198 715 167 690 q 270 741 229 741 q 348 635 358 741 l 348 627 z "},"o":{"ha":730,"x_min":64,"x_max":742,"o":"m 64 239 q 188 555 64 408 q 504 703 311 703 q 679 627 615 703 q 742 427 742 551 q 626 104 742 249 q 336 -40 509 -40 q 140 39 215 -40 q 64 239 64 118 m 254 266 q 282 174 254 208 q 363 139 311 139 q 504 213 452 139 q 556 404 556 288 q 465 524 556 524 q 315 437 375 524 q 254 266 254 351 z "},"p":{"ha":743,"x_min":18,"x_max":766,"o":"m 250 -26 l 206 -302 q 170 -369 200 -342 q 98 -395 139 -395 q 39 -373 61 -395 q 18 -319 18 -352 q 60 -50 18 -300 q 140 567 124 339 q 184 699 146 652 q 271 746 222 746 q 330 721 309 746 q 347 659 352 695 l 344 652 q 534 701 443 701 q 766 437 766 701 q 646 82 766 204 q 370 -40 526 -40 q 250 -26 305 -40 m 319 440 q 281 161 307 333 q 399 142 338 142 q 536 224 494 142 q 578 413 578 307 q 507 521 578 521 q 319 440 420 521 z "},"q":{"ha":722,"x_min":44,"x_max":758,"o":"m 416 -33 q 363 -40 387 -40 q 130 29 216 -40 q 44 214 44 98 q 98 435 44 313 q 275 640 153 558 q 572 721 397 721 q 627 703 607 721 q 677 718 655 718 q 735 694 712 718 q 758 637 758 670 q 714 400 758 597 q 624 52 682 256 q 549 -250 566 -151 q 525 -330 538 -310 q 487 -363 511 -351 q 434 -376 463 -376 q 355 -296 355 -376 q 369 -215 355 -264 q 416 -33 382 -166 m 564 554 l 554 554 l 507 558 q 377 509 446 558 q 272 383 309 460 q 236 244 236 305 q 272 158 236 192 q 386 123 307 123 q 532 411 486 123 q 564 554 534 422 z "},"r":{"ha":667,"x_min":58,"x_max":726,"o":"m 714 489 q 681 417 709 450 q 603 385 654 385 q 531 450 531 385 q 533 473 531 460 l 539 542 q 296 385 384 518 l 243 45 q 207 -20 237 7 q 135 -46 177 -46 q 77 -21 97 -46 q 64 45 58 5 l 134 489 l 151 586 q 169 654 158 633 q 202 688 179 674 q 257 703 226 703 q 335 625 333 703 q 615 715 469 715 q 726 593 726 715 q 721 534 726 566 l 714 489 z "},"s":{"ha":676,"x_min":37,"x_max":700,"o":"m 541 553 q 485 557 513 557 q 315 510 315 557 q 403 441 315 483 q 596 320 548 368 q 644 206 644 271 q 546 33 644 106 q 282 -40 449 -40 q 111 -7 186 -40 q 37 81 37 25 q 130 167 37 167 q 216 147 161 167 q 304 127 276 127 q 451 188 451 127 q 368 260 451 220 q 179 370 227 326 q 131 482 131 413 q 218 653 131 583 q 568 724 304 724 q 700 642 700 724 q 678 547 700 599 q 613 496 656 496 q 541 553 545 496 z "},"t":{"ha":654,"x_min":111,"x_max":694,"o":"m 595 534 l 540 534 q 460 533 492 534 q 453 511 456 522 q 447 489 450 500 q 395 224 395 312 q 427 144 395 144 q 494 180 458 144 q 558 216 528 216 q 612 193 586 216 q 637 132 637 170 q 559 18 637 66 q 401 -29 480 -29 q 212 200 212 -29 q 279 528 212 325 q 138 555 164 534 q 111 627 111 576 q 139 694 111 668 q 210 720 166 720 l 315 710 l 332 846 q 364 906 336 881 q 431 932 392 932 q 511 819 511 932 q 497 714 511 800 q 529 718 517 716 q 631 713 567 723 q 694 631 694 703 q 665 561 694 587 q 595 534 635 534 z "},"u":{"ha":722,"x_min":83,"x_max":775,"o":"m 724 392 l 677 76 q 672 33 674 52 q 635 -29 667 -4 q 564 -54 604 -54 q 489 -3 507 -54 q 306 -35 399 -35 q 168 -5 220 -35 q 99 64 115 25 q 83 174 83 104 q 118 512 83 363 q 182 692 153 661 q 260 724 211 724 q 319 703 296 724 q 342 650 342 682 q 317 542 342 625 q 269 214 269 390 q 272 160 269 184 q 334 144 298 144 q 501 165 412 144 l 552 475 q 586 633 570 585 q 627 700 601 681 q 693 720 653 720 q 752 699 730 720 q 775 647 775 679 q 749 509 775 635 l 724 391 l 724 392 z "},"v":{"ha":675,"x_min":113,"x_max":784,"o":"m 389 279 q 525 513 438 358 q 630 685 601 656 q 700 713 659 713 q 760 691 735 713 q 784 637 784 669 q 765 585 784 622 q 704 476 747 548 q 591 292 661 404 l 467 91 q 437 39 446 60 q 414 4 428 19 q 381 -19 401 -11 q 340 -28 361 -28 q 254 43 271 -28 q 117 590 231 142 q 113 614 113 601 q 148 687 113 658 q 225 717 183 717 q 297 670 279 717 q 389 279 315 623 z "},"w":{"ha":950,"x_min":115,"x_max":1038,"o":"m 525 399 q 435 229 505 368 q 301 -5 338 41 q 218 -52 264 -52 q 166 -11 191 -52 q 128 109 141 29 q 115 524 115 188 q 122 621 115 585 q 160 681 130 656 q 231 705 191 705 q 298 673 282 705 q 310 541 315 642 l 306 408 l 306 272 q 475 615 408 474 q 593 703 514 703 q 652 677 631 703 q 677 579 673 651 q 684 425 682 507 l 688 233 l 863 655 q 953 704 887 704 q 1013 683 987 704 q 1038 629 1038 661 q 1023 576 1038 608 q 915 335 1007 544 q 784 68 822 127 q 713 -23 747 9 q 631 -56 680 -56 q 548 19 577 -56 q 525 399 519 94 z "},"x":{"ha":820,"x_min":20,"x_max":907,"o":"m 584 336 l 751 83 q 766 40 766 61 q 732 -27 766 5 q 658 -60 699 -60 q 587 -22 615 -60 q 431 211 559 16 q 235 52 372 161 q 172 0 188 16 q 100 -31 137 -31 q 42 -7 65 -31 q 20 45 20 16 q 42 102 20 75 q 142 186 64 130 q 342 351 184 218 q 312 404 327 377 q 209 554 256 506 q 181 608 181 581 q 214 677 181 644 q 288 710 246 710 q 406 612 338 710 l 494 473 q 744 677 686 614 q 826 720 780 720 q 883 696 860 720 q 907 644 907 673 q 868 569 907 610 q 813 516 830 528 q 703 432 797 505 l 584 336 z "},"y":{"ha":768,"x_min":96,"x_max":850,"o":"m 299 69 q 133 503 267 175 q 97 600 97 571 q 132 670 97 637 q 209 704 168 704 q 260 687 239 704 q 334 555 281 671 q 437 285 386 440 q 671 649 623 592 q 766 705 720 705 q 826 683 802 705 q 850 630 850 661 q 832 575 850 605 q 522 89 814 545 q 315 -256 382 -121 q 245 -372 267 -350 q 181 -393 222 -393 q 120 -371 144 -393 q 96 -318 96 -349 q 299 69 96 -259 z "},"z":{"ha":747,"x_min":31,"x_max":808,"o":"m 391 154 l 429 155 q 537 146 484 157 q 614 136 581 136 q 674 115 651 136 q 696 60 696 94 q 664 -13 696 18 q 587 -43 631 -43 q 508 -33 552 -43 q 431 -24 463 -24 q 144 -49 276 -24 q 112 -53 125 -53 q 54 -34 76 -53 q 31 14 31 -14 q 88 107 31 66 q 507 525 271 243 q 426 522 465 522 q 216 538 284 522 q 148 608 148 554 q 179 684 148 652 q 254 717 211 717 q 353 708 292 717 q 454 701 422 701 q 593 707 519 701 q 732 714 699 714 q 808 659 808 714 q 728 518 808 593 q 391 154 684 475 z "},"{":{"ha":509,"x_min":28,"x_max":652,"o":"m 268 383 q 316 247 316 303 q 298 165 316 216 q 279 47 279 102 q 333 -86 279 -86 q 429 -100 405 -86 q 454 -153 454 -113 q 305 -261 454 -261 q 149 -187 203 -261 q 95 9 95 -113 q 116 154 95 94 q 131 216 131 193 q 79 292 131 252 q 28 368 28 330 q 78 454 28 406 q 193 533 129 502 q 200 581 196 548 q 211 664 203 613 l 222 750 q 338 1026 248 950 q 529 1101 428 1101 q 614 1079 576 1101 q 652 1018 652 1057 q 618 951 652 975 q 530 928 584 928 q 452 907 476 928 q 418 851 427 886 q 393 679 408 817 q 373 534 379 563 q 336 458 368 506 q 268 383 304 411 z "},"|":{"ha":585,"x_min":186,"x_max":557,"o":"m 192 -78 l 210 33 l 376 1079 q 411 1139 382 1116 q 478 1162 440 1162 q 537 1139 517 1162 q 551 1079 557 1116 l 357 -144 q 326 -211 352 -177 q 254 -245 299 -245 q 186 -146 186 -245 q 192 -78 186 -117 z "},"}":{"ha":509,"x_min":-52,"x_max":547,"o":"m 307 383 q 264 453 279 409 q 250 526 250 498 q 260 594 250 541 q 307 850 307 829 q 249 926 307 920 q 149 943 178 933 q 120 989 120 954 q 167 1070 120 1040 q 274 1101 214 1101 q 421 1048 358 1101 q 484 878 484 995 q 429 534 484 820 q 510 467 474 511 q 547 388 547 424 q 507 319 547 348 l 471 296 q 395 229 404 250 q 387 154 387 209 q 290 -123 387 14 q 67 -261 193 -261 q -52 -189 -52 -261 q -37 -131 -52 -157 q 2 -96 -22 -106 q 95 -86 27 -86 q 171 -5 135 -86 q 208 165 208 77 q 228 277 212 240 q 307 383 243 313 z "},"~":{"ha":848,"x_min":92,"x_max":872,"o":"m 380 484 q 255 386 336 484 q 172 346 221 346 q 115 364 139 346 q 92 410 92 382 q 192 545 92 457 q 404 633 292 633 q 530 574 484 633 q 654 468 614 468 q 687 521 659 468 q 795 610 734 610 q 872 547 872 610 q 796 392 872 468 q 626 317 720 317 q 499 351 547 317 q 393 467 452 385 l 380 484 z "}," ":{"ha":661,"x_min":0,"x_max":0,"o":""},"¡":{"ha":330,"x_min":84,"x_max":436,"o":"m 241 992 q 274 1060 241 1030 q 346 1089 307 1089 q 409 1053 382 1089 q 436 984 436 1017 q 404 917 436 945 q 332 888 372 888 q 267 923 293 888 q 241 992 241 959 m 90 39 l 204 758 q 238 818 210 794 q 304 842 266 842 q 359 823 338 842 q 380 772 380 804 q 363 646 380 756 l 276 109 q 253 6 262 21 q 216 -31 239 -18 q 164 -45 192 -45 q 105 -21 126 -45 q 90 39 84 2 z "},"¢":{"ha":848,"x_min":100,"x_max":865,"o":"m 469 180 l 458 111 q 378 24 444 24 q 330 38 341 24 q 325 86 319 52 l 341 187 q 100 510 100 279 q 209 822 100 678 q 471 1006 318 966 q 552 1178 492 1178 q 603 1159 583 1178 q 622 1111 622 1139 q 604 1006 622 1071 q 722 974 696 989 q 805 1008 757 1008 q 865 951 865 1008 q 817 829 865 912 q 736 746 768 746 q 679 788 708 746 q 577 842 642 842 l 500 343 q 581 379 549 351 q 666 481 613 407 q 723 519 695 519 q 782 499 755 519 q 808 454 808 479 q 713 300 808 406 q 469 180 618 195 m 368 354 l 443 831 q 319 717 372 804 q 267 525 267 630 q 368 354 267 397 z "},"£":{"ha":1102,"x_min":71,"x_max":1062,"o":"m 410 143 q 551 103 459 140 q 693 65 637 65 q 848 134 821 65 q 868 186 860 168 l 877 207 q 954 241 901 241 q 1031 170 1031 241 q 997 60 1031 130 q 881 -56 962 -9 q 667 -102 799 -102 q 509 -62 602 -102 q 359 -25 418 -25 q 253 -52 313 -25 q 172 -79 191 -79 q 120 -58 141 -79 q 100 -9 100 -36 q 143 65 100 28 q 249 189 222 135 q 275 323 275 243 q 267 458 275 376 l 230 457 q 106 471 142 454 q 71 529 71 489 q 102 598 71 568 q 172 628 132 628 l 246 625 l 267 625 l 269 636 q 425 955 292 819 q 760 1092 558 1092 q 971 1041 880 1092 q 1062 900 1062 989 q 1028 817 1062 844 q 957 790 994 790 q 916 801 929 790 q 871 871 903 812 q 724 928 841 928 q 540 849 616 928 q 444 636 465 770 q 575 642 500 642 q 690 637 616 642 q 810 635 770 635 q 863 615 842 635 q 885 564 885 596 q 855 495 885 524 q 783 467 825 467 q 664 471 743 467 q 549 475 589 475 q 444 471 505 475 q 452 344 452 397 q 410 143 452 241 z "},"¤":{"ha":848,"x_min":35,"x_max":971,"o":"m 756 603 q 760 557 760 582 q 694 382 760 461 q 812 217 812 269 q 778 154 812 185 q 699 122 743 122 q 631 155 666 122 l 583 214 q 536 261 557 243 q 452 252 494 252 q 319 293 385 252 q 195 179 248 229 q 119 146 158 146 q 59 168 83 146 q 35 222 35 191 q 53 273 35 250 q 146 364 71 297 q 209 424 189 401 q 201 488 201 456 q 263 644 201 570 q 167 800 167 754 q 200 864 167 833 q 277 895 233 895 q 333 872 312 895 l 438 746 q 562 760 491 760 q 644 734 593 760 q 890 850 866 850 q 948 826 924 850 q 971 770 971 802 q 936 701 971 726 q 756 603 901 677 m 391 506 q 416 451 391 472 q 483 429 440 429 q 541 457 512 429 q 570 526 570 484 q 511 583 570 583 q 434 565 477 583 q 391 506 391 547 z "},"¥":{"ha":848,"x_min":146,"x_max":924,"o":"m 381 421 l 347 481 q 212 493 337 483 q 146 554 146 500 q 242 648 146 648 l 256 648 q 273 647 264 648 q 165 907 165 876 q 195 961 165 932 q 264 989 224 989 q 333 944 305 989 q 391 814 361 900 q 444 689 421 736 l 498 576 q 767 935 516 581 q 852 985 799 985 q 903 967 882 985 q 924 918 924 949 q 885 839 924 898 q 750 652 846 780 l 762 653 q 822 638 796 657 q 848 587 848 620 q 819 521 848 549 q 750 493 791 493 q 624 481 715 493 l 551 408 l 581 407 q 665 414 603 406 q 730 399 708 419 q 753 349 753 379 q 596 250 753 250 q 524 253 581 250 l 509 149 q 507 125 507 136 q 498 45 503 77 q 467 -12 494 13 q 403 -36 439 -36 q 351 -17 370 -36 q 332 28 332 1 l 336 70 q 349 167 339 117 l 363 258 q 198 286 225 264 q 172 337 172 307 q 203 401 172 374 q 306 422 235 428 l 342 421 l 381 421 z "},"¦":{"ha":585,"x_min":174,"x_max":549,"o":"m 542 1076 l 473 635 q 368 532 456 532 q 296 604 296 532 q 299 636 296 618 l 368 1076 q 404 1136 374 1110 q 473 1161 435 1161 q 530 1138 511 1161 q 542 1076 549 1114 m 420 300 l 349 -143 q 246 -244 333 -244 q 174 -172 174 -244 q 177 -140 174 -158 l 246 300 q 283 361 252 337 q 349 385 313 385 q 406 361 387 385 q 420 300 425 338 z "},"§":{"ha":882,"x_min":81,"x_max":913,"o":"m 775 351 q 803 243 803 302 q 697 31 803 114 q 424 -53 592 -53 q 173 11 264 -53 q 81 189 81 75 q 188 326 81 326 q 234 312 218 326 q 254 267 250 298 l 261 199 q 445 97 280 97 q 571 130 532 97 q 610 211 610 163 q 469 317 610 282 q 198 536 198 385 q 311 746 198 652 q 283 848 283 787 q 384 1037 283 962 q 629 1112 484 1112 q 831 1056 750 1112 q 913 948 913 1000 q 883 881 913 911 q 815 851 853 851 q 722 903 786 851 q 606 954 661 954 q 512 932 559 954 q 465 868 465 911 q 494 814 465 838 q 629 751 523 790 q 820 653 781 696 q 860 549 860 610 q 775 351 860 425 m 663 431 q 687 502 687 475 q 656 554 687 526 q 481 635 625 583 q 395 668 437 651 q 355 583 355 631 q 379 527 355 553 q 463 484 403 500 q 578 454 523 467 q 663 431 598 450 z "},"¨":{"ha":772,"x_min":254,"x_max":812,"o":"m 254 865 q 304 945 254 917 q 389 974 353 974 q 505 896 505 974 q 450 815 505 842 q 366 789 395 789 q 254 865 254 789 m 555 865 q 591 939 555 907 q 711 971 627 971 q 780 947 747 971 q 812 891 812 923 q 770 819 812 850 q 658 789 728 789 q 587 812 618 789 q 555 865 555 835 z "},"©":{"ha":1105,"x_min":95,"x_max":1143,"o":"m 543 171 q 209 261 323 171 q 95 522 95 351 q 311 937 95 774 q 758 1099 526 1099 q 1043 999 943 1099 q 1143 745 1143 899 q 951 347 1143 524 q 543 171 760 171 m 751 930 q 414 830 555 930 q 273 555 273 730 q 337 391 273 451 q 515 330 402 330 q 823 445 680 330 q 966 734 966 559 q 751 930 966 930 m 578 410 q 412 457 480 410 q 345 580 345 504 q 461 780 345 694 q 715 865 578 865 q 823 803 823 865 q 750 722 823 722 q 719 727 743 722 q 590 699 671 736 q 509 607 509 663 q 597 550 509 550 q 700 585 639 550 q 789 621 764 621 q 836 572 836 621 q 752 453 836 496 q 578 410 669 410 z "},"ª":{"ha":848,"x_min":220,"x_max":778,"o":"m 582 659 q 423 615 508 615 q 220 796 220 615 q 331 1043 220 949 q 576 1137 442 1137 q 709 1111 640 1137 q 778 1047 778 1084 q 761 1010 778 1024 q 733 904 744 969 q 723 800 723 838 q 726 764 723 778 q 730 750 725 762 q 754 668 754 686 q 719 630 754 650 q 648 610 684 610 q 582 659 625 610 m 593 999 q 545 1008 579 1008 q 439 948 484 1008 q 395 808 395 887 q 468 741 395 741 q 558 774 519 741 q 593 999 558 910 z "},"«":{"ha":887,"x_min":61,"x_max":974,"o":"m 321 416 q 378 357 343 393 l 465 268 q 484 222 484 249 q 452 159 484 187 q 381 131 420 131 q 294 178 341 131 l 227 254 q 119 336 175 314 q 61 400 61 357 q 136 485 61 454 q 287 583 201 513 q 436 705 413 690 q 490 720 460 720 q 544 699 522 720 q 566 649 566 677 q 542 592 566 616 q 321 416 519 568 m 730 404 q 866 260 784 342 q 891 211 891 237 q 860 146 891 176 q 789 117 829 117 q 733 139 762 117 q 634 241 704 161 q 526 322 578 304 q 469 385 469 344 q 543 471 469 441 q 694 571 609 498 q 841 689 815 671 q 897 707 867 707 q 951 686 929 707 q 974 637 974 665 q 958 590 974 612 q 730 404 943 568 z "},"¬":{"ha":848,"x_min":162,"x_max":806,"o":"m 612 353 q 282 342 340 342 q 197 360 232 342 q 162 408 162 378 q 209 498 162 456 q 314 541 256 541 l 374 541 l 688 547 q 768 513 729 547 q 806 432 806 479 q 785 313 806 416 l 766 203 q 732 150 761 173 q 665 127 704 127 q 610 145 630 127 q 589 190 589 163 q 603 285 589 201 l 612 353 z "},"­":{"ha":848,"x_min":199,"x_max":749,"o":"m 299 286 q 228 305 256 286 q 199 355 199 323 q 237 422 199 395 q 325 449 275 449 l 646 456 q 720 437 690 456 q 749 386 749 418 q 721 321 749 348 q 622 291 692 295 q 299 286 553 286 z "},"®":{"ha":1105,"x_min":92,"x_max":1153,"o":"m 92 492 q 161 774 92 627 q 388 1013 230 921 q 780 1105 546 1105 q 1052 990 950 1105 q 1153 724 1153 875 q 956 314 1153 487 q 516 140 760 140 q 205 235 319 140 q 92 492 92 330 m 270 521 q 340 362 270 418 q 543 306 410 306 q 840 421 706 306 q 975 701 975 536 q 909 872 975 802 q 741 942 844 942 q 381 813 492 942 q 270 521 270 684 m 644 558 q 721 513 690 538 q 761 477 751 488 q 771 450 771 467 q 753 400 771 423 q 696 376 735 376 q 617 399 656 376 q 500 515 578 422 q 443 400 472 419 q 384 380 414 380 q 333 468 333 380 q 374 638 333 522 q 436 789 415 753 q 519 860 458 824 q 635 897 580 895 l 656 899 q 812 874 745 904 q 880 766 880 844 q 838 641 880 699 q 644 558 797 582 m 593 798 l 544 650 q 688 684 640 655 q 737 758 737 712 q 629 798 737 803 l 593 798 z "},"¯":{"ha":871,"x_min":267,"x_max":846,"o":"m 696 778 l 513 778 q 455 779 488 778 l 399 781 q 320 785 337 782 q 285 807 303 789 q 267 848 267 825 q 427 939 267 939 q 505 936 452 939 l 552 935 l 669 935 l 717 936 q 846 870 846 939 q 696 778 846 778 z "},"°":{"ha":848,"x_min":275,"x_max":808,"o":"m 275 859 q 370 1061 275 983 q 576 1139 464 1139 q 747 1079 686 1139 q 808 935 808 1020 q 709 738 808 814 q 490 661 610 661 q 332 718 389 661 q 275 859 275 774 m 433 882 q 453 824 433 847 q 513 800 474 800 q 607 830 563 800 q 651 914 651 860 q 556 1000 651 1000 q 472 967 511 1000 q 433 882 433 934 z "},"±":{"ha":848,"x_min":96,"x_max":806,"o":"m 549 347 l 547 323 q 510 188 536 235 q 423 142 483 142 q 371 162 389 142 q 353 208 353 182 l 366 293 q 373 345 368 313 q 283 342 321 342 q 198 361 232 342 q 164 414 164 380 q 196 485 164 464 q 309 505 229 505 q 397 509 334 505 q 403 549 399 515 q 520 710 422 710 q 576 690 554 710 q 597 642 597 671 q 583 574 597 625 q 580 558 581 564 l 573 511 l 587 510 q 663 513 593 509 q 806 444 806 522 q 776 372 806 399 q 708 345 745 345 l 658 349 l 635 349 q 604 347 621 349 l 549 347 m 479 85 l 545 85 l 584 86 q 739 14 739 92 q 710 -54 739 -24 q 640 -83 680 -83 q 602 -79 630 -83 q 404 -82 585 -76 q 216 -87 302 -87 q 132 -68 168 -87 q 96 -14 96 -48 q 210 78 96 78 q 347 81 257 78 q 479 85 436 85 z "},"²":{"ha":848,"x_min":189,"x_max":673,"o":"m 374 714 q 559 722 509 714 q 586 725 576 725 q 633 707 614 725 q 652 665 652 689 q 601 593 652 616 q 431 571 550 571 l 401 571 q 361 572 385 571 l 322 574 q 243 581 262 576 q 207 603 224 585 q 189 645 189 620 q 208 715 189 679 q 268 786 226 751 q 429 885 309 821 q 499 933 482 914 q 516 977 516 952 q 477 1010 516 1010 q 387 958 424 1010 q 306 909 348 909 q 242 968 242 909 q 325 1090 242 1036 q 500 1145 408 1145 q 621 1098 570 1145 q 673 996 673 1052 q 644 895 673 947 q 560 814 615 843 l 374 714 z "},"³":{"ha":848,"x_min":172,"x_max":677,"o":"m 546 876 q 644 756 644 843 q 561 606 644 664 q 360 547 477 547 q 172 628 172 547 q 195 688 172 657 q 253 720 219 720 q 271 716 261 720 q 383 697 323 697 q 488 763 488 697 q 452 791 488 787 q 353 809 372 800 q 335 844 335 819 q 358 903 335 884 q 454 942 381 923 q 500 983 500 955 q 431 1008 500 1008 q 363 1000 401 1008 q 313 990 323 990 q 270 1005 287 990 q 253 1043 253 1020 q 326 1129 253 1106 q 484 1152 398 1152 q 630 1117 583 1152 q 677 1027 677 1082 q 546 876 677 929 z "},"´":{"ha":772,"x_min":253,"x_max":642,"o":"m 330 806 q 275 825 298 806 q 253 871 253 845 q 296 940 253 905 q 424 1052 339 975 q 566 1129 509 1129 q 621 1109 600 1129 q 642 1062 642 1088 q 597 991 642 1022 q 494 909 558 970 q 404 833 441 860 q 330 806 366 806 z "},"µ":{"ha":848,"x_min":-35,"x_max":939,"o":"m 505 -16 q 316 -46 406 -46 q 234 -36 269 -46 q 123 -238 152 -201 q 44 -275 94 -275 q -13 -254 9 -275 q -35 -205 -35 -233 q 44 -28 -35 -178 q 126 134 117 108 q 142 188 136 160 q 247 508 180 356 q 351 691 315 659 q 434 724 387 724 q 486 705 465 724 q 507 662 507 687 q 462 545 507 631 q 323 160 352 337 l 320 149 q 374 136 345 136 q 553 158 461 136 l 642 403 q 748 640 699 561 q 866 720 798 720 q 918 702 896 720 q 939 659 939 684 q 887 520 939 631 q 777 255 835 409 q 701 41 719 100 q 646 -42 682 -19 q 570 -65 610 -65 q 505 -16 515 -65 z "},"¶":{"ha":1057,"x_min":87,"x_max":1098,"o":"m 833 962 q 758 577 820 831 q 625 123 696 323 q 525 -105 554 -77 q 454 -134 496 -134 q 400 -114 422 -134 q 377 -65 377 -94 q 385 -28 377 -46 q 477 249 397 -3 l 466 249 q 198 327 309 249 q 87 529 87 406 q 209 841 87 686 q 561 1060 332 996 q 823 1124 791 1124 q 876 1101 855 1124 q 896 1050 896 1079 q 833 962 896 990 m 652 916 q 348 760 432 862 q 264 559 264 658 q 334 456 264 497 q 492 415 404 415 q 539 424 512 415 q 641 850 605 618 l 652 916 m 691 -125 q 634 -104 654 -125 q 613 -56 613 -83 q 624 -12 613 -35 q 731 242 677 93 q 836 549 786 391 q 899 779 885 707 q 913 930 913 852 q 922 1044 913 1015 q 958 1092 930 1072 q 1020 1111 986 1111 q 1077 1088 1057 1111 q 1098 981 1098 1065 q 1037 644 1098 865 q 890 188 977 423 q 768 -86 804 -48 q 691 -125 731 -125 z "},"·":{"ha":848,"x_min":380,"x_max":604,"o":"m 380 474 q 419 547 380 514 q 507 579 458 579 q 577 556 551 579 q 604 499 604 533 q 565 425 604 457 q 476 393 526 393 q 408 418 436 393 q 380 474 380 442 z "},"∙":{"ha":848,"x_min":380,"x_max":604,"o":"m 380 474 q 419 547 380 514 q 507 579 458 579 q 577 556 551 579 q 604 499 604 533 q 565 425 604 457 q 476 393 526 393 q 408 418 436 393 q 380 474 380 442 z "},"¸":{"ha":772,"x_min":182,"x_max":587,"o":"m 387 -81 l 306 -52 q 269 -2 269 -38 q 293 52 269 26 q 356 78 317 78 q 516 20 446 78 q 587 -107 587 -38 q 529 -242 587 -184 q 366 -301 471 -301 q 237 -272 293 -301 q 182 -201 182 -243 q 264 -135 182 -135 q 323 -149 284 -135 q 379 -164 361 -164 q 425 -124 425 -164 q 387 -81 425 -94 z "},"¹":{"ha":848,"x_min":225,"x_max":658,"o":"m 290 539 q 243 557 261 539 q 225 602 225 575 q 238 648 225 629 q 267 670 251 666 q 342 677 283 674 l 382 681 l 421 928 q 345 893 375 893 q 286 950 286 893 q 325 1022 286 998 l 389 1055 q 461 1100 409 1066 q 530 1128 509 1128 q 588 1072 588 1128 q 586 1048 588 1061 l 528 679 l 557 679 q 658 627 658 679 q 631 567 658 595 q 567 539 604 539 l 290 539 z "},"º":{"ha":848,"x_min":234,"x_max":795,"o":"m 234 821 q 334 1039 234 939 q 590 1139 434 1139 q 739 1081 683 1139 q 795 935 795 1024 q 701 716 795 814 q 467 618 607 618 q 299 676 364 618 q 234 821 234 735 m 410 834 q 490 758 410 758 q 589 804 555 758 q 623 924 623 849 q 556 1002 623 1002 q 451 947 493 1002 q 410 834 410 893 z "},"»":{"ha":887,"x_min":49,"x_max":945,"o":"m 686 416 q 528 584 543 562 q 513 629 513 606 q 545 691 513 662 q 616 720 576 720 q 670 697 644 720 q 774 583 696 675 q 895 485 833 515 q 945 422 945 460 q 863 336 945 362 q 728 254 804 315 l 638 178 q 536 131 583 131 q 482 151 503 131 q 460 200 460 172 q 505 273 460 241 l 686 416 m 275 404 q 133 552 165 513 q 101 612 101 591 q 132 677 101 648 q 203 707 163 707 q 266 678 239 707 q 363 571 292 650 q 483 471 425 498 q 533 407 533 447 q 452 322 533 351 q 379 286 414 310 q 227 165 344 262 q 125 117 163 117 q 71 138 93 117 q 49 188 49 159 q 92 260 49 227 q 275 404 192 336 z "},"¼":{"ha":848,"x_min":117,"x_max":886,"o":"m 371 583 q 323 602 341 583 q 306 646 306 621 q 319 692 306 673 q 349 715 332 711 q 422 722 366 720 l 463 725 l 501 972 q 425 937 456 937 q 366 995 366 937 q 406 1067 366 1040 l 469 1100 q 542 1145 490 1111 q 611 1173 591 1173 q 667 1093 679 1173 l 608 724 l 637 724 q 715 713 691 724 q 739 671 739 702 q 711 611 739 640 q 647 583 684 583 l 371 583 m 251 522 q 410 526 399 526 l 435 526 l 475 524 l 528 524 l 770 518 q 886 450 886 515 q 860 389 886 415 q 795 363 833 363 q 656 370 783 363 q 374 376 511 376 l 335 376 q 281 375 312 376 l 227 374 q 146 386 170 372 q 122 435 122 400 q 149 497 122 471 q 212 522 176 522 l 251 522 m 533 -107 q 527 -159 530 -138 l 522 -192 q 500 -251 515 -239 q 437 -264 486 -264 q 397 -190 397 -264 q 407 -103 397 -161 q 186 -115 188 -115 q 136 -97 155 -115 q 117 -52 117 -79 q 170 39 117 -1 q 448 302 252 102 q 538 338 484 338 q 587 319 567 338 q 608 275 608 300 q 582 201 608 260 q 576 183 577 190 l 553 20 q 644 -4 621 10 q 666 -44 666 -19 q 648 -92 666 -73 q 604 -111 631 -111 q 533 -107 566 -111 m 296 20 q 358 24 326 20 q 428 28 389 28 l 444 143 q 374 85 410 116 q 296 20 338 54 z "},"½":{"ha":848,"x_min":111,"x_max":878,"o":"m 371 583 q 323 602 341 583 q 306 646 306 621 q 319 692 306 673 q 349 715 332 711 q 422 722 366 720 l 463 725 l 501 972 q 425 937 456 937 q 366 995 366 937 q 406 1067 366 1040 l 469 1100 q 542 1145 490 1111 q 611 1173 591 1173 q 667 1093 679 1173 l 608 724 l 637 724 q 715 713 691 724 q 739 671 739 702 q 711 611 739 640 q 647 583 684 583 l 371 583 m 364 376 l 326 376 q 271 375 302 376 l 216 374 q 135 387 159 372 q 111 436 111 401 q 139 497 111 471 q 201 522 167 522 l 240 522 l 389 526 q 551 523 452 526 l 732 519 q 846 500 815 517 q 878 450 878 484 q 850 389 878 414 q 783 363 823 363 q 645 370 781 363 q 364 376 509 376 m 375 -126 l 427 -126 q 493 -119 447 -126 q 559 -114 528 -114 q 625 -178 625 -114 q 587 -245 625 -214 q 400 -277 549 -277 l 372 -277 l 264 -273 q 191 -254 222 -273 q 159 -199 159 -234 q 183 -113 159 -161 q 245 -34 206 -65 q 403 64 284 -2 q 489 148 489 113 q 479 173 489 160 q 452 186 469 186 q 367 134 407 186 q 286 82 330 82 q 237 100 258 82 q 217 143 217 117 q 299 270 217 212 q 477 328 382 328 q 598 277 549 328 q 647 172 647 227 q 619 63 647 125 q 522 -39 591 1 q 375 -126 452 -80 z "},"¾":{"ha":848,"x_min":109,"x_max":876,"o":"m 666 896 q 764 772 764 863 q 680 626 764 685 q 479 567 597 567 q 290 649 290 567 q 314 708 290 677 q 372 739 338 739 q 389 736 380 739 q 502 717 442 717 q 606 783 606 717 q 570 811 606 805 q 472 828 490 819 q 455 860 455 838 q 480 925 455 905 q 573 961 505 945 q 620 1004 620 974 q 551 1028 620 1028 q 484 1019 522 1028 q 433 1010 444 1010 q 389 1025 406 1010 q 372 1064 372 1040 q 444 1147 372 1124 q 602 1171 515 1171 q 749 1135 702 1171 q 796 1046 796 1099 q 666 896 796 948 m 362 376 l 323 376 q 269 375 300 376 l 214 374 q 132 387 155 372 q 109 435 109 401 q 135 496 109 470 q 199 522 161 522 l 238 522 l 387 526 q 637 521 508 526 l 800 513 q 855 495 834 511 q 876 453 876 479 q 848 389 876 414 q 781 363 821 363 l 647 370 q 362 376 511 376 m 531 -107 q 525 -159 528 -138 l 520 -192 q 498 -251 513 -239 q 435 -264 484 -264 q 395 -190 395 -264 q 405 -103 395 -161 q 184 -115 186 -115 q 134 -97 153 -115 q 115 -52 115 -79 q 168 39 115 -1 q 446 302 250 102 q 536 338 481 338 q 585 319 565 338 q 606 275 606 300 q 580 201 606 260 q 574 183 575 190 l 551 20 q 642 -4 619 10 q 664 -44 664 -19 q 646 -92 664 -73 q 602 -111 629 -111 q 531 -107 564 -111 m 294 20 q 356 24 324 20 q 426 28 387 28 l 442 143 q 372 85 408 116 q 294 20 336 54 z "},"¿":{"ha":786,"x_min":94,"x_max":777,"o":"m 564 942 q 598 1037 564 991 q 684 1083 632 1083 q 750 1060 724 1083 q 777 1004 777 1038 q 740 912 777 961 q 646 864 704 864 q 585 887 606 864 q 564 942 564 909 m 94 258 q 120 386 94 325 q 193 489 146 446 q 351 603 239 532 q 519 722 469 674 q 597 757 555 757 q 654 734 631 757 q 678 678 678 712 q 633 593 678 635 q 391 429 589 551 q 285 288 285 352 q 337 183 285 232 q 456 135 390 135 q 564 176 491 135 q 659 218 634 218 q 716 194 694 218 q 739 135 739 169 q 620 8 739 64 q 427 -49 500 -49 q 191 46 288 -49 q 94 258 94 140 z "},"À":{"ha":1016,"x_min":68,"x_max":954,"o":"m 722 290 q 555 275 670 283 q 388 258 441 269 q 233 20 265 55 q 153 -16 201 -16 q 93 7 117 -16 q 68 61 68 29 q 208 310 68 97 q 203 328 203 320 q 279 400 203 378 q 798 1003 734 1003 q 884 913 871 1003 q 901 522 884 787 q 925 228 918 258 q 943 158 932 198 q 954 84 954 111 q 919 11 954 43 q 841 -21 884 -21 q 722 290 756 -21 m 698 675 q 513 428 608 551 q 612 439 548 435 q 706 446 686 443 q 698 675 706 535 m 634 1351 q 665 1411 634 1383 q 735 1439 695 1439 q 870 1339 789 1439 q 952 1194 952 1240 q 922 1137 952 1162 q 850 1112 891 1112 q 785 1146 806 1112 q 663 1301 718 1261 q 634 1351 634 1323 z "},"Á":{"ha":1016,"x_min":68,"x_max":1114,"o":"m 722 290 q 555 275 670 283 q 388 258 441 269 q 233 20 265 55 q 153 -16 201 -16 q 93 7 117 -16 q 68 61 68 29 q 208 310 68 97 q 203 328 203 320 q 279 400 203 378 q 798 1003 734 1003 q 884 913 871 1003 q 901 522 884 787 q 925 228 918 258 q 943 158 932 198 q 954 84 954 111 q 919 11 954 43 q 841 -21 884 -21 q 722 290 756 -21 m 698 675 q 513 428 608 551 q 612 439 548 435 q 706 446 686 443 q 698 675 706 535 m 802 1105 q 747 1125 770 1105 q 725 1171 725 1145 q 768 1240 725 1205 q 896 1352 811 1274 q 1038 1429 981 1429 q 1093 1409 1072 1429 q 1114 1362 1114 1388 q 1069 1291 1114 1322 q 966 1209 1030 1270 q 876 1133 913 1160 q 802 1105 838 1105 z "},"Â":{"ha":1016,"x_min":68,"x_max":1123,"o":"m 722 290 q 555 275 670 283 q 388 258 441 269 q 233 20 265 55 q 153 -16 201 -16 q 93 7 117 -16 q 68 61 68 29 q 208 310 68 97 q 203 328 203 320 q 279 400 203 378 q 798 1003 734 1003 q 884 913 871 1003 q 901 522 884 787 q 925 228 918 258 q 943 158 932 198 q 954 84 954 111 q 919 11 954 43 q 841 -21 884 -21 q 722 290 756 -21 m 698 675 q 513 428 608 551 q 612 439 548 435 q 706 446 686 443 q 698 675 706 535 m 835 1280 q 585 1107 641 1107 q 528 1128 551 1107 q 506 1177 506 1149 q 546 1240 506 1211 q 782 1438 632 1309 q 847 1463 814 1463 q 1013 1350 913 1463 l 1051 1309 q 1115 1237 1107 1248 q 1123 1207 1123 1226 q 1091 1147 1123 1174 q 1019 1121 1059 1121 q 955 1153 981 1121 q 835 1280 928 1185 z "},"Ã":{"ha":1016,"x_min":68,"x_max":1211,"o":"m 722 290 q 555 275 670 283 q 388 258 441 269 q 233 20 265 55 q 153 -16 201 -16 q 93 7 117 -16 q 68 61 68 29 q 208 310 68 97 q 203 328 203 320 q 279 400 203 378 q 798 1003 734 1003 q 884 913 871 1003 q 901 522 884 787 q 925 228 918 258 q 943 158 932 198 q 954 84 954 111 q 919 11 954 43 q 841 -21 884 -21 q 722 290 756 -21 m 698 675 q 513 428 608 551 q 612 439 548 435 q 706 446 686 443 q 698 675 706 535 m 981 1109 q 854 1130 895 1109 q 779 1203 814 1152 q 738 1232 761 1232 q 663 1182 701 1232 q 582 1134 629 1134 q 532 1149 553 1134 q 511 1188 511 1164 q 579 1293 511 1227 q 758 1360 648 1360 q 851 1342 823 1360 q 924 1265 879 1324 q 981 1236 947 1236 q 1061 1307 1025 1236 q 1142 1354 1084 1354 q 1192 1339 1173 1354 q 1211 1300 1211 1324 q 1144 1188 1211 1267 q 981 1109 1078 1109 z "},"Ä":{"ha":1016,"x_min":68,"x_max":1109,"o":"m 722 290 q 555 275 670 283 q 388 258 441 269 q 233 20 265 55 q 153 -16 201 -16 q 93 7 117 -16 q 68 61 68 29 q 208 310 68 97 q 203 328 203 320 q 279 400 203 378 q 798 1003 734 1003 q 884 913 871 1003 q 901 522 884 787 q 925 228 918 258 q 943 158 932 198 q 954 84 954 111 q 919 11 954 43 q 841 -21 884 -21 q 722 290 756 -21 m 698 675 q 513 428 608 551 q 612 439 548 435 q 706 446 686 443 q 698 675 706 535 m 551 1171 q 601 1251 551 1223 q 686 1280 650 1280 q 802 1202 802 1280 q 747 1121 802 1148 q 663 1095 692 1095 q 551 1171 551 1095 m 852 1171 q 888 1245 852 1213 q 1008 1277 924 1277 q 1077 1253 1044 1277 q 1109 1197 1109 1229 q 1067 1125 1109 1156 q 955 1095 1025 1095 q 884 1118 916 1095 q 852 1171 852 1141 z "},"Å":{"ha":1016,"x_min":68,"x_max":1089,"o":"m 722 290 q 555 275 670 283 q 388 258 441 269 q 233 20 265 55 q 153 -16 201 -16 q 93 7 117 -16 q 68 61 68 29 q 208 310 68 97 q 203 328 203 320 q 279 400 203 378 q 798 1003 734 1003 q 884 913 871 1003 q 901 522 884 787 q 925 228 918 258 q 943 158 932 198 q 954 84 954 111 q 919 11 954 43 q 841 -21 884 -21 q 722 290 756 -21 m 698 675 q 513 428 608 551 q 612 439 548 435 q 706 446 686 443 q 698 675 706 535 m 778 970 q 630 1016 688 970 q 571 1124 571 1061 q 656 1290 571 1222 q 878 1357 741 1357 q 1030 1312 970 1357 q 1089 1203 1089 1267 q 1008 1036 1089 1103 q 778 970 928 970 m 728 1148 q 760 1119 728 1133 q 829 1104 791 1104 q 908 1128 885 1104 q 932 1180 932 1152 q 857 1221 932 1221 q 728 1148 728 1221 z "},"Æ":{"ha":1510,"x_min":16,"x_max":1684,"o":"m 1098 882 q 1048 612 1095 811 q 1318 637 1061 612 q 1484 652 1446 652 q 1544 630 1520 652 q 1567 573 1567 609 q 1444 465 1567 474 l 1006 428 q 967 166 967 235 q 970 139 967 150 q 1057 127 973 127 l 1109 127 l 1312 132 q 1373 139 1319 132 q 1448 123 1420 145 q 1476 62 1476 101 q 1429 -24 1476 9 q 1229 -58 1382 -58 l 1080 -58 q 895 -37 963 -58 q 803 29 827 -15 q 780 156 780 73 q 819 432 780 250 q 488 406 708 422 q 242 116 402 311 q 156 23 180 41 q 100 5 132 5 q 40 28 65 5 q 16 82 16 51 q 32 133 16 103 q 207 348 49 163 q 490 650 366 532 l 741 904 q 881 1019 798 962 q 1023 1076 964 1076 q 1076 1060 1053 1076 q 1366 1100 1240 1100 q 1684 988 1684 1100 q 1649 913 1684 947 q 1573 879 1615 879 q 1545 884 1561 879 q 1337 914 1431 914 q 1098 882 1240 914 m 902 818 q 683 602 867 791 q 859 612 781 610 q 902 818 886 730 z "},"Ç":{"ha":859,"x_min":53,"x_max":956,"o":"m 515 0 q 525 -56 525 -33 q 448 -211 525 -145 q 177 -277 372 -277 q 73 -215 73 -277 q 98 -151 73 -179 q 162 -123 123 -123 l 239 -126 q 342 -114 316 -126 q 368 -75 368 -101 q 333 -38 368 -54 q 212 7 298 -22 q 53 277 53 106 q 280 754 53 496 q 709 1013 507 1013 q 804 1003 772 1013 q 880 1034 839 1034 q 956 931 956 1034 q 834 720 956 720 q 752 790 772 720 q 735 822 742 818 q 680 827 728 827 q 411 638 575 827 q 246 311 246 449 q 284 205 246 253 q 388 158 321 158 q 489 178 438 158 q 644 261 539 197 q 728 297 703 297 q 788 273 764 297 q 811 216 811 249 q 728 110 811 172 q 515 0 646 47 z "},"È":{"ha":867,"x_min":90,"x_max":994,"o":"m 409 871 q 361 603 382 707 q 630 628 445 610 q 797 640 761 640 q 857 619 835 640 q 880 564 880 598 q 854 493 880 524 q 772 457 829 462 q 598 440 716 452 q 319 416 480 429 q 279 157 279 224 q 285 125 279 133 q 368 117 290 117 l 420 117 l 622 121 q 685 127 631 121 q 760 113 731 134 q 788 53 788 92 q 730 -43 788 -20 q 410 -66 672 -66 q 140 -16 191 -66 q 90 142 90 35 q 158 550 90 258 q 219 892 219 806 q 231 995 222 964 q 266 1046 239 1026 q 336 1067 293 1067 q 387 1048 366 1067 q 677 1089 546 1089 q 888 1067 782 1089 q 994 982 994 1045 q 961 903 994 937 q 886 869 928 869 q 857 873 871 869 q 647 903 751 903 q 409 871 538 903 m 502 1424 q 532 1484 502 1456 q 603 1512 563 1512 q 738 1413 656 1512 q 820 1267 820 1313 q 789 1210 820 1236 q 718 1185 759 1185 q 652 1219 673 1185 q 530 1375 585 1335 q 502 1424 502 1396 z "},"É":{"ha":867,"x_min":90,"x_max":994,"o":"m 409 871 q 361 603 382 707 q 630 628 445 610 q 797 640 761 640 q 857 619 835 640 q 880 564 880 598 q 854 493 880 524 q 772 457 829 462 q 598 440 716 452 q 319 416 480 429 q 279 157 279 224 q 285 125 279 133 q 368 117 290 117 l 420 117 l 622 121 q 685 127 631 121 q 760 113 731 134 q 788 53 788 92 q 730 -43 788 -20 q 410 -66 672 -66 q 140 -16 191 -66 q 90 142 90 35 q 158 550 90 258 q 219 892 219 806 q 231 995 222 964 q 266 1046 239 1026 q 336 1067 293 1067 q 387 1048 366 1067 q 677 1089 546 1089 q 888 1067 782 1089 q 994 982 994 1045 q 961 903 994 937 q 886 869 928 869 q 857 873 871 869 q 647 903 751 903 q 409 871 538 903 m 629 1198 q 575 1217 597 1198 q 553 1263 553 1237 q 596 1332 553 1297 q 724 1444 639 1367 q 866 1521 808 1521 q 920 1501 899 1521 q 941 1454 941 1480 q 897 1383 941 1414 q 793 1301 858 1362 q 703 1225 741 1252 q 629 1198 666 1198 z "},"Ê":{"ha":867,"x_min":90,"x_max":994,"o":"m 409 871 q 361 603 382 707 q 630 628 445 610 q 797 640 761 640 q 857 619 835 640 q 880 564 880 598 q 854 493 880 524 q 772 457 829 462 q 598 440 716 452 q 319 416 480 429 q 279 157 279 224 q 285 125 279 133 q 368 117 290 117 l 420 117 l 622 121 q 685 127 631 121 q 760 113 731 134 q 788 53 788 92 q 730 -43 788 -20 q 410 -66 672 -66 q 140 -16 191 -66 q 90 142 90 35 q 158 550 90 258 q 219 892 219 806 q 231 995 222 964 q 266 1046 239 1026 q 336 1067 293 1067 q 387 1048 366 1067 q 677 1089 546 1089 q 888 1067 782 1089 q 994 982 994 1045 q 961 903 994 937 q 886 869 928 869 q 857 873 871 869 q 647 903 751 903 q 409 871 538 903 m 694 1348 q 444 1175 500 1175 q 388 1196 410 1175 q 366 1244 366 1217 q 406 1308 366 1278 q 642 1506 492 1377 q 707 1531 673 1531 q 872 1418 772 1531 l 911 1377 q 975 1305 967 1316 q 983 1275 983 1294 q 951 1215 983 1242 q 879 1189 919 1189 q 814 1221 841 1189 q 694 1348 787 1253 z "},"Ë":{"ha":867,"x_min":90,"x_max":994,"o":"m 409 871 q 361 603 382 707 q 630 628 445 610 q 797 640 761 640 q 857 619 835 640 q 880 564 880 598 q 854 493 880 524 q 772 457 829 462 q 598 440 716 452 q 319 416 480 429 q 279 157 279 224 q 285 125 279 133 q 368 117 290 117 l 420 117 l 622 121 q 685 127 631 121 q 760 113 731 134 q 788 53 788 92 q 730 -43 788 -20 q 410 -66 672 -66 q 140 -16 191 -66 q 90 142 90 35 q 158 550 90 258 q 219 892 219 806 q 231 995 222 964 q 266 1046 239 1026 q 336 1067 293 1067 q 387 1048 366 1067 q 677 1089 546 1089 q 888 1067 782 1089 q 994 982 994 1045 q 961 903 994 937 q 886 869 928 869 q 857 873 871 869 q 647 903 751 903 q 409 871 538 903 m 382 1250 q 431 1330 382 1301 q 516 1358 481 1358 q 632 1280 632 1358 q 577 1200 632 1227 q 494 1173 522 1173 q 382 1250 382 1173 m 682 1249 q 719 1323 682 1291 q 838 1356 755 1356 q 907 1332 875 1356 q 939 1276 939 1308 q 897 1204 939 1234 q 785 1173 855 1173 q 714 1196 746 1173 q 682 1249 682 1219 z "},"Ì":{"ha":759,"x_min":45,"x_max":886,"o":"m 583 821 q 520 489 553 688 l 473 184 l 564 186 q 660 185 622 186 q 717 162 697 184 q 736 111 736 140 q 704 35 736 67 q 627 3 671 3 l 580 3 q 513 1 552 3 l 446 0 q 262 -12 338 -2 q 127 -25 174 -25 q 68 -3 91 -25 q 45 51 45 19 q 78 127 45 94 q 156 160 111 160 q 279 170 212 160 q 395 828 348 648 l 247 823 q 189 844 214 822 q 165 901 165 865 q 195 974 165 941 q 278 1009 225 1006 q 477 1013 332 1013 q 684 1000 566 1013 q 829 982 802 988 q 871 959 856 977 q 886 912 886 942 q 852 832 886 863 q 773 802 819 802 q 583 821 740 802 m 399 1337 q 430 1397 399 1369 q 500 1425 460 1425 q 636 1325 554 1425 q 718 1179 718 1225 q 687 1123 718 1148 q 616 1097 656 1097 q 550 1132 571 1097 q 428 1287 483 1247 q 399 1337 399 1309 z "},"Í":{"ha":759,"x_min":45,"x_max":886,"o":"m 583 821 q 520 489 553 688 l 473 184 l 564 186 q 660 185 622 186 q 717 162 697 184 q 736 111 736 140 q 704 35 736 67 q 627 3 671 3 l 580 3 q 513 1 552 3 l 446 0 q 262 -12 338 -2 q 127 -25 174 -25 q 68 -3 91 -25 q 45 51 45 19 q 78 127 45 94 q 156 160 111 160 q 279 170 212 160 q 395 828 348 648 l 247 823 q 189 844 214 822 q 165 901 165 865 q 195 974 165 941 q 278 1009 225 1006 q 477 1013 332 1013 q 684 1000 566 1013 q 829 982 802 988 q 871 959 856 977 q 886 912 886 942 q 852 832 886 863 q 773 802 819 802 q 583 821 740 802 m 485 1105 q 431 1125 453 1105 q 408 1171 408 1145 q 451 1240 408 1205 q 579 1352 494 1274 q 722 1429 664 1429 q 776 1409 755 1429 q 797 1362 797 1388 q 752 1291 797 1322 q 649 1209 713 1270 q 559 1133 596 1160 q 485 1105 522 1105 z "},"Î":{"ha":759,"x_min":45,"x_max":895,"o":"m 583 821 q 520 489 553 688 l 473 184 l 564 186 q 660 185 622 186 q 717 162 697 184 q 736 111 736 140 q 704 35 736 67 q 627 3 671 3 l 580 3 q 513 1 552 3 l 446 0 q 262 -12 338 -2 q 127 -25 174 -25 q 68 -3 91 -25 q 45 51 45 19 q 78 127 45 94 q 156 160 111 160 q 279 170 212 160 q 395 828 348 648 l 247 823 q 189 844 214 822 q 165 901 165 865 q 195 974 165 941 q 278 1009 225 1006 q 477 1013 332 1013 q 684 1000 566 1013 q 829 982 802 988 q 871 959 856 977 q 886 912 886 942 q 852 832 886 863 q 773 802 819 802 q 583 821 740 802 m 607 1294 q 357 1120 413 1120 q 300 1141 323 1120 q 278 1190 278 1162 q 318 1254 278 1224 q 554 1451 404 1322 q 619 1476 586 1476 q 785 1364 685 1476 l 823 1322 q 887 1251 880 1261 q 895 1221 895 1240 q 863 1161 895 1187 q 791 1135 831 1135 q 727 1166 753 1135 q 607 1294 700 1198 z "},"Ï":{"ha":759,"x_min":45,"x_max":886,"o":"m 583 821 q 520 489 553 688 l 473 184 l 564 186 q 660 185 622 186 q 717 162 697 184 q 736 111 736 140 q 704 35 736 67 q 627 3 671 3 l 580 3 q 513 1 552 3 l 446 0 q 262 -12 338 -2 q 127 -25 174 -25 q 68 -3 91 -25 q 45 51 45 19 q 78 127 45 94 q 156 160 111 160 q 279 170 212 160 q 395 828 348 648 l 247 823 q 189 844 214 822 q 165 901 165 865 q 195 974 165 941 q 278 1009 225 1006 q 477 1013 332 1013 q 684 1000 566 1013 q 829 982 802 988 q 871 959 856 977 q 886 912 886 942 q 852 832 886 863 q 773 802 819 802 q 583 821 740 802 m 285 1183 q 334 1263 285 1235 q 419 1292 384 1292 q 535 1214 535 1292 q 480 1134 535 1160 q 397 1107 425 1107 q 285 1183 285 1107 m 585 1183 q 622 1257 585 1225 q 741 1289 658 1289 q 810 1265 778 1289 q 842 1209 842 1241 q 800 1137 842 1168 q 688 1107 758 1107 q 617 1130 649 1107 q 585 1183 585 1153 z "},"Ð":{"ha":1002,"x_min":1,"x_max":1014,"o":"m 176 -7 q 102 86 90 -3 l 150 380 l 118 380 q 1 454 1 380 q 146 564 1 564 l 161 564 q 179 562 170 564 l 239 945 q 287 1019 245 983 q 369 1055 328 1055 q 558 972 389 1055 q 591 957 587 958 q 902 753 789 880 q 1014 475 1014 627 q 859 107 1014 281 q 402 -66 703 -66 q 176 -7 257 -66 m 363 561 q 444 555 393 561 q 524 551 494 551 q 583 529 562 551 q 605 477 605 507 q 573 403 605 434 q 496 372 541 372 q 415 376 465 372 q 336 380 352 380 l 300 150 q 431 115 361 115 q 680 177 605 115 q 788 308 755 239 q 821 443 821 378 q 756 613 821 529 q 405 821 692 696 l 363 561 z "},"Ñ":{"ha":1129,"x_min":62,"x_max":1201,"o":"m 369 686 q 292 214 325 455 q 233 -8 269 38 q 153 -54 197 -54 q 84 -30 107 -54 q 62 27 62 -5 q 81 123 62 48 q 159 576 132 358 l 178 704 q 190 827 186 752 q 201 942 195 898 q 247 1019 207 986 q 332 1051 286 1051 q 430 965 382 1051 q 924 249 667 527 l 941 351 q 973 565 943 363 q 1005 812 1003 766 l 1010 918 q 1126 1043 1017 1043 q 1201 886 1201 1043 q 1164 596 1201 783 l 1094 167 q 1059 45 1086 118 q 951 -28 1031 -28 q 874 4 913 -28 q 696 209 836 37 q 369 686 557 380 m 882 1121 q 755 1142 795 1121 q 680 1215 715 1164 q 639 1244 662 1244 q 564 1194 602 1244 q 483 1146 530 1146 q 433 1161 454 1146 q 412 1200 412 1177 q 480 1305 412 1239 q 659 1372 549 1372 q 752 1354 724 1372 q 825 1278 780 1336 q 882 1249 848 1249 q 962 1319 926 1249 q 1043 1367 985 1367 q 1093 1351 1074 1367 q 1112 1312 1112 1336 q 1045 1200 1112 1280 q 882 1121 979 1121 z "},"Ò":{"ha":1109,"x_min":85,"x_max":1158,"o":"m 85 321 q 176 636 85 463 q 420 919 267 810 q 745 1028 574 1028 q 1158 696 1158 1028 q 969 194 1158 429 q 516 -41 780 -41 q 206 60 327 -41 q 85 321 85 162 m 281 354 q 355 202 281 262 q 545 143 430 143 q 837 316 711 143 q 963 671 963 489 q 907 804 963 764 q 716 843 852 843 q 505 764 606 843 q 342 563 403 686 q 281 354 281 441 m 728 1352 q 759 1412 728 1384 q 829 1440 789 1440 q 965 1341 883 1440 q 1046 1195 1046 1241 q 1016 1138 1046 1164 q 945 1113 985 1113 q 879 1147 900 1113 q 757 1303 812 1263 q 728 1352 728 1324 z "},"Ó":{"ha":1109,"x_min":85,"x_max":1158,"o":"m 85 321 q 176 636 85 463 q 420 919 267 810 q 745 1028 574 1028 q 1158 696 1158 1028 q 969 194 1158 429 q 516 -41 780 -41 q 206 60 327 -41 q 85 321 85 162 m 281 354 q 355 202 281 262 q 545 143 430 143 q 837 316 711 143 q 963 671 963 489 q 907 804 963 764 q 716 843 852 843 q 505 764 606 843 q 342 563 403 686 q 281 354 281 441 m 814 1110 q 760 1130 783 1110 q 738 1176 738 1149 q 781 1244 738 1210 q 909 1356 824 1279 q 1051 1434 994 1434 q 1105 1413 1084 1434 q 1126 1367 1126 1393 q 1082 1296 1126 1326 q 979 1214 1043 1274 q 888 1137 926 1164 q 814 1110 851 1110 z "},"Ô":{"ha":1109,"x_min":85,"x_max":1177,"o":"m 85 321 q 176 636 85 463 q 420 919 267 810 q 745 1028 574 1028 q 1158 696 1158 1028 q 969 194 1158 429 q 516 -41 780 -41 q 206 60 327 -41 q 85 321 85 162 m 281 354 q 355 202 281 262 q 545 143 430 143 q 837 316 711 143 q 963 671 963 489 q 907 804 963 764 q 716 843 852 843 q 505 764 606 843 q 342 563 403 686 q 281 354 281 441 m 889 1263 q 639 1090 695 1090 q 583 1111 605 1090 q 560 1160 560 1132 q 600 1223 560 1194 q 836 1421 686 1292 q 901 1446 868 1446 q 1067 1333 967 1446 l 1105 1292 q 1170 1220 1162 1231 q 1177 1190 1177 1209 q 1145 1131 1177 1157 q 1074 1104 1114 1104 q 1009 1136 1036 1104 q 889 1263 982 1168 z "},"Õ":{"ha":1109,"x_min":85,"x_max":1227,"o":"m 85 321 q 176 636 85 463 q 420 919 267 810 q 745 1028 574 1028 q 1158 696 1158 1028 q 969 194 1158 429 q 516 -41 780 -41 q 206 60 327 -41 q 85 321 85 162 m 281 354 q 355 202 281 262 q 545 143 430 143 q 837 316 711 143 q 963 671 963 489 q 907 804 963 764 q 716 843 852 843 q 505 764 606 843 q 342 563 403 686 q 281 354 281 441 m 997 1110 q 871 1132 911 1110 q 795 1204 831 1153 q 754 1234 777 1234 q 679 1183 717 1234 q 598 1135 645 1135 q 548 1151 570 1135 q 527 1190 527 1166 q 596 1295 527 1228 q 774 1361 665 1361 q 867 1343 839 1361 q 940 1267 895 1325 q 997 1238 963 1238 q 1077 1308 1042 1238 q 1158 1356 1101 1356 q 1208 1340 1189 1356 q 1227 1301 1227 1325 q 1161 1190 1227 1269 q 997 1110 1095 1110 z "},"Ö":{"ha":1109,"x_min":85,"x_max":1158,"o":"m 85 321 q 176 636 85 463 q 420 919 267 810 q 745 1028 574 1028 q 1158 696 1158 1028 q 969 194 1158 429 q 516 -41 780 -41 q 206 60 327 -41 q 85 321 85 162 m 281 354 q 355 202 281 262 q 545 143 430 143 q 837 316 711 143 q 963 671 963 489 q 907 804 963 764 q 716 843 852 843 q 505 764 606 843 q 342 563 403 686 q 281 354 281 441 m 542 1187 q 591 1267 542 1239 q 676 1296 641 1296 q 792 1218 792 1296 q 737 1138 792 1164 q 654 1111 682 1111 q 542 1187 542 1111 m 842 1187 q 879 1261 842 1229 q 998 1293 915 1293 q 1067 1269 1035 1293 q 1099 1213 1099 1245 q 1057 1141 1099 1172 q 945 1111 1015 1111 q 874 1134 906 1111 q 842 1187 842 1157 z "},"×":{"ha":848,"x_min":222,"x_max":814,"o":"m 627 435 q 743 271 743 334 q 715 204 743 237 q 643 172 688 172 q 559 222 595 172 q 498 301 505 297 q 388 190 420 229 q 306 151 355 151 q 246 172 271 151 q 222 222 222 192 q 238 275 222 251 q 307 347 255 300 q 370 412 346 382 q 257 514 293 490 q 223 572 223 537 q 257 641 223 610 q 332 672 291 672 q 505 551 392 672 q 614 632 538 580 q 700 688 690 684 q 729 692 710 692 q 789 669 764 692 q 814 616 814 647 q 743 519 814 566 q 627 435 704 494 z "},"Ø":{"ha":1109,"x_min":29,"x_max":1284,"o":"m 1166 832 q 1186 700 1186 775 q 997 195 1186 433 q 544 -43 808 -43 q 255 45 372 -43 q 108 -61 139 -61 q 53 -39 76 -61 q 29 14 29 -16 q 156 158 29 50 q 115 323 115 233 q 313 791 115 555 q 774 1028 511 1028 q 1072 957 970 1028 q 1205 1046 1177 1046 q 1262 1025 1240 1046 q 1284 977 1284 1004 q 1221 879 1284 939 l 1166 832 m 316 304 l 911 819 q 745 843 855 843 q 441 671 572 843 q 311 359 311 500 q 316 304 311 333 m 992 685 q 771 494 942 644 l 412 180 q 573 142 479 142 q 868 317 741 142 q 992 685 996 492 z "},"Ù":{"ha":1023,"x_min":113,"x_max":1099,"o":"m 376 819 l 356 701 q 337 603 347 648 l 327 546 q 319 505 322 521 q 305 363 305 422 q 504 136 305 136 q 728 295 627 136 q 897 889 828 454 q 941 973 905 938 q 1025 1008 977 1008 q 1099 938 1099 1008 q 1028 586 1099 891 q 813 116 958 281 q 475 -49 668 -49 q 113 332 113 -49 q 150 626 113 433 l 180 782 q 194 861 188 821 q 237 977 203 925 q 313 1028 270 1028 q 372 1007 347 1028 q 397 953 397 985 q 376 819 397 928 m 488 1348 q 519 1408 488 1380 q 589 1436 549 1436 q 725 1337 643 1436 q 806 1191 806 1237 q 776 1134 806 1160 q 705 1109 745 1109 q 639 1143 660 1109 q 517 1299 572 1259 q 488 1348 488 1320 z "},"Ú":{"ha":1023,"x_min":113,"x_max":1099,"o":"m 376 819 l 356 701 q 337 603 347 648 l 327 546 q 319 505 322 521 q 305 363 305 422 q 504 136 305 136 q 728 295 627 136 q 897 889 828 454 q 941 973 905 938 q 1025 1008 977 1008 q 1099 938 1099 1008 q 1028 586 1099 891 q 813 116 958 281 q 475 -49 668 -49 q 113 332 113 -49 q 150 626 113 433 l 180 782 q 194 861 188 821 q 237 977 203 925 q 313 1028 270 1028 q 372 1007 347 1028 q 397 953 397 985 q 376 819 397 928 m 671 1116 q 617 1135 640 1116 q 595 1181 595 1155 q 638 1250 595 1215 q 766 1362 681 1284 q 908 1439 850 1439 q 962 1419 941 1439 q 983 1372 983 1398 q 939 1301 983 1332 q 836 1219 900 1280 q 745 1143 783 1170 q 671 1116 708 1116 z "},"Û":{"ha":1023,"x_min":113,"x_max":1099,"o":"m 376 819 l 356 701 q 337 603 347 648 l 327 546 q 319 505 322 521 q 305 363 305 422 q 504 136 305 136 q 728 295 627 136 q 897 889 828 454 q 941 973 905 938 q 1025 1008 977 1008 q 1099 938 1099 1008 q 1028 586 1099 891 q 813 116 958 281 q 475 -49 668 -49 q 113 332 113 -49 q 150 626 113 433 l 180 782 q 194 861 188 821 q 237 977 203 925 q 313 1028 270 1028 q 372 1007 347 1028 q 397 953 397 985 q 376 819 397 928 m 758 1274 q 507 1100 564 1100 q 451 1121 473 1100 q 429 1170 429 1142 q 469 1234 429 1204 q 705 1431 555 1302 q 770 1456 736 1456 q 935 1343 836 1456 l 974 1302 q 1038 1230 1030 1241 q 1046 1200 1046 1219 q 1014 1141 1046 1167 q 942 1114 982 1114 q 877 1146 904 1114 q 758 1274 850 1178 z "},"Ü":{"ha":1023,"x_min":113,"x_max":1099,"o":"m 376 819 l 356 701 q 337 603 347 648 l 327 546 q 319 505 322 521 q 305 363 305 422 q 504 136 305 136 q 728 295 627 136 q 897 889 828 454 q 941 973 905 938 q 1025 1008 977 1008 q 1099 938 1099 1008 q 1028 586 1099 891 q 813 116 958 281 q 475 -49 668 -49 q 113 332 113 -49 q 150 626 113 433 l 180 782 q 194 861 188 821 q 237 977 203 925 q 313 1028 270 1028 q 372 1007 347 1028 q 397 953 397 985 q 376 819 397 928 m 425 1173 q 475 1253 425 1224 q 559 1281 524 1281 q 675 1203 675 1281 q 621 1123 675 1149 q 537 1096 566 1096 q 425 1173 425 1096 m 726 1172 q 762 1246 726 1214 q 882 1278 798 1278 q 950 1254 918 1278 q 983 1198 983 1230 q 941 1126 983 1157 q 829 1096 899 1096 q 758 1119 789 1096 q 726 1172 726 1142 z "},"Ý":{"ha":882,"x_min":138,"x_max":1006,"o":"m 418 323 q 243 680 337 481 l 143 891 q 138 924 138 906 q 171 1000 138 968 q 249 1032 205 1032 q 323 986 304 1032 l 448 707 q 541 515 517 551 q 823 971 694 747 q 921 1032 859 1032 q 982 1008 958 1032 q 1006 954 1006 983 q 947 838 1006 928 q 878 724 920 794 q 538 180 651 347 q 389 -17 425 14 q 315 -47 353 -47 q 256 -26 280 -47 q 232 28 232 -5 q 263 103 232 51 q 418 323 294 155 m 617 1173 q 563 1192 585 1173 q 541 1238 541 1212 q 584 1307 541 1272 q 711 1419 627 1341 q 854 1496 796 1496 q 908 1476 887 1496 q 929 1429 929 1455 q 884 1358 929 1389 q 781 1276 846 1337 q 691 1200 728 1227 q 617 1173 654 1173 z "},"Þ":{"ha":723,"x_min":48,"x_max":816,"o":"m 481 926 q 713 853 610 930 q 816 656 816 776 q 672 364 816 486 q 326 241 529 241 q 262 248 292 241 l 234 71 q 199 9 229 36 q 131 -17 170 -17 q 70 9 92 -17 q 55 71 48 35 l 84 260 q 141 528 98 349 q 197 796 178 695 l 210 884 q 333 1051 236 1051 q 402 970 402 1051 q 398 924 402 949 l 481 926 m 368 753 q 295 422 326 574 q 353 416 326 416 q 554 478 473 416 q 635 621 635 541 q 576 712 635 671 q 439 753 517 753 l 368 753 z "},"ß":{"ha":741,"x_min":48,"x_max":774,"o":"m 412 119 q 460 122 433 121 q 502 137 487 124 q 524 187 517 149 q 530 261 530 224 q 511 363 530 321 q 437 449 491 406 q 376 537 376 498 q 477 661 376 585 q 559 737 535 703 q 583 821 583 770 q 530 889 583 889 q 427 831 470 889 q 346 594 383 773 q 279 186 309 416 q 222 -50 256 8 q 129 -107 187 -107 q 71 -85 94 -107 q 48 -35 48 -64 l 52 -14 q 54 -4 52 -9 q 94 163 79 74 l 102 205 q 138 401 134 366 q 144 444 140 419 l 157 519 q 228 806 186 689 q 354 994 269 923 q 561 1065 439 1065 q 719 1001 663 1065 q 774 839 774 937 q 740 699 774 764 q 609 553 705 634 q 716 295 716 460 q 634 36 716 125 q 409 -53 551 -53 q 316 -42 340 -53 q 293 14 293 -31 q 317 89 293 59 q 380 119 340 119 l 412 119 z "},"à":{"ha":772,"x_min":32,"x_max":741,"o":"m 511 24 q 311 -37 378 -37 q 32 220 32 -37 q 181 571 32 433 q 511 708 330 708 q 660 669 578 708 q 741 581 741 630 q 720 526 741 550 q 681 369 696 472 q 665 214 665 266 q 669 172 665 184 l 689 106 q 705 41 705 53 q 674 -15 705 15 q 599 -45 644 -45 q 511 24 570 -45 m 535 533 q 496 546 515 546 q 309 461 395 546 q 223 243 223 376 q 328 123 223 123 q 488 179 414 123 q 535 533 495 435 m 337 1035 q 368 1095 337 1067 q 438 1123 398 1123 q 573 1023 492 1123 q 655 878 655 924 q 625 821 655 846 q 553 795 594 795 q 488 830 509 795 q 366 985 420 945 q 337 1035 337 1007 z "},"á":{"ha":772,"x_min":32,"x_max":821,"o":"m 511 24 q 311 -37 378 -37 q 32 220 32 -37 q 181 571 32 433 q 511 708 330 708 q 660 669 578 708 q 741 581 741 630 q 720 526 741 550 q 681 369 696 472 q 665 214 665 266 q 669 172 665 184 l 689 106 q 705 41 705 53 q 674 -15 705 15 q 599 -45 644 -45 q 511 24 570 -45 m 535 533 q 496 546 515 546 q 309 461 395 546 q 223 243 223 376 q 328 123 223 123 q 488 179 414 123 q 535 533 495 435 m 509 806 q 454 825 477 806 q 432 871 432 845 q 475 940 432 905 q 603 1052 518 975 q 745 1129 688 1129 q 800 1109 779 1129 q 821 1062 821 1088 q 776 991 821 1022 q 673 909 737 970 q 583 833 620 860 q 509 806 545 806 z "},"â":{"ha":772,"x_min":32,"x_max":855,"o":"m 511 24 q 311 -37 378 -37 q 32 220 32 -37 q 181 571 32 433 q 511 708 330 708 q 660 669 578 708 q 741 581 741 630 q 720 526 741 550 q 681 369 696 472 q 665 214 665 266 q 669 172 665 184 l 689 106 q 705 41 705 53 q 674 -15 705 15 q 599 -45 644 -45 q 511 24 570 -45 m 535 533 q 496 546 515 546 q 309 461 395 546 q 223 243 223 376 q 328 123 223 123 q 488 179 414 123 q 535 533 495 435 m 567 969 q 317 795 373 795 q 260 817 283 795 q 238 865 238 838 q 278 929 238 899 q 514 1126 364 998 q 579 1152 546 1152 q 745 1039 645 1152 l 783 998 q 847 926 840 937 q 855 896 855 915 q 823 836 855 863 q 751 810 791 810 q 687 842 713 810 q 567 969 660 873 z "},"ã":{"ha":772,"x_min":32,"x_max":896,"o":"m 511 24 q 311 -37 378 -37 q 32 220 32 -37 q 181 571 32 433 q 511 708 330 708 q 660 669 578 708 q 741 581 741 630 q 720 526 741 550 q 681 369 696 472 q 665 214 665 266 q 669 172 665 184 l 689 106 q 705 41 705 53 q 674 -15 705 15 q 599 -45 644 -45 q 511 24 570 -45 m 535 533 q 496 546 515 546 q 309 461 395 546 q 223 243 223 376 q 328 123 223 123 q 488 179 414 123 q 535 533 495 435 m 666 790 q 540 811 580 790 q 465 884 500 833 q 423 913 446 913 q 348 863 386 913 q 267 815 314 815 q 217 830 239 815 q 196 869 196 846 q 265 975 196 908 q 444 1041 334 1041 q 536 1023 508 1041 q 609 947 564 1005 q 666 918 632 918 q 746 988 711 918 q 827 1036 770 1036 q 877 1020 858 1036 q 896 981 896 1005 q 830 869 896 949 q 666 790 764 790 z "},"ä":{"ha":772,"x_min":32,"x_max":833,"o":"m 511 24 q 311 -37 378 -37 q 32 220 32 -37 q 181 571 32 433 q 511 708 330 708 q 660 669 578 708 q 741 581 741 630 q 720 526 741 550 q 681 369 696 472 q 665 214 665 266 q 669 172 665 184 l 689 106 q 705 41 705 53 q 674 -15 705 15 q 599 -45 644 -45 q 511 24 570 -45 m 535 533 q 496 546 515 546 q 309 461 395 546 q 223 243 223 376 q 328 123 223 123 q 488 179 414 123 q 535 533 495 435 m 275 865 q 325 945 275 917 q 410 974 374 974 q 526 896 526 974 q 471 815 526 842 q 387 789 416 789 q 275 865 275 789 m 576 865 q 612 939 576 907 q 732 971 648 971 q 801 947 768 971 q 833 891 833 923 q 791 819 833 850 q 679 789 749 789 q 608 812 640 789 q 576 865 576 835 z "},"å":{"ha":772,"x_min":32,"x_max":812,"o":"m 511 24 q 311 -37 378 -37 q 32 220 32 -37 q 181 571 32 433 q 511 708 330 708 q 660 669 578 708 q 741 581 741 630 q 720 526 741 550 q 681 369 696 472 q 665 214 665 266 q 669 172 665 184 l 689 106 q 705 41 705 53 q 674 -15 705 15 q 599 -45 644 -45 q 511 24 570 -45 m 535 533 q 496 546 515 546 q 309 461 395 546 q 223 243 223 376 q 328 123 223 123 q 488 179 414 123 q 535 533 495 435 m 501 804 q 353 850 412 804 q 294 959 294 896 q 379 1124 294 1057 q 602 1192 465 1192 q 753 1147 694 1192 q 812 1038 812 1102 q 732 871 812 937 q 501 804 651 804 m 452 983 q 483 953 452 968 q 553 939 514 939 q 632 962 608 939 q 655 1015 655 986 q 581 1055 655 1055 q 452 983 452 1055 z "},"æ":{"ha":1266,"x_min":75,"x_max":1280,"o":"m 547 16 q 383 -33 460 -33 q 157 49 239 -33 q 75 252 75 131 q 227 567 75 433 q 568 700 379 700 q 679 685 619 700 q 749 661 738 671 q 764 629 760 652 q 998 708 867 708 q 1195 666 1122 708 q 1267 544 1267 625 q 1213 421 1267 470 q 996 306 1159 372 l 753 204 q 926 134 804 134 q 1138 207 1071 134 q 1206 237 1166 237 q 1258 217 1236 237 q 1280 169 1280 197 q 1145 29 1280 89 q 900 -31 1010 -31 q 709 11 787 -31 q 624 -29 689 -29 q 547 16 562 -29 m 603 532 q 535 547 571 547 q 348 460 432 547 q 263 279 263 372 q 305 170 263 220 q 412 119 347 119 q 546 167 482 119 q 603 532 534 278 m 766 375 l 930 439 q 1088 519 1008 471 q 972 545 1048 545 q 766 375 847 545 z "},"ç":{"ha":713,"x_min":77,"x_max":758,"o":"m 515 -29 q 528 -89 528 -60 q 473 -234 528 -166 q 305 -301 418 -301 q 180 -271 237 -301 q 122 -193 122 -240 q 206 -121 122 -121 q 264 -136 222 -121 q 320 -153 305 -153 q 366 -112 366 -153 q 292 -46 366 -75 q 134 47 191 -21 q 77 213 77 115 q 215 544 77 367 q 500 721 353 721 q 665 680 573 721 q 758 585 758 639 q 729 517 758 550 q 656 485 701 485 q 590 517 627 485 q 473 549 555 549 q 337 435 419 549 q 256 244 256 322 q 298 151 256 184 q 414 117 340 117 q 530 151 460 117 q 621 187 602 187 q 675 164 654 187 q 696 112 696 141 q 515 -29 696 36 z "},"è":{"ha":777,"x_min":52,"x_max":755,"o":"m 238 204 q 412 134 296 134 q 571 171 501 134 q 667 204 633 204 q 727 153 727 204 q 620 21 727 73 q 385 -31 513 -31 q 140 40 229 -31 q 52 229 52 110 q 170 551 52 395 q 484 708 288 708 q 683 666 612 708 q 755 545 755 623 q 698 421 755 471 q 482 306 642 370 l 238 204 m 250 376 l 414 441 q 572 519 504 480 q 459 545 532 545 q 250 376 334 545 m 340 1038 q 370 1098 340 1070 q 441 1126 401 1126 q 576 1027 494 1126 q 658 881 658 927 q 627 824 658 850 q 556 799 597 799 q 490 833 511 799 q 368 989 423 949 q 340 1038 340 1010 z "},"é":{"ha":777,"x_min":52,"x_max":775,"o":"m 238 204 q 412 134 296 134 q 571 171 501 134 q 667 204 633 204 q 727 153 727 204 q 620 21 727 73 q 385 -31 513 -31 q 140 40 229 -31 q 52 229 52 110 q 170 551 52 395 q 484 708 288 708 q 683 666 612 708 q 755 545 755 623 q 698 421 755 471 q 482 306 642 370 l 238 204 m 250 376 l 414 441 q 572 519 504 480 q 459 545 532 545 q 250 376 334 545 m 463 806 q 409 825 431 806 q 387 871 387 845 q 430 940 387 905 q 557 1052 473 975 q 700 1129 642 1129 q 754 1109 733 1129 q 775 1062 775 1088 q 730 991 775 1022 q 627 909 692 970 q 537 833 574 860 q 463 806 500 806 z "},"ê":{"ha":777,"x_min":52,"x_max":853,"o":"m 238 204 q 412 134 296 134 q 571 171 501 134 q 667 204 633 204 q 727 153 727 204 q 620 21 727 73 q 385 -31 513 -31 q 140 40 229 -31 q 52 229 52 110 q 170 551 52 395 q 484 708 288 708 q 683 666 612 708 q 755 545 755 623 q 698 421 755 471 q 482 306 642 370 l 238 204 m 250 376 l 414 441 q 572 519 504 480 q 459 545 532 545 q 250 376 334 545 m 565 964 q 315 790 371 790 q 258 811 281 790 q 236 860 236 832 q 276 924 236 894 q 512 1121 362 992 q 577 1146 544 1146 q 743 1034 643 1146 l 781 992 q 845 920 838 931 q 853 890 853 909 q 821 831 853 857 q 749 804 789 804 q 685 836 711 804 q 565 964 658 868 z "},"ë":{"ha":777,"x_min":52,"x_max":852,"o":"m 238 204 q 412 134 296 134 q 571 171 501 134 q 667 204 633 204 q 727 153 727 204 q 620 21 727 73 q 385 -31 513 -31 q 140 40 229 -31 q 52 229 52 110 q 170 551 52 395 q 484 708 288 708 q 683 666 612 708 q 755 545 755 623 q 698 421 755 471 q 482 306 642 370 l 238 204 m 250 376 l 414 441 q 572 519 504 480 q 459 545 532 545 q 250 376 334 545 m 294 930 q 344 1010 294 982 q 429 1039 393 1039 q 545 961 545 1039 q 490 881 545 907 q 406 854 435 854 q 294 930 294 854 m 595 930 q 631 1004 595 972 q 751 1036 667 1036 q 820 1012 787 1036 q 852 956 852 988 q 810 884 852 915 q 698 854 768 854 q 627 877 659 854 q 595 930 595 900 z "},"ì":{"ha":389,"x_min":106,"x_max":467,"o":"m 188 -21 q 128 0 151 -21 q 106 55 106 22 l 125 193 q 174 468 143 333 q 204 621 197 568 q 241 685 210 658 q 313 711 273 711 q 370 690 348 711 q 392 635 392 669 q 362 479 392 608 q 317 229 332 349 q 294 67 302 108 q 256 3 286 26 q 188 -21 226 -21 m 149 1038 q 179 1098 149 1070 q 250 1126 210 1126 q 385 1027 303 1126 q 467 881 467 927 q 436 824 467 850 q 365 799 406 799 q 299 833 320 799 q 177 989 232 949 q 149 1038 149 1010 z "},"í":{"ha":389,"x_min":106,"x_max":562,"o":"m 188 -21 q 128 0 151 -21 q 106 55 106 22 l 125 193 q 174 468 143 333 q 204 621 197 568 q 241 685 210 658 q 313 711 273 711 q 370 690 348 711 q 392 635 392 669 q 362 479 392 608 q 317 229 332 349 q 294 67 302 108 q 256 3 286 26 q 188 -21 226 -21 m 250 806 q 195 825 218 806 q 173 871 173 845 q 216 940 173 905 q 344 1052 259 975 q 486 1129 429 1129 q 541 1109 519 1129 q 562 1062 562 1088 q 517 991 562 1022 q 414 909 478 970 q 323 833 361 860 q 250 806 286 806 z "},"î":{"ha":389,"x_min":18,"x_max":635,"o":"m 188 -21 q 128 0 151 -21 q 106 55 106 22 l 125 193 q 174 468 143 333 q 204 621 197 568 q 241 685 210 658 q 313 711 273 711 q 370 690 348 711 q 392 635 392 669 q 362 479 392 608 q 317 229 332 349 q 294 67 302 108 q 256 3 286 26 q 188 -21 226 -21 m 347 964 q 96 790 153 790 q 40 811 62 790 q 18 860 18 832 q 58 924 18 894 q 294 1121 144 992 q 359 1146 326 1146 q 524 1034 425 1146 l 563 992 q 627 920 619 931 q 635 890 635 909 q 603 831 635 857 q 531 804 571 804 q 466 836 493 804 q 347 964 439 868 z "},"ï":{"ha":389,"x_min":51,"x_max":608,"o":"m 188 -21 q 128 0 151 -21 q 106 55 106 22 l 125 193 q 174 468 143 333 q 204 621 197 568 q 241 685 210 658 q 313 711 273 711 q 370 690 348 711 q 392 635 392 669 q 362 479 392 608 q 317 229 332 349 q 294 67 302 108 q 256 3 286 26 q 188 -21 226 -21 m 51 865 q 100 945 51 917 q 185 974 150 974 q 301 896 301 974 q 246 815 301 842 q 163 789 191 789 q 51 865 51 789 m 351 865 q 388 939 351 907 q 507 971 424 971 q 576 947 544 971 q 608 891 608 923 q 566 819 608 850 q 454 789 524 789 q 383 812 415 789 q 351 865 351 835 z "},"ð":{"ha":707,"x_min":81,"x_max":753,"o":"m 345 854 q 279 949 279 909 q 310 1013 279 982 q 382 1043 341 1043 q 512 936 429 1043 q 676 989 631 989 q 732 968 711 989 q 753 918 753 948 q 705 842 753 866 l 663 819 q 646 812 657 816 q 615 800 634 808 l 602 796 q 709 441 709 595 q 607 125 709 277 q 319 -28 505 -28 q 148 45 215 -28 q 81 212 81 118 q 193 472 81 347 q 475 639 304 597 q 443 718 455 697 q 279 647 311 647 q 222 670 244 647 q 201 723 201 692 q 221 777 201 747 q 345 854 241 806 m 519 486 q 484 477 505 483 q 435 463 464 471 q 303 369 348 433 q 259 237 259 306 q 284 171 259 203 q 345 139 309 139 q 486 234 441 139 q 531 396 531 328 q 519 486 531 424 z "},"ñ":{"ha":727,"x_min":59,"x_max":911,"o":"m 348 627 q 572 726 463 726 q 743 530 743 726 q 731 404 743 476 l 723 355 q 706 175 706 254 q 701 45 706 83 q 666 -21 696 7 q 594 -49 636 -49 q 513 29 513 -49 q 524 281 513 201 q 557 460 534 361 q 567 513 567 498 q 544 547 567 547 q 407 471 479 547 q 297 315 334 395 q 252 113 260 235 q 241 31 250 54 q 206 -13 233 8 q 140 -33 178 -33 q 82 -13 104 -33 q 59 39 59 7 l 64 113 q 108 350 70 187 q 150 558 144 500 q 161 656 155 622 q 198 715 167 690 q 270 741 229 741 q 348 635 358 741 l 348 627 m 681 803 q 555 824 595 803 q 479 897 515 846 q 438 926 461 926 q 363 876 401 926 q 282 828 329 828 q 232 843 254 828 q 211 882 211 859 q 280 987 211 921 q 458 1054 349 1054 q 551 1036 523 1054 q 624 960 579 1018 q 681 930 647 930 q 761 1001 726 930 q 842 1048 785 1048 q 892 1033 873 1048 q 911 994 911 1018 q 845 882 911 962 q 681 803 779 803 z "},"ò":{"ha":730,"x_min":64,"x_max":742,"o":"m 64 239 q 188 555 64 408 q 504 703 311 703 q 679 627 615 703 q 742 427 742 551 q 626 104 742 249 q 336 -40 509 -40 q 140 39 215 -40 q 64 239 64 118 m 254 266 q 282 174 254 208 q 363 139 311 139 q 504 213 452 139 q 556 404 556 288 q 465 524 556 524 q 315 437 375 524 q 254 266 254 351 m 389 1038 q 420 1098 389 1070 q 490 1126 450 1126 q 626 1027 544 1126 q 707 881 707 927 q 677 824 707 850 q 606 799 646 799 q 540 833 561 799 q 418 989 473 949 q 389 1038 389 1010 z "},"ó":{"ha":730,"x_min":64,"x_max":762,"o":"m 64 239 q 188 555 64 408 q 504 703 311 703 q 679 627 615 703 q 742 427 742 551 q 626 104 742 249 q 336 -40 509 -40 q 140 39 215 -40 q 64 239 64 118 m 254 266 q 282 174 254 208 q 363 139 311 139 q 504 213 452 139 q 556 404 556 288 q 465 524 556 524 q 315 437 375 524 q 254 266 254 351 m 450 806 q 396 825 418 806 q 374 871 374 845 q 417 940 374 905 q 545 1052 460 975 q 687 1129 629 1129 q 741 1109 720 1129 q 762 1062 762 1088 q 718 991 762 1022 q 614 909 679 970 q 524 833 562 860 q 450 806 487 806 z "},"ô":{"ha":730,"x_min":64,"x_max":833,"o":"m 64 239 q 188 555 64 408 q 504 703 311 703 q 679 627 615 703 q 742 427 742 551 q 626 104 742 249 q 336 -40 509 -40 q 140 39 215 -40 q 64 239 64 118 m 254 266 q 282 174 254 208 q 363 139 311 139 q 504 213 452 139 q 556 404 556 288 q 465 524 556 524 q 315 437 375 524 q 254 266 254 351 m 545 964 q 295 790 351 790 q 239 811 261 790 q 216 860 216 832 q 256 924 216 894 q 492 1121 342 992 q 557 1146 524 1146 q 723 1034 623 1146 l 762 992 q 826 920 818 931 q 833 890 833 909 q 802 831 833 857 q 730 804 770 804 q 665 836 692 804 q 545 964 638 868 z "},"õ":{"ha":730,"x_min":64,"x_max":913,"o":"m 64 239 q 188 555 64 408 q 504 703 311 703 q 679 627 615 703 q 742 427 742 551 q 626 104 742 249 q 336 -40 509 -40 q 140 39 215 -40 q 64 239 64 118 m 254 266 q 282 174 254 208 q 363 139 311 139 q 504 213 452 139 q 556 404 556 288 q 465 524 556 524 q 315 437 375 524 q 254 266 254 351 m 683 803 q 557 824 597 803 q 481 897 517 846 q 440 926 463 926 q 365 876 403 926 q 284 828 331 828 q 234 843 256 828 q 213 882 213 859 q 282 987 213 921 q 460 1054 351 1054 q 553 1036 525 1054 q 626 960 581 1018 q 683 930 649 930 q 763 1001 728 930 q 844 1048 787 1048 q 894 1033 875 1048 q 913 994 913 1018 q 847 882 913 962 q 683 803 781 803 z "},"ö":{"ha":730,"x_min":64,"x_max":823,"o":"m 64 239 q 188 555 64 408 q 504 703 311 703 q 679 627 615 703 q 742 427 742 551 q 626 104 742 249 q 336 -40 509 -40 q 140 39 215 -40 q 64 239 64 118 m 254 266 q 282 174 254 208 q 363 139 311 139 q 504 213 452 139 q 556 404 556 288 q 465 524 556 524 q 315 437 375 524 q 254 266 254 351 m 265 865 q 315 945 265 917 q 399 974 364 974 q 515 896 515 974 q 460 815 515 842 q 377 789 406 789 q 265 865 265 789 m 566 865 q 602 939 566 907 q 722 971 638 971 q 790 947 758 971 q 823 891 823 923 q 781 819 823 850 q 669 789 739 789 q 597 812 629 789 q 566 865 566 835 z "},"÷":{"ha":848,"x_min":166,"x_max":808,"o":"m 420 677 q 449 745 420 717 q 522 774 479 774 q 577 754 555 774 q 599 705 599 734 q 568 640 599 668 q 494 611 538 611 q 441 630 462 611 q 420 677 420 649 m 661 359 q 473 355 597 359 q 286 351 349 351 q 201 371 235 351 q 166 423 166 390 q 196 491 166 469 q 311 513 227 513 q 429 517 350 513 q 550 521 511 521 l 600 518 l 684 521 q 808 452 808 521 q 778 384 808 413 q 710 354 748 354 q 672 359 700 354 q 661 359 665 359 m 354 195 q 384 260 354 231 q 456 289 414 289 q 511 268 490 289 q 532 219 532 248 q 501 154 532 182 q 431 126 471 126 q 376 146 397 126 q 354 195 354 165 z "},"ø":{"ha":741,"x_min":18,"x_max":823,"o":"m 740 534 q 753 428 753 485 q 639 104 753 249 q 349 -40 524 -40 q 173 22 243 -40 q 72 -47 100 -47 q 33 -32 48 -47 q 18 5 18 -16 q 39 52 18 28 q 104 115 60 76 q 79 243 79 173 q 202 559 79 416 q 517 703 324 703 q 682 639 620 703 l 696 654 q 716 673 705 662 q 768 700 742 700 q 807 685 791 700 q 823 648 823 669 q 740 534 823 617 m 541 503 q 475 524 516 524 q 334 445 393 524 q 269 260 275 366 l 541 503 m 570 379 l 511 325 q 319 155 500 315 q 377 139 346 139 q 503 192 450 139 q 566 345 555 245 l 570 379 z "},"ù":{"ha":722,"x_min":83,"x_max":775,"o":"m 724 392 l 677 76 q 672 33 674 52 q 635 -29 667 -4 q 564 -54 604 -54 q 489 -3 507 -54 q 306 -35 399 -35 q 168 -5 220 -35 q 99 64 115 25 q 83 174 83 104 q 118 512 83 363 q 182 692 153 661 q 260 724 211 724 q 319 703 296 724 q 342 650 342 682 q 317 542 342 625 q 269 214 269 390 q 272 160 269 184 q 334 144 298 144 q 501 165 412 144 l 552 475 q 586 633 570 585 q 627 700 601 681 q 693 720 653 720 q 752 699 730 720 q 775 647 775 679 q 749 509 775 635 l 724 391 l 724 392 m 259 1044 q 290 1104 259 1076 q 360 1132 320 1132 q 495 1032 414 1132 q 577 886 577 932 q 547 830 577 855 q 475 804 516 804 q 410 839 431 804 q 288 994 342 954 q 259 1044 259 1016 z "},"ú":{"ha":722,"x_min":83,"x_max":803,"o":"m 724 392 l 677 76 q 672 33 674 52 q 635 -29 667 -4 q 564 -54 604 -54 q 489 -3 507 -54 q 306 -35 399 -35 q 168 -5 220 -35 q 99 64 115 25 q 83 174 83 104 q 118 512 83 363 q 182 692 153 661 q 260 724 211 724 q 319 703 296 724 q 342 650 342 682 q 317 542 342 625 q 269 214 269 390 q 272 160 269 184 q 334 144 298 144 q 501 165 412 144 l 552 475 q 586 633 570 585 q 627 700 601 681 q 693 720 653 720 q 752 699 730 720 q 775 647 775 679 q 749 509 775 635 l 724 391 l 724 392 m 491 806 q 437 825 459 806 q 414 871 414 845 q 457 940 414 905 q 585 1052 500 975 q 728 1129 670 1129 q 782 1109 761 1129 q 803 1062 803 1088 q 758 991 803 1022 q 655 909 720 970 q 565 833 602 860 q 491 806 528 806 z "},"û":{"ha":722,"x_min":83,"x_max":828,"o":"m 724 392 l 677 76 q 672 33 674 52 q 635 -29 667 -4 q 564 -54 604 -54 q 489 -3 507 -54 q 306 -35 399 -35 q 168 -5 220 -35 q 99 64 115 25 q 83 174 83 104 q 118 512 83 363 q 182 692 153 661 q 260 724 211 724 q 319 703 296 724 q 342 650 342 682 q 317 542 342 625 q 269 214 269 390 q 272 160 269 184 q 334 144 298 144 q 501 165 412 144 l 552 475 q 586 633 570 585 q 627 700 601 681 q 693 720 653 720 q 752 699 730 720 q 775 647 775 679 q 749 509 775 635 l 724 391 l 724 392 m 540 964 q 290 790 346 790 q 233 811 256 790 q 211 860 211 832 q 251 924 211 894 q 487 1121 337 992 q 552 1146 519 1146 q 718 1034 618 1146 l 756 992 q 820 920 812 931 q 828 890 828 909 q 796 831 828 857 q 724 804 764 804 q 660 836 686 804 q 540 964 633 868 z "},"ü":{"ha":722,"x_min":83,"x_max":799,"o":"m 724 392 l 677 76 q 672 33 674 52 q 635 -29 667 -4 q 564 -54 604 -54 q 489 -3 507 -54 q 306 -35 399 -35 q 168 -5 220 -35 q 99 64 115 25 q 83 174 83 104 q 118 512 83 363 q 182 692 153 661 q 260 724 211 724 q 319 703 296 724 q 342 650 342 682 q 317 542 342 625 q 269 214 269 390 q 272 160 269 184 q 334 144 298 144 q 501 165 412 144 l 552 475 q 586 633 570 585 q 627 700 601 681 q 693 720 653 720 q 752 699 730 720 q 775 647 775 679 q 749 509 775 635 l 724 391 l 724 392 m 241 865 q 291 945 241 917 q 376 974 340 974 q 492 896 492 974 q 437 815 492 842 q 353 789 382 789 q 241 865 241 789 m 542 865 q 578 939 542 907 q 698 971 614 971 q 767 947 734 971 q 799 891 799 923 q 757 819 799 850 q 645 789 715 789 q 574 812 606 789 q 542 865 542 835 z "},"ý":{"ha":768,"x_min":96,"x_max":850,"o":"m 299 69 q 133 503 267 175 q 97 600 97 571 q 132 670 97 637 q 209 704 168 704 q 260 687 239 704 q 334 555 281 671 q 437 285 386 440 q 671 649 623 592 q 766 705 720 705 q 826 683 802 705 q 850 630 850 661 q 832 575 850 605 q 522 89 814 545 q 315 -256 382 -121 q 245 -372 267 -350 q 181 -393 222 -393 q 120 -371 144 -393 q 96 -318 96 -349 q 299 69 96 -259 m 441 806 q 387 825 409 806 q 364 871 364 845 q 407 940 364 905 q 535 1052 450 975 q 677 1129 620 1129 q 732 1109 711 1129 q 753 1062 753 1088 q 708 991 753 1022 q 605 909 669 970 q 515 833 552 860 q 441 806 477 806 z "},"þ":{"ha":743,"x_min":20,"x_max":769,"o":"m 254 -24 l 209 -302 q 172 -368 203 -341 q 101 -395 141 -395 q 43 -373 65 -395 q 20 -319 20 -351 q 68 -18 20 -300 q 137 478 117 264 q 206 939 170 865 q 311 1013 243 1013 q 370 987 349 1013 q 385 925 392 962 l 342 657 q 540 713 446 713 q 769 437 769 713 q 657 92 769 221 q 373 -37 545 -37 q 254 -24 309 -37 m 323 449 q 286 167 311 338 q 402 146 342 146 q 541 227 498 146 q 583 428 583 308 q 511 529 583 529 q 323 449 425 529 z "},"ÿ":{"ha":768,"x_min":96,"x_max":850,"o":"m 299 69 q 133 503 267 175 q 97 600 97 571 q 132 670 97 637 q 209 704 168 704 q 260 687 239 704 q 334 555 281 671 q 437 285 386 440 q 671 649 623 592 q 766 705 720 705 q 826 683 802 705 q 850 630 850 661 q 832 575 850 605 q 522 89 814 545 q 315 -256 382 -121 q 245 -372 267 -350 q 181 -393 222 -393 q 120 -371 144 -393 q 96 -318 96 -349 q 299 69 96 -259 m 247 865 q 296 945 247 917 q 381 974 346 974 q 497 896 497 974 q 442 815 497 842 q 359 789 387 789 q 247 865 247 789 m 547 865 q 584 939 547 907 q 703 971 620 971 q 772 947 740 971 q 804 891 804 923 q 762 819 804 850 q 650 789 720 789 q 579 812 611 789 q 547 865 547 835 z "},"Ā":{"ha":1016,"x_min":68,"x_max":1124,"o":"m 722 290 q 555 275 670 283 q 388 258 441 269 q 233 20 265 55 q 153 -16 201 -16 q 93 7 117 -16 q 68 61 68 29 q 208 310 68 97 q 203 328 203 320 q 279 400 203 378 q 798 1003 734 1003 q 884 913 871 1003 q 901 522 884 787 q 925 228 918 258 q 943 158 932 198 q 954 84 954 111 q 919 11 954 43 q 841 -21 884 -21 q 722 290 756 -21 m 698 675 q 513 428 608 551 q 612 439 548 435 q 706 446 686 443 q 698 675 706 535 m 975 1084 l 791 1084 q 733 1085 766 1084 l 677 1086 q 598 1091 615 1088 q 563 1113 581 1095 q 545 1154 545 1131 q 705 1244 545 1244 q 783 1242 730 1244 l 830 1240 l 947 1240 l 995 1242 q 1124 1176 1124 1245 q 975 1084 1124 1084 z "},"ā":{"ha":772,"x_min":32,"x_max":867,"o":"m 511 24 q 311 -37 378 -37 q 32 220 32 -37 q 181 571 32 433 q 511 708 330 708 q 660 669 578 708 q 741 581 741 630 q 720 526 741 550 q 681 369 696 472 q 665 214 665 266 q 669 172 665 184 l 689 106 q 705 41 705 53 q 674 -15 705 15 q 599 -45 644 -45 q 511 24 570 -45 m 535 533 q 496 546 515 546 q 309 461 395 546 q 223 243 223 376 q 328 123 223 123 q 488 179 414 123 q 535 533 495 435 m 718 778 l 534 778 q 476 779 509 778 l 420 781 q 341 785 358 782 q 306 807 324 789 q 288 848 288 825 q 448 939 288 939 q 526 936 473 939 l 573 935 l 690 935 l 738 936 q 867 870 867 939 q 718 778 867 778 z "},"Ă":{"ha":1016,"x_min":68,"x_max":1138,"o":"m 722 290 q 555 275 670 283 q 388 258 441 269 q 233 20 265 55 q 153 -16 201 -16 q 93 7 117 -16 q 68 61 68 29 q 208 310 68 97 q 203 328 203 320 q 279 400 203 378 q 798 1003 734 1003 q 884 913 871 1003 q 901 522 884 787 q 925 228 918 258 q 943 158 932 198 q 954 84 954 111 q 919 11 954 43 q 841 -21 884 -21 q 722 290 756 -21 m 698 675 q 513 428 608 551 q 612 439 548 435 q 706 446 686 443 q 698 675 706 535 m 751 1106 q 580 1161 649 1106 q 511 1289 511 1216 q 602 1383 511 1383 q 651 1368 632 1383 q 670 1328 670 1352 q 674 1283 670 1295 q 704 1254 678 1272 q 770 1235 730 1235 q 985 1310 949 1235 q 1069 1363 1012 1363 q 1138 1305 1138 1363 q 1036 1168 1138 1231 q 751 1106 933 1106 z "},"ă":{"ha":772,"x_min":32,"x_max":888,"o":"m 511 24 q 311 -37 378 -37 q 32 220 32 -37 q 181 571 32 433 q 511 708 330 708 q 660 669 578 708 q 741 581 741 630 q 720 526 741 550 q 681 369 696 472 q 665 214 665 266 q 669 172 665 184 l 689 106 q 705 41 705 53 q 674 -15 705 15 q 599 -45 644 -45 q 511 24 570 -45 m 535 533 q 496 546 515 546 q 309 461 395 546 q 223 243 223 376 q 328 123 223 123 q 488 179 414 123 q 535 533 495 435 m 501 800 q 330 855 399 800 q 261 983 261 910 q 351 1078 261 1078 q 401 1062 382 1078 q 420 1022 420 1046 q 424 978 420 989 q 454 948 428 966 q 520 929 480 929 q 734 1004 699 929 q 819 1057 762 1057 q 888 999 888 1057 q 785 863 888 925 q 501 800 683 800 z "},"Ą":{"ha":1016,"x_min":68,"x_max":1034,"o":"m 722 290 q 555 275 670 283 q 388 258 441 269 q 233 20 265 55 q 153 -16 201 -16 q 93 7 117 -16 q 68 61 68 29 q 208 310 68 97 q 203 328 203 320 q 279 400 203 378 q 798 1003 734 1003 q 884 913 871 1003 q 901 522 884 787 q 925 228 918 258 q 943 158 932 198 q 954 84 954 111 q 919 11 954 43 q 841 -21 884 -21 q 722 290 756 -21 m 698 675 q 513 428 608 551 q 612 439 548 435 q 706 446 686 443 q 698 675 706 535 m 623 -139 q 696 37 623 -42 q 834 115 770 115 q 881 98 863 115 q 900 58 900 80 q 838 -14 900 11 q 792 -60 812 -26 q 772 -125 772 -94 q 788 -176 772 -155 q 831 -196 804 -196 q 927 -176 880 -196 q 968 -168 948 -168 q 1016 -186 998 -168 q 1034 -227 1034 -203 q 952 -302 1034 -275 q 798 -330 870 -330 q 674 -281 726 -330 q 623 -139 623 -232 z "},"ą":{"ha":772,"x_min":32,"x_max":886,"o":"m 511 24 q 311 -37 378 -37 q 32 220 32 -37 q 181 571 32 433 q 511 708 330 708 q 660 669 578 708 q 741 581 741 630 q 720 526 741 550 q 681 369 696 472 q 665 214 665 266 q 669 172 665 184 l 689 106 q 705 41 705 53 q 674 -15 705 15 q 599 -45 644 -45 q 511 24 570 -45 m 535 533 q 496 546 515 546 q 309 461 395 546 q 223 243 223 376 q 328 123 223 123 q 488 179 414 123 q 535 533 495 435 m 474 -139 q 548 37 474 -42 q 686 115 622 115 q 733 98 714 115 q 751 58 751 80 q 690 -14 751 11 q 643 -60 663 -26 q 623 -125 623 -94 q 639 -176 623 -155 q 683 -196 655 -196 q 779 -176 731 -196 q 819 -168 800 -168 q 867 -186 849 -168 q 886 -227 886 -203 q 804 -302 886 -275 q 650 -330 722 -330 q 526 -281 577 -330 q 474 -139 474 -232 z "},"Ć":{"ha":859,"x_min":64,"x_max":987,"o":"m 814 1004 q 890 1034 850 1034 q 964 933 964 1034 q 932 767 964 812 q 844 722 899 722 q 764 786 782 722 q 745 822 755 816 q 690 828 734 828 q 422 642 587 828 q 257 316 257 455 q 297 212 257 256 q 399 168 336 168 q 505 187 456 168 q 655 269 553 206 q 740 304 713 304 q 800 281 777 304 q 823 223 823 258 q 798 162 823 189 q 692 85 774 135 q 530 9 611 35 q 370 -17 449 -17 q 148 74 232 -17 q 64 287 64 164 q 292 759 64 506 q 719 1013 519 1013 q 814 1004 780 1013 m 675 1112 q 621 1131 644 1112 q 599 1177 599 1151 q 642 1246 599 1211 q 770 1358 685 1280 q 912 1435 854 1435 q 966 1415 945 1435 q 987 1368 987 1394 q 943 1297 987 1328 q 840 1215 904 1276 q 749 1139 787 1166 q 675 1112 712 1112 z "},"ć":{"ha":713,"x_min":45,"x_max":785,"o":"m 45 222 q 183 549 45 378 q 469 721 321 721 q 634 680 544 721 q 725 585 725 639 q 695 519 725 549 q 624 489 665 489 q 559 519 593 489 q 441 551 523 551 q 306 439 387 551 q 224 253 224 328 q 266 162 224 197 q 382 127 307 127 q 499 163 429 127 q 589 197 572 197 q 644 175 623 197 q 665 122 665 152 q 545 10 665 62 q 356 -43 425 -43 q 131 31 216 -43 q 45 222 45 104 m 473 806 q 418 825 441 806 q 396 871 396 845 q 439 940 396 905 q 567 1052 482 975 q 709 1129 652 1129 q 764 1109 743 1129 q 785 1062 785 1088 q 740 991 785 1022 q 637 909 701 970 q 547 833 584 860 q 473 806 509 806 z "},"Ĉ":{"ha":859,"x_min":64,"x_max":1057,"o":"m 814 1004 q 890 1034 850 1034 q 964 933 964 1034 q 932 767 964 812 q 844 722 899 722 q 764 786 782 722 q 745 822 755 816 q 690 828 734 828 q 422 642 587 828 q 257 316 257 455 q 297 212 257 256 q 399 168 336 168 q 505 187 456 168 q 655 269 553 206 q 740 304 713 304 q 800 281 777 304 q 823 223 823 258 q 798 162 823 189 q 692 85 774 135 q 530 9 611 35 q 370 -17 449 -17 q 148 74 232 -17 q 64 287 64 164 q 292 759 64 506 q 719 1013 519 1013 q 814 1004 780 1013 m 768 1303 q 518 1129 574 1129 q 462 1150 484 1129 q 439 1199 439 1171 q 479 1263 439 1233 q 715 1460 566 1331 q 781 1485 747 1485 q 946 1373 846 1485 l 985 1331 q 1049 1259 1041 1270 q 1057 1230 1057 1249 q 1025 1170 1057 1196 q 953 1143 993 1143 q 888 1175 915 1143 q 768 1303 861 1207 z "},"ĉ":{"ha":713,"x_min":45,"x_max":855,"o":"m 45 222 q 183 549 45 378 q 469 721 321 721 q 634 680 544 721 q 725 585 725 639 q 695 519 725 549 q 624 489 665 489 q 559 519 593 489 q 441 551 523 551 q 306 439 387 551 q 224 253 224 328 q 266 162 224 197 q 382 127 307 127 q 499 163 429 127 q 589 197 572 197 q 644 175 623 197 q 665 122 665 152 q 545 10 665 62 q 356 -43 425 -43 q 131 31 216 -43 q 45 222 45 104 m 567 964 q 317 790 373 790 q 260 811 283 790 q 238 860 238 832 q 278 924 238 894 q 514 1121 364 992 q 579 1146 546 1146 q 745 1034 645 1146 l 783 992 q 847 920 840 931 q 855 890 855 909 q 823 831 855 857 q 751 804 791 804 q 687 836 713 804 q 567 964 660 868 z "},"Ċ":{"ha":859,"x_min":64,"x_max":964,"o":"m 814 1004 q 890 1034 850 1034 q 964 933 964 1034 q 932 767 964 812 q 844 722 899 722 q 764 786 782 722 q 745 822 755 816 q 690 828 734 828 q 422 642 587 828 q 257 316 257 455 q 297 212 257 256 q 399 168 336 168 q 505 187 456 168 q 655 269 553 206 q 740 304 713 304 q 800 281 777 304 q 823 223 823 258 q 798 162 823 189 q 692 85 774 135 q 530 9 611 35 q 370 -17 449 -17 q 148 74 232 -17 q 64 287 64 164 q 292 759 64 506 q 719 1013 519 1013 q 814 1004 780 1013 m 687 1181 q 725 1254 687 1223 q 803 1285 763 1285 q 868 1253 831 1285 q 905 1185 905 1221 q 867 1113 905 1145 q 789 1081 829 1081 q 722 1114 756 1081 q 687 1181 687 1147 z "},"ċ":{"ha":713,"x_min":45,"x_max":725,"o":"m 45 222 q 183 549 45 378 q 469 721 321 721 q 634 680 544 721 q 725 585 725 639 q 695 519 725 549 q 624 489 665 489 q 559 519 593 489 q 441 551 523 551 q 306 439 387 551 q 224 253 224 328 q 266 162 224 197 q 382 127 307 127 q 499 163 429 127 q 589 197 572 197 q 644 175 623 197 q 665 122 665 152 q 545 10 665 62 q 356 -43 425 -43 q 131 31 216 -43 q 45 222 45 104 m 437 876 q 475 948 437 917 q 553 979 513 979 q 618 947 581 979 q 655 880 655 916 q 617 807 655 839 q 539 775 579 775 q 471 808 506 775 q 437 876 437 841 z "},"Č":{"ha":859,"x_min":64,"x_max":984,"o":"m 814 1004 q 890 1034 850 1034 q 964 933 964 1034 q 932 767 964 812 q 844 722 899 722 q 764 786 782 722 q 745 822 755 816 q 690 828 734 828 q 422 642 587 828 q 257 316 257 455 q 297 212 257 256 q 399 168 336 168 q 505 187 456 168 q 655 269 553 206 q 740 304 713 304 q 800 281 777 304 q 823 223 823 258 q 798 162 823 189 q 692 85 774 135 q 530 9 611 35 q 370 -17 449 -17 q 148 74 232 -17 q 64 287 64 164 q 292 759 64 506 q 719 1013 519 1013 q 814 1004 780 1013 m 718 1264 q 876 1372 861 1364 q 916 1379 891 1379 q 965 1362 945 1379 q 984 1322 984 1345 q 954 1267 984 1291 q 817 1173 923 1242 q 683 1103 711 1103 q 630 1127 651 1103 l 559 1211 q 522 1252 541 1231 q 480 1339 480 1310 q 508 1386 480 1364 q 570 1409 536 1409 q 632 1375 613 1409 q 718 1264 665 1320 z "},"č":{"ha":713,"x_min":45,"x_max":829,"o":"m 45 222 q 183 549 45 378 q 469 721 321 721 q 634 680 544 721 q 725 585 725 639 q 695 519 725 549 q 624 489 665 489 q 559 519 593 489 q 441 551 523 551 q 306 439 387 551 q 224 253 224 328 q 266 162 224 197 q 382 127 307 127 q 499 163 429 127 q 589 197 572 197 q 644 175 623 197 q 665 122 665 152 q 545 10 665 62 q 356 -43 425 -43 q 131 31 216 -43 q 45 222 45 104 m 563 958 q 721 1066 706 1058 q 761 1074 736 1074 q 809 1057 790 1074 q 829 1016 829 1040 q 798 961 829 985 q 662 867 768 937 q 528 798 555 798 q 475 821 496 798 l 404 905 q 367 946 386 925 q 325 1033 325 1004 q 353 1080 325 1058 q 415 1103 381 1103 q 477 1069 458 1103 q 563 958 510 1015 z "},"Ď":{"ha":1002,"x_min":106,"x_max":1026,"o":"m 189 -7 q 128 17 150 -5 q 106 71 106 40 q 145 289 106 96 q 237 850 189 486 q 253 954 247 925 q 299 1019 259 983 q 381 1055 338 1055 q 487 1013 404 1055 q 604 957 581 963 q 907 761 788 894 q 1026 473 1026 629 q 873 109 1026 283 q 414 -66 720 -66 q 189 -7 282 -66 m 417 821 l 311 149 q 444 115 358 115 q 663 157 595 115 q 782 275 730 199 q 833 443 833 352 q 785 590 833 523 q 662 701 736 657 q 417 821 588 745 m 650 1264 q 808 1372 793 1364 q 848 1379 823 1379 q 897 1362 878 1379 q 916 1322 916 1345 q 886 1267 916 1291 q 749 1173 855 1242 q 615 1103 643 1103 q 562 1127 583 1103 l 491 1211 q 454 1252 473 1231 q 412 1339 412 1310 q 440 1386 412 1364 q 503 1409 469 1409 q 564 1375 545 1409 q 650 1264 597 1320 z "},"ď":{"ha":1061,"x_min":71,"x_max":1177,"o":"m 1031 911 q 988 985 988 942 q 1020 1058 988 1027 q 1097 1088 1051 1088 q 1177 1006 1177 1088 q 1121 841 1177 933 q 1004 749 1064 749 q 957 792 957 749 q 980 846 957 817 q 1031 911 1026 896 m 665 682 q 738 1006 716 932 q 838 1080 760 1080 q 915 1007 915 1080 q 851 699 915 971 q 775 312 798 473 q 753 96 753 150 q 748 44 753 63 q 714 2 743 25 q 650 -21 685 -21 q 581 25 599 -21 q 374 -31 482 -31 q 151 52 232 -31 q 71 253 71 135 q 192 577 71 430 q 512 725 314 725 q 665 682 612 725 m 618 468 q 488 553 587 553 q 305 467 362 553 q 248 293 248 380 q 293 186 248 229 q 402 143 338 143 q 502 165 461 143 q 578 220 542 187 q 618 468 580 235 z "},"Đ":{"ha":1002,"x_min":1,"x_max":1014,"o":"m 176 -7 q 102 86 90 -3 l 150 380 l 118 380 q 1 454 1 380 q 146 564 1 564 l 161 564 q 179 562 170 564 l 239 945 q 287 1019 245 983 q 369 1055 328 1055 q 558 972 389 1055 q 591 957 587 958 q 902 753 789 880 q 1014 475 1014 627 q 859 107 1014 281 q 402 -66 703 -66 q 176 -7 257 -66 m 363 561 q 444 555 393 561 q 524 551 494 551 q 583 529 562 551 q 605 477 605 507 q 573 403 605 434 q 496 372 541 372 q 415 376 465 372 q 336 380 352 380 l 300 150 q 431 115 361 115 q 680 177 605 115 q 788 308 755 239 q 821 443 821 378 q 756 613 821 529 q 405 821 692 696 l 363 561 z "},"đ":{"ha":816,"x_min":71,"x_max":1010,"o":"m 876 807 q 753 96 753 276 q 748 44 753 63 q 714 2 743 25 q 650 -21 685 -21 q 581 25 599 -21 q 374 -31 480 -31 q 151 52 232 -31 q 71 253 71 135 q 192 577 71 430 q 512 725 314 725 q 665 682 615 725 l 692 814 l 680 814 q 593 810 650 814 q 508 807 536 807 q 446 824 469 807 q 422 868 422 842 q 480 933 422 914 q 703 953 537 953 l 723 953 q 773 1060 745 1040 q 838 1080 802 1080 q 915 1007 915 1080 q 903 945 915 987 l 926 945 q 986 927 963 945 q 1010 885 1010 910 q 980 829 1010 851 q 905 807 949 807 l 876 807 m 578 220 q 618 468 580 235 q 488 553 587 553 q 305 467 362 553 q 248 293 248 380 q 293 186 248 229 q 402 143 338 143 q 502 165 461 143 q 578 220 542 187 z "},"Ē":{"ha":867,"x_min":90,"x_max":994,"o":"m 409 871 q 361 603 382 707 q 630 628 445 610 q 797 640 761 640 q 857 619 835 640 q 880 564 880 598 q 854 493 880 524 q 772 457 829 462 q 598 440 716 452 q 319 416 480 429 q 279 157 279 224 q 285 125 279 133 q 368 117 290 117 l 420 117 l 622 121 q 685 127 631 121 q 760 113 731 134 q 788 53 788 92 q 730 -43 788 -20 q 410 -66 672 -66 q 140 -16 191 -66 q 90 142 90 35 q 158 550 90 258 q 219 892 219 806 q 231 995 222 964 q 266 1046 239 1026 q 336 1067 293 1067 q 387 1048 366 1067 q 677 1089 546 1089 q 888 1067 782 1089 q 994 982 994 1045 q 961 903 994 937 q 886 869 928 869 q 857 873 871 869 q 647 903 751 903 q 409 871 538 903 m 808 1174 l 624 1174 q 566 1175 600 1174 l 510 1177 q 431 1181 448 1178 q 396 1203 414 1185 q 378 1244 378 1221 q 538 1335 378 1335 q 616 1332 564 1335 l 663 1331 l 780 1331 l 828 1332 q 957 1266 957 1335 q 808 1174 957 1174 z "},"ē":{"ha":777,"x_min":52,"x_max":846,"o":"m 238 204 q 412 134 296 134 q 571 171 501 134 q 667 204 633 204 q 727 153 727 204 q 620 21 727 73 q 385 -31 513 -31 q 140 40 229 -31 q 52 229 52 110 q 170 551 52 395 q 484 708 288 708 q 683 666 612 708 q 755 545 755 623 q 698 421 755 471 q 482 306 642 370 l 238 204 m 250 376 l 414 441 q 572 519 504 480 q 459 545 532 545 q 250 376 334 545 m 696 778 l 513 778 q 455 779 488 778 l 399 781 q 320 785 337 782 q 285 807 303 789 q 267 848 267 825 q 427 939 267 939 q 505 936 452 939 l 552 935 l 669 935 l 717 936 q 846 870 846 939 q 696 778 846 778 z "},"Ĕ":{"ha":867,"x_min":90,"x_max":1035,"o":"m 409 871 q 361 603 382 707 q 630 628 445 610 q 797 640 761 640 q 857 619 835 640 q 880 564 880 598 q 854 493 880 524 q 772 457 829 462 q 598 440 716 452 q 319 416 480 429 q 279 157 279 224 q 285 125 279 133 q 368 117 290 117 l 420 117 l 622 121 q 685 127 631 121 q 760 113 731 134 q 788 53 788 92 q 730 -43 788 -20 q 410 -66 672 -66 q 140 -16 191 -66 q 90 142 90 35 q 158 550 90 258 q 219 892 219 806 q 231 995 222 964 q 266 1046 239 1026 q 336 1067 293 1067 q 387 1048 366 1067 q 677 1089 546 1089 q 888 1067 782 1089 q 994 982 994 1045 q 961 903 994 937 q 886 869 928 869 q 857 873 871 869 q 647 903 751 903 q 409 871 538 903 m 648 1139 q 477 1194 546 1139 q 408 1322 408 1249 q 498 1417 408 1417 q 548 1401 529 1417 q 567 1361 567 1385 q 571 1317 567 1328 q 601 1287 575 1305 q 667 1268 627 1268 q 882 1343 846 1268 q 966 1396 909 1396 q 1035 1338 1035 1396 q 932 1202 1035 1264 q 648 1139 830 1139 z "},"ĕ":{"ha":777,"x_min":52,"x_max":888,"o":"m 238 204 q 412 134 296 134 q 571 171 501 134 q 667 204 633 204 q 727 153 727 204 q 620 21 727 73 q 385 -31 513 -31 q 140 40 229 -31 q 52 229 52 110 q 170 551 52 395 q 484 708 288 708 q 683 666 612 708 q 755 545 755 623 q 698 421 755 471 q 482 306 642 370 l 238 204 m 250 376 l 414 441 q 572 519 504 480 q 459 545 532 545 q 250 376 334 545 m 501 800 q 330 855 399 800 q 261 983 261 910 q 351 1078 261 1078 q 401 1062 382 1078 q 420 1022 420 1046 q 424 978 420 989 q 454 948 428 966 q 520 929 480 929 q 734 1004 699 929 q 819 1057 762 1057 q 888 999 888 1057 q 785 863 888 925 q 501 800 683 800 z "},"Ė":{"ha":867,"x_min":90,"x_max":994,"o":"m 409 871 q 361 603 382 707 q 630 628 445 610 q 797 640 761 640 q 857 619 835 640 q 880 564 880 598 q 854 493 880 524 q 772 457 829 462 q 598 440 716 452 q 319 416 480 429 q 279 157 279 224 q 285 125 279 133 q 368 117 290 117 l 420 117 l 622 121 q 685 127 631 121 q 760 113 731 134 q 788 53 788 92 q 730 -43 788 -20 q 410 -66 672 -66 q 140 -16 191 -66 q 90 142 90 35 q 158 550 90 258 q 219 892 219 806 q 231 995 222 964 q 266 1046 239 1026 q 336 1067 293 1067 q 387 1048 366 1067 q 677 1089 546 1089 q 888 1067 782 1089 q 994 982 994 1045 q 961 903 994 937 q 886 869 928 869 q 857 873 871 869 q 647 903 751 903 q 409 871 538 903 m 616 1235 q 654 1308 616 1276 q 732 1339 692 1339 q 797 1307 760 1339 q 834 1239 834 1275 q 796 1166 834 1198 q 718 1135 758 1135 q 650 1167 685 1135 q 616 1235 616 1200 z "},"ė":{"ha":777,"x_min":52,"x_max":755,"o":"m 238 204 q 412 134 296 134 q 571 171 501 134 q 667 204 633 204 q 727 153 727 204 q 620 21 727 73 q 385 -31 513 -31 q 140 40 229 -31 q 52 229 52 110 q 170 551 52 395 q 484 708 288 708 q 683 666 612 708 q 755 545 755 623 q 698 421 755 471 q 482 306 642 370 l 238 204 m 250 376 l 414 441 q 572 519 504 480 q 459 545 532 545 q 250 376 334 545 m 423 876 q 461 948 423 917 q 539 979 499 979 q 605 947 568 979 q 642 880 642 916 q 604 807 642 839 q 526 775 566 775 q 458 808 492 775 q 423 876 423 841 z "},"Ę":{"ha":867,"x_min":90,"x_max":994,"o":"m 409 871 q 361 603 382 707 q 630 628 445 610 q 797 640 761 640 q 857 619 835 640 q 880 564 880 598 q 854 493 880 524 q 772 457 829 462 q 598 440 716 452 q 319 416 480 429 q 279 157 279 224 q 285 125 279 133 q 368 117 290 117 l 420 117 l 622 121 q 685 127 631 121 q 760 113 731 134 q 788 53 788 92 q 730 -43 788 -20 q 410 -66 672 -66 q 140 -16 191 -66 q 90 142 90 35 q 158 550 90 258 q 219 892 219 806 q 231 995 222 964 q 266 1046 239 1026 q 336 1067 293 1067 q 387 1048 366 1067 q 677 1089 546 1089 q 888 1067 782 1089 q 994 982 994 1045 q 961 903 994 937 q 886 869 928 869 q 857 873 871 869 q 647 903 751 903 q 409 871 538 903 m 385 -178 q 459 -3 385 -81 q 597 76 533 76 q 644 58 625 76 q 663 18 663 41 q 601 -53 663 -28 q 554 -99 574 -65 q 534 -165 534 -133 q 550 -215 534 -195 q 594 -235 566 -235 q 690 -216 642 -235 q 730 -208 711 -208 q 779 -225 760 -208 q 797 -266 797 -243 q 715 -342 797 -314 q 561 -370 633 -370 q 437 -320 488 -370 q 385 -178 385 -271 z "},"ę":{"ha":777,"x_min":52,"x_max":755,"o":"m 238 204 q 412 134 296 134 q 571 171 501 134 q 667 204 633 204 q 727 153 727 204 q 620 21 727 73 q 385 -31 513 -31 q 140 40 229 -31 q 52 229 52 110 q 170 551 52 395 q 484 708 288 708 q 683 666 612 708 q 755 545 755 623 q 698 421 755 471 q 482 306 642 370 l 238 204 m 250 376 l 414 441 q 572 519 504 480 q 459 545 532 545 q 250 376 334 545 m 250 -166 q 324 9 250 -69 q 462 88 398 88 q 509 71 490 88 q 528 31 528 53 q 466 -41 528 -16 q 419 -87 439 -53 q 399 -153 399 -121 q 415 -203 399 -182 q 459 -223 431 -223 q 555 -203 507 -223 q 595 -195 576 -195 q 644 -213 625 -195 q 662 -254 662 -231 q 580 -330 662 -302 q 426 -357 498 -357 q 302 -308 353 -357 q 250 -166 250 -259 z "},"Ě":{"ha":867,"x_min":90,"x_max":994,"o":"m 409 871 q 361 603 382 707 q 630 628 445 610 q 797 640 761 640 q 857 619 835 640 q 880 564 880 598 q 854 493 880 524 q 772 457 829 462 q 598 440 716 452 q 319 416 480 429 q 279 157 279 224 q 285 125 279 133 q 368 117 290 117 l 420 117 l 622 121 q 685 127 631 121 q 760 113 731 134 q 788 53 788 92 q 730 -43 788 -20 q 410 -66 672 -66 q 140 -16 191 -66 q 90 142 90 35 q 158 550 90 258 q 219 892 219 806 q 231 995 222 964 q 266 1046 239 1026 q 336 1067 293 1067 q 387 1048 366 1067 q 677 1089 546 1089 q 888 1067 782 1089 q 994 982 994 1045 q 961 903 994 937 q 886 869 928 869 q 857 873 871 869 q 647 903 751 903 q 409 871 538 903 m 709 1283 q 867 1391 852 1383 q 907 1398 882 1398 q 955 1381 936 1398 q 975 1341 975 1364 q 944 1286 975 1310 q 807 1192 913 1261 q 673 1122 701 1122 q 621 1146 642 1122 l 549 1230 q 513 1271 532 1250 q 471 1358 471 1329 q 499 1405 471 1383 q 561 1428 527 1428 q 623 1394 604 1428 q 709 1283 656 1339 z "},"ě":{"ha":777,"x_min":52,"x_max":829,"o":"m 238 204 q 412 134 296 134 q 571 171 501 134 q 667 204 633 204 q 727 153 727 204 q 620 21 727 73 q 385 -31 513 -31 q 140 40 229 -31 q 52 229 52 110 q 170 551 52 395 q 484 708 288 708 q 683 666 612 708 q 755 545 755 623 q 698 421 755 471 q 482 306 642 370 l 238 204 m 250 376 l 414 441 q 572 519 504 480 q 459 545 532 545 q 250 376 334 545 m 563 958 q 721 1066 706 1058 q 761 1074 736 1074 q 809 1057 790 1074 q 829 1016 829 1040 q 798 961 829 985 q 662 867 768 937 q 528 798 555 798 q 475 821 496 798 l 404 905 q 367 946 386 925 q 325 1033 325 1004 q 353 1080 325 1058 q 415 1103 381 1103 q 477 1069 458 1103 q 563 958 510 1015 z "},"Ĝ":{"ha":944,"x_min":18,"x_max":1058,"o":"m 916 399 q 681 77 841 201 q 327 -47 520 -47 q 18 233 18 -47 q 233 784 18 502 q 649 1065 448 1065 q 828 1015 719 1065 q 937 907 937 964 q 903 837 937 870 q 825 804 869 804 q 741 842 805 804 q 620 880 680 880 q 432 746 557 880 q 259 483 307 611 q 211 254 211 355 q 250 159 211 180 q 356 138 289 138 q 558 204 467 138 q 701 378 649 271 q 416 314 547 368 q 372 304 398 304 q 313 329 334 304 q 291 383 291 354 q 452 520 291 474 q 886 567 613 567 q 947 545 924 567 q 970 490 970 522 q 916 399 970 432 m 770 1270 q 519 1096 576 1096 q 463 1117 486 1096 q 441 1166 441 1138 q 481 1230 441 1200 q 717 1427 567 1298 q 782 1452 749 1452 q 947 1339 848 1452 l 986 1298 q 1050 1226 1042 1237 q 1058 1196 1058 1215 q 1026 1137 1058 1163 q 954 1110 994 1110 q 889 1142 916 1110 q 770 1270 863 1174 z "},"ĝ":{"ha":737,"x_min":-39,"x_max":869,"o":"m 488 36 q 305 -35 410 -35 q 113 36 182 -35 q 44 214 44 106 q 178 546 44 397 q 544 694 311 694 q 719 632 672 694 q 791 554 791 623 q 753 404 791 515 q 666 68 703 252 q 513 -282 621 -182 q 208 -382 404 -382 q -39 -290 -39 -382 q -13 -224 -39 -254 q 59 -195 14 -195 q 145 -205 91 -195 q 245 -218 204 -218 q 401 -158 344 -218 q 488 36 458 -98 m 597 513 q 512 541 552 541 q 307 446 380 541 q 233 236 233 352 q 333 125 233 125 q 443 178 384 125 q 525 284 503 232 q 597 513 547 336 m 581 964 q 330 790 387 790 q 274 811 296 790 q 252 860 252 832 q 292 924 252 894 q 528 1121 378 992 q 593 1146 559 1146 q 758 1034 659 1146 l 797 992 q 861 920 853 931 q 869 890 869 909 q 837 831 869 857 q 765 804 805 804 q 700 836 727 804 q 581 964 673 868 z "},"Ğ":{"ha":944,"x_min":18,"x_max":1064,"o":"m 916 399 q 681 77 841 201 q 327 -47 520 -47 q 18 233 18 -47 q 233 784 18 502 q 649 1065 448 1065 q 828 1015 719 1065 q 937 907 937 964 q 903 837 937 870 q 825 804 869 804 q 741 842 805 804 q 620 880 680 880 q 432 746 557 880 q 259 483 307 611 q 211 254 211 355 q 250 159 211 180 q 356 138 289 138 q 558 204 467 138 q 701 378 649 271 q 416 314 547 368 q 372 304 398 304 q 313 329 334 304 q 291 383 291 354 q 452 520 291 474 q 886 567 613 567 q 947 545 924 567 q 970 490 970 522 q 916 399 970 432 m 677 1106 q 506 1161 575 1106 q 437 1289 437 1216 q 528 1383 437 1383 q 577 1368 558 1383 q 596 1328 596 1352 q 600 1283 596 1295 q 630 1254 604 1272 q 696 1235 656 1235 q 911 1310 875 1235 q 996 1363 938 1363 q 1064 1305 1064 1363 q 962 1168 1064 1231 q 677 1106 859 1106 z "},"ğ":{"ha":737,"x_min":-39,"x_max":888,"o":"m 488 36 q 305 -35 410 -35 q 113 36 182 -35 q 44 214 44 106 q 178 546 44 397 q 544 694 311 694 q 719 632 672 694 q 791 554 791 623 q 753 404 791 515 q 666 68 703 252 q 513 -282 621 -182 q 208 -382 404 -382 q -39 -290 -39 -382 q -13 -224 -39 -254 q 59 -195 14 -195 q 145 -205 91 -195 q 245 -218 204 -218 q 401 -158 344 -218 q 488 36 458 -98 m 597 513 q 512 541 552 541 q 307 446 380 541 q 233 236 233 352 q 333 125 233 125 q 443 178 384 125 q 525 284 503 232 q 597 513 547 336 m 501 800 q 330 855 399 800 q 261 983 261 910 q 351 1078 261 1078 q 401 1062 382 1078 q 420 1022 420 1046 q 424 978 420 989 q 454 948 428 966 q 520 929 480 929 q 734 1004 699 929 q 819 1057 762 1057 q 888 999 888 1057 q 785 863 888 925 q 501 800 683 800 z "},"Ġ":{"ha":944,"x_min":18,"x_max":970,"o":"m 916 399 q 681 77 841 201 q 327 -47 520 -47 q 18 233 18 -47 q 233 784 18 502 q 649 1065 448 1065 q 828 1015 719 1065 q 937 907 937 964 q 903 837 937 870 q 825 804 869 804 q 741 842 805 804 q 620 880 680 880 q 432 746 557 880 q 259 483 307 611 q 211 254 211 355 q 250 159 211 180 q 356 138 289 138 q 558 204 467 138 q 701 378 649 271 q 416 314 547 368 q 372 304 398 304 q 313 329 334 304 q 291 383 291 354 q 452 520 291 474 q 886 567 613 567 q 947 545 924 567 q 970 490 970 522 q 916 399 970 432 m 646 1181 q 684 1254 646 1223 q 762 1285 722 1285 q 828 1253 791 1285 q 865 1185 865 1221 q 827 1113 865 1145 q 749 1081 789 1081 q 681 1114 715 1081 q 646 1181 646 1147 z "},"ġ":{"ha":737,"x_min":-39,"x_max":791,"o":"m 488 36 q 305 -35 410 -35 q 113 36 182 -35 q 44 214 44 106 q 178 546 44 397 q 544 694 311 694 q 719 632 672 694 q 791 554 791 623 q 753 404 791 515 q 666 68 703 252 q 513 -282 621 -182 q 208 -382 404 -382 q -39 -290 -39 -382 q -13 -224 -39 -254 q 59 -195 14 -195 q 145 -205 91 -195 q 245 -218 204 -218 q 401 -158 344 -218 q 488 36 458 -98 m 597 513 q 512 541 552 541 q 307 446 380 541 q 233 236 233 352 q 333 125 233 125 q 443 178 384 125 q 525 284 503 232 q 597 513 547 336 m 491 876 q 529 948 491 917 q 607 979 567 979 q 672 947 635 979 q 709 880 709 916 q 671 807 709 839 q 593 775 633 775 q 526 808 560 775 q 491 876 491 841 z "},"Ģ":{"ha":944,"x_min":18,"x_max":970,"o":"m 916 399 q 681 77 841 201 q 327 -47 520 -47 q 18 233 18 -47 q 233 784 18 502 q 649 1065 448 1065 q 828 1015 719 1065 q 937 907 937 964 q 903 837 937 870 q 825 804 869 804 q 741 842 805 804 q 620 880 680 880 q 432 746 557 880 q 259 483 307 611 q 211 254 211 355 q 250 159 211 180 q 356 138 289 138 q 558 204 467 138 q 701 378 649 271 q 416 314 547 368 q 372 304 398 304 q 313 329 334 304 q 291 383 291 354 q 452 520 291 474 q 886 567 613 567 q 947 545 924 567 q 970 490 970 522 q 916 399 970 432 m 369 -231 q 284 -164 284 -216 q 314 -93 284 -121 q 391 -65 345 -65 q 472 -93 441 -65 q 503 -164 503 -121 q 433 -309 503 -237 q 302 -382 363 -382 q 256 -338 256 -382 q 310 -284 256 -311 q 369 -231 363 -258 z "},"ģ":{"ha":737,"x_min":-39,"x_max":791,"o":"m 581 983 q 626 910 626 954 q 594 840 626 870 q 517 810 562 810 q 437 889 437 810 q 492 1056 437 964 q 609 1149 548 1149 q 656 1105 656 1149 q 616 1031 656 1074 q 581 983 588 1001 m 488 36 q 305 -35 410 -35 q 113 37 181 -35 q 44 216 44 108 q 178 546 44 397 q 544 694 311 694 q 719 632 672 694 q 791 554 791 623 q 753 404 791 515 q 666 68 703 252 q 513 -282 621 -182 q 208 -382 404 -382 q -39 -290 -39 -382 q -13 -224 -39 -254 q 59 -195 14 -195 q 145 -205 91 -195 q 245 -218 204 -218 q 401 -158 344 -218 q 488 36 458 -98 m 597 513 q 512 541 552 541 q 307 446 380 541 q 233 236 233 352 q 333 125 233 125 q 443 178 384 125 q 525 284 503 232 q 597 513 547 336 z "},"Ĥ":{"ha":1067,"x_min":78,"x_max":1172,"o":"m 865 424 q 327 342 742 418 q 294 187 317 288 q 262 32 270 79 q 225 -32 256 -6 q 156 -57 193 -57 q 100 -35 121 -57 q 78 19 78 -13 q 123 237 78 50 q 259 965 163 400 q 295 1028 264 1003 q 365 1054 326 1054 q 421 1033 399 1054 q 444 979 444 1012 q 413 810 444 955 l 397 720 q 372 590 382 638 q 356 521 361 553 l 626 571 q 892 602 764 597 q 941 846 903 648 q 999 977 951 906 q 1090 1048 1047 1048 q 1148 1027 1124 1048 q 1172 975 1172 1005 q 1164 940 1172 957 q 1132 831 1145 895 q 1123 796 1128 816 q 1112 737 1113 748 q 1074 546 1105 699 q 1029 293 1037 370 l 1008 77 q 972 -1 1004 27 q 898 -29 941 -29 q 837 -7 861 -29 q 813 44 813 14 l 844 293 q 852 354 848 330 l 859 391 q 865 424 861 408 m 770 1270 q 519 1096 576 1096 q 463 1117 486 1096 q 441 1166 441 1138 q 481 1230 441 1200 q 717 1427 567 1298 q 782 1452 749 1452 q 947 1339 848 1452 l 986 1298 q 1050 1226 1042 1237 q 1058 1196 1058 1215 q 1026 1137 1058 1163 q 954 1110 994 1110 q 889 1142 916 1110 q 770 1270 863 1174 z "},"ĥ":{"ha":802,"x_min":79,"x_max":915,"o":"m 366 621 q 608 718 479 718 q 745 679 699 718 q 790 545 790 639 q 788 503 790 525 q 760 145 760 313 q 764 58 760 84 q 735 -7 767 27 q 654 -41 703 -41 q 586 -9 604 -41 q 568 142 568 23 q 598 418 568 281 q 609 496 609 471 q 580 536 609 536 q 327 335 463 536 q 252 31 287 79 q 163 -17 216 -17 q 102 6 126 -17 q 79 58 79 29 q 94 109 79 81 q 144 388 103 130 l 202 745 l 208 766 q 231 936 231 861 q 243 1024 231 998 q 282 1068 254 1050 q 344 1086 311 1086 q 426 981 426 1086 q 391 753 426 901 q 366 621 378 696 m 627 1270 q 376 1096 433 1096 q 320 1117 342 1096 q 298 1166 298 1138 q 338 1230 298 1200 q 574 1427 424 1298 q 639 1452 606 1452 q 804 1339 705 1452 l 843 1298 q 907 1226 899 1237 q 915 1196 915 1215 q 883 1137 915 1163 q 811 1110 851 1110 q 746 1142 773 1110 q 627 1270 720 1174 z "},"Ħ":{"ha":1214,"x_min":160,"x_max":1338,"o":"m 1206 772 q 1165 564 1197 718 q 1118 293 1124 356 l 1097 79 q 1061 0 1093 29 q 987 -29 1029 -29 q 926 -7 951 -29 q 901 45 901 14 l 926 240 q 954 424 939 338 q 416 342 833 419 q 383 187 405 279 q 351 32 359 83 q 314 -32 345 -6 q 246 -57 283 -57 q 188 -35 210 -57 q 165 17 165 -13 q 211 237 165 48 q 256 441 245 374 q 314 777 276 573 q 250 773 305 777 q 160 831 160 768 q 192 894 160 868 q 339 920 224 920 q 381 1027 354 1000 q 454 1054 408 1054 q 529 980 529 1054 q 522 918 529 954 q 726 916 704 916 q 888 908 771 916 q 982 904 942 905 q 1047 901 1021 903 q 1179 1048 1112 1048 q 1237 1027 1214 1048 q 1259 974 1259 1006 q 1244 922 1259 956 q 1271 925 1259 925 q 1319 907 1299 925 q 1338 864 1338 889 q 1206 772 1338 795 m 1013 760 q 951 762 989 761 q 859 766 913 763 q 704 774 747 774 l 643 774 q 496 775 591 774 q 475 656 490 747 q 460 593 472 635 q 448 530 450 552 l 446 521 q 982 602 850 599 q 1013 760 1002 699 z "},"ħ":{"ha":802,"x_min":67,"x_max":784,"o":"m 360 621 q 602 718 473 718 q 739 679 693 718 q 784 545 784 639 l 763 335 l 755 203 l 758 54 q 725 -11 758 20 q 648 -41 692 -41 q 580 -9 598 -41 q 562 142 562 23 q 592 418 562 281 q 603 496 603 471 q 574 536 603 536 q 321 335 456 536 q 245 31 281 79 q 157 -17 210 -17 q 96 6 120 -17 q 73 58 73 29 q 87 109 73 81 q 138 388 97 130 l 196 745 l 212 812 q 93 831 119 814 q 67 876 67 847 q 83 925 67 905 q 122 951 98 945 q 225 958 146 958 q 261 1057 227 1028 q 338 1086 296 1086 q 418 953 431 1086 q 693 940 653 953 q 732 887 732 926 q 705 828 732 852 q 637 804 677 804 l 587 804 l 397 808 l 385 753 q 360 621 372 695 z "},"Ĩ":{"ha":759,"x_min":45,"x_max":921,"o":"m 583 821 q 520 489 553 688 l 473 184 l 564 186 q 660 185 622 186 q 717 162 697 184 q 736 111 736 140 q 704 35 736 67 q 627 3 671 3 l 580 3 q 513 1 552 3 l 446 0 q 262 -12 338 -2 q 127 -25 174 -25 q 68 -3 91 -25 q 45 51 45 19 q 78 127 45 94 q 156 160 111 160 q 279 170 212 160 q 395 828 348 648 l 247 823 q 189 844 214 822 q 165 901 165 865 q 195 974 165 941 q 278 1009 225 1006 q 477 1013 332 1013 q 684 1000 566 1013 q 829 982 802 988 q 871 959 856 977 q 886 912 886 942 q 852 832 886 863 q 773 802 819 802 q 583 821 740 802 m 691 1109 q 565 1130 605 1109 q 490 1203 525 1152 q 448 1232 471 1232 q 373 1182 411 1232 q 292 1134 339 1134 q 242 1149 264 1134 q 221 1188 221 1164 q 290 1293 221 1227 q 469 1360 359 1360 q 561 1342 533 1360 q 634 1265 589 1324 q 691 1236 657 1236 q 771 1307 736 1236 q 852 1354 795 1354 q 902 1339 883 1354 q 921 1300 921 1324 q 855 1188 921 1267 q 691 1109 789 1109 z "},"ĩ":{"ha":389,"x_min":10,"x_max":710,"o":"m 188 -21 q 128 0 151 -21 q 106 55 106 22 l 125 193 q 174 468 143 333 q 204 621 197 568 q 241 685 210 658 q 313 711 273 711 q 370 690 348 711 q 392 635 392 669 q 362 479 392 608 q 317 229 332 349 q 294 67 302 108 q 256 3 286 26 q 188 -21 226 -21 m 480 803 q 354 824 394 803 q 279 897 314 846 q 237 926 260 926 q 162 876 200 926 q 81 828 128 828 q 32 843 53 828 q 10 882 10 859 q 79 987 10 921 q 258 1054 148 1054 q 350 1036 322 1054 q 423 960 378 1018 q 480 930 446 930 q 560 1001 525 930 q 642 1048 584 1048 q 691 1033 672 1048 q 710 994 710 1018 q 644 882 710 962 q 480 803 578 803 z "},"Ī":{"ha":759,"x_min":45,"x_max":886,"o":"m 583 821 q 520 489 553 688 l 473 184 l 564 186 q 660 185 622 186 q 717 162 697 184 q 736 111 736 140 q 704 35 736 67 q 627 3 671 3 l 580 3 q 513 1 552 3 l 446 0 q 262 -12 338 -2 q 127 -25 174 -25 q 68 -3 91 -25 q 45 51 45 19 q 78 127 45 94 q 156 160 111 160 q 279 170 212 160 q 395 828 348 648 l 247 823 q 189 844 214 822 q 165 901 165 865 q 195 974 165 941 q 278 1009 225 1006 q 477 1013 332 1013 q 684 1000 566 1013 q 829 982 802 988 q 871 959 856 977 q 886 912 886 942 q 852 832 886 863 q 773 802 819 802 q 583 821 740 802 m 703 1084 l 519 1084 q 462 1085 495 1084 l 406 1086 q 327 1091 344 1088 q 292 1113 310 1095 q 274 1154 274 1131 q 434 1244 274 1244 q 512 1242 459 1244 l 559 1240 l 675 1240 l 724 1242 q 852 1176 852 1245 q 703 1084 852 1084 z "},"ī":{"ha":389,"x_min":52,"x_max":630,"o":"m 188 -21 q 128 0 151 -21 q 106 55 106 22 l 125 193 q 174 468 143 333 q 204 621 197 568 q 241 685 210 658 q 313 711 273 711 q 370 690 348 711 q 392 635 392 669 q 362 479 392 608 q 317 229 332 349 q 294 67 302 108 q 256 3 286 26 q 188 -21 226 -21 m 481 778 l 297 778 q 239 779 273 778 l 183 781 q 104 785 121 782 q 70 807 87 789 q 52 848 52 825 q 212 939 52 939 q 290 936 237 939 l 336 935 l 453 935 l 501 936 q 630 870 630 939 q 481 778 630 778 z "},"Ĭ":{"ha":759,"x_min":45,"x_max":886,"o":"m 583 821 q 520 489 553 688 l 473 184 l 564 186 q 660 185 622 186 q 717 162 697 184 q 736 111 736 140 q 704 35 736 67 q 627 3 671 3 l 580 3 q 513 1 552 3 l 446 0 q 262 -12 338 -2 q 127 -25 174 -25 q 68 -3 91 -25 q 45 51 45 19 q 78 127 45 94 q 156 160 111 160 q 279 170 212 160 q 395 828 348 648 l 247 823 q 189 844 214 822 q 165 901 165 865 q 195 974 165 941 q 278 1009 225 1006 q 477 1013 332 1013 q 684 1000 566 1013 q 829 982 802 988 q 871 959 856 977 q 886 912 886 942 q 852 832 886 863 q 773 802 819 802 q 583 821 740 802 m 496 1106 q 325 1161 394 1106 q 256 1289 256 1216 q 347 1383 256 1383 q 396 1368 377 1383 q 415 1328 415 1352 q 419 1283 415 1295 q 449 1254 423 1272 q 515 1235 475 1235 q 730 1310 694 1235 q 814 1363 757 1363 q 883 1305 883 1363 q 781 1168 883 1231 q 496 1106 678 1106 z "},"ĭ":{"ha":389,"x_min":45,"x_max":672,"o":"m 188 -21 q 128 0 151 -21 q 106 55 106 22 l 125 193 q 174 468 143 333 q 204 621 197 568 q 241 685 210 658 q 313 711 273 711 q 370 690 348 711 q 392 635 392 669 q 362 479 392 608 q 317 229 332 349 q 294 67 302 108 q 256 3 286 26 q 188 -21 226 -21 m 286 800 q 114 855 183 800 q 45 983 45 910 q 136 1078 45 1078 q 185 1062 166 1078 q 204 1022 204 1046 q 208 978 204 989 q 238 948 212 966 q 304 929 264 929 q 519 1004 483 929 q 604 1057 546 1057 q 672 999 672 1057 q 570 863 672 925 q 286 800 467 800 z "},"Į":{"ha":759,"x_min":45,"x_max":886,"o":"m 583 821 q 520 489 553 688 l 473 184 l 564 186 q 660 185 622 186 q 717 162 697 184 q 736 111 736 140 q 704 35 736 67 q 627 3 671 3 l 580 3 q 513 1 552 3 l 446 0 q 262 -12 338 -2 q 127 -25 174 -25 q 68 -3 91 -25 q 45 51 45 19 q 78 127 45 94 q 156 160 111 160 q 279 170 212 160 q 395 828 348 648 l 247 823 q 189 844 214 822 q 165 901 165 865 q 195 974 165 941 q 278 1009 225 1006 q 477 1013 332 1013 q 684 1000 566 1013 q 829 982 802 988 q 871 959 856 977 q 886 912 886 942 q 852 832 886 863 q 773 802 819 802 q 583 821 740 802 m 209 -139 q 283 37 209 -42 q 420 115 357 115 q 468 98 449 115 q 486 58 486 80 q 425 -14 486 11 q 378 -60 398 -26 q 358 -125 358 -94 q 374 -176 358 -155 q 418 -196 390 -196 q 513 -176 466 -196 q 554 -168 534 -168 q 602 -186 584 -168 q 621 -227 621 -203 q 538 -302 621 -275 q 385 -330 456 -330 q 260 -281 312 -330 q 209 -139 209 -232 z "},"į":{"ha":389,"x_min":-1,"x_max":475,"o":"m 258 901 q 297 981 258 947 q 382 1015 336 1015 q 448 990 420 1015 q 475 930 475 966 q 436 850 475 885 q 350 815 398 815 q 284 840 311 815 q 258 901 258 865 m 188 -21 q 128 0 151 -21 q 106 55 106 22 l 125 193 q 174 468 143 333 q 204 621 197 568 q 241 685 210 658 q 313 711 273 711 q 370 690 348 711 q 392 635 392 669 q 362 479 392 608 q 317 229 332 349 q 294 67 302 108 q 256 3 286 26 q 188 -21 226 -21 m -1 -139 q 73 37 -1 -42 q 211 115 147 115 q 258 98 239 115 q 277 58 277 80 q 215 -14 277 11 q 169 -60 189 -26 q 149 -125 149 -94 q 164 -176 149 -155 q 208 -196 180 -196 q 304 -176 256 -196 q 345 -168 325 -168 q 393 -186 374 -168 q 411 -227 411 -203 q 329 -302 411 -275 q 175 -330 247 -330 q 51 -281 102 -330 q -1 -139 -1 -232 z "},"İ":{"ha":759,"x_min":45,"x_max":886,"o":"m 583 821 q 520 489 553 688 l 473 184 l 564 186 q 660 185 622 186 q 717 162 697 184 q 736 111 736 140 q 704 35 736 67 q 627 3 671 3 l 580 3 q 513 1 552 3 l 446 0 q 262 -12 338 -2 q 127 -25 174 -25 q 68 -3 91 -25 q 45 51 45 19 q 78 127 45 94 q 156 160 111 160 q 279 170 212 160 q 395 828 348 648 l 247 823 q 189 844 214 822 q 165 901 165 865 q 195 974 165 941 q 278 1009 225 1006 q 477 1013 332 1013 q 684 1000 566 1013 q 829 982 802 988 q 871 959 856 977 q 886 912 886 942 q 852 832 886 863 q 773 802 819 802 q 583 821 740 802 m 450 1181 q 488 1254 450 1223 q 566 1285 526 1285 q 632 1253 595 1285 q 669 1185 669 1221 q 631 1113 669 1145 q 553 1081 593 1081 q 485 1114 519 1081 q 450 1181 450 1147 z "},"ı":{"ha":389,"x_min":106,"x_max":392,"o":"m 188 -21 q 128 0 151 -21 q 106 55 106 22 l 125 193 q 174 468 143 333 q 204 621 197 568 q 241 685 210 658 q 313 711 273 711 q 370 690 348 711 q 392 635 392 669 q 362 479 392 608 q 317 229 332 349 q 294 67 302 108 q 256 3 286 26 q 188 -21 226 -21 z "},"Ĳ":{"ha":1632,"x_min":45,"x_max":1738,"o":"m 1495 838 q 1495 838 1495 840 q 1492 826 1494 836 q 1485 789 1490 817 q 1341 163 1427 408 q 1098 -82 1256 -82 q 864 4 972 -82 q 755 197 755 90 q 870 339 755 339 q 951 263 951 339 q 949 235 951 250 q 1004 148 943 193 q 1127 103 1065 103 q 1163 150 1144 103 q 1233 440 1181 196 q 1302 833 1285 685 l 1285 833 l 1126 836 q 1064 859 1087 836 q 1041 913 1041 882 q 1179 1021 1041 1021 l 1207 1021 q 1246 1019 1225 1021 l 1286 1018 q 1442 1022 1328 1017 q 1571 1028 1530 1028 q 1738 943 1738 1028 q 1707 867 1738 901 q 1628 833 1676 833 l 1548 838 l 1495 838 m 583 821 q 520 489 553 688 l 473 184 l 564 186 q 660 185 622 186 q 717 162 697 184 q 736 111 736 140 q 704 35 736 67 q 627 3 671 3 l 580 3 q 513 1 552 3 l 446 0 q 262 -12 338 -2 q 127 -25 174 -25 q 68 -3 91 -25 q 45 51 45 19 q 78 127 45 94 q 156 160 111 160 q 279 170 212 160 q 395 828 348 648 l 247 823 q 189 844 214 822 q 165 901 165 865 q 195 974 165 941 q 278 1009 225 1006 q 477 1013 332 1013 q 684 1000 566 1013 q 829 982 802 988 q 871 959 856 977 q 886 912 886 942 q 852 832 886 863 q 773 802 819 802 q 583 821 740 802 z "},"ĳ":{"ha":777,"x_min":106,"x_max":777,"o":"m 258 901 q 297 981 258 947 q 382 1015 336 1015 q 448 990 420 1015 q 475 930 475 966 q 436 850 475 885 q 350 815 398 815 q 284 840 311 815 q 258 901 258 865 m 561 897 q 599 979 561 943 q 685 1014 637 1014 q 751 989 724 1014 q 777 926 777 964 q 739 846 777 882 q 653 811 701 811 q 587 837 613 811 q 561 897 561 862 m 656 721 q 714 699 686 721 q 743 652 743 677 l 693 162 q 659 -130 671 -51 q 601 -273 647 -208 q 500 -372 555 -338 q 383 -406 445 -406 q 208 -302 269 -406 q 146 -148 146 -198 q 181 -72 146 -102 q 260 -41 216 -41 q 329 -87 302 -41 q 369 -186 351 -150 q 412 -222 387 -222 q 447 -196 431 -222 q 471 -129 462 -169 q 509 249 480 -90 q 544 619 535 578 q 583 690 552 660 q 656 721 614 721 m 188 -21 q 128 0 151 -21 q 106 55 106 22 l 125 193 q 174 468 143 333 q 204 621 197 568 q 241 685 210 658 q 313 711 273 711 q 370 690 348 711 q 392 635 392 669 q 362 479 392 608 q 317 229 332 349 q 294 67 302 108 q 256 3 286 26 q 188 -21 226 -21 z "},"Ĵ":{"ha":924,"x_min":62,"x_max":1065,"o":"m 802 838 l 799 819 q 793 789 796 808 q 652 175 737 432 q 405 -82 566 -82 q 171 4 279 -82 q 62 197 62 90 q 177 339 62 339 q 259 264 259 339 q 256 235 259 250 q 311 149 250 194 q 434 103 371 103 q 477 170 454 103 q 548 478 500 237 q 609 833 595 719 l 513 833 l 433 836 q 371 859 395 836 q 348 913 348 882 q 486 1021 348 1021 l 514 1021 q 553 1019 532 1021 l 593 1018 q 749 1022 635 1017 q 879 1028 837 1028 q 1045 943 1045 1028 q 1014 867 1045 901 q 936 833 983 833 l 855 838 l 802 838 m 777 1270 q 526 1096 583 1096 q 470 1117 492 1096 q 448 1166 448 1138 q 488 1230 448 1200 q 724 1427 574 1298 q 789 1452 755 1452 q 954 1339 854 1452 l 993 1298 q 1057 1226 1049 1237 q 1065 1196 1065 1215 q 1033 1137 1065 1163 q 961 1110 1001 1110 q 896 1142 923 1110 q 777 1270 869 1174 z "},"ĵ":{"ha":560,"x_min":-43,"x_max":754,"o":"m 138 -129 l 156 -175 q 204 -222 175 -222 q 238 -196 223 -222 q 263 -129 254 -169 q 300 249 272 -90 q 334 610 326 563 q 374 689 342 657 q 448 721 406 721 q 506 699 477 721 q 534 652 534 677 l 485 162 q 451 -130 463 -51 q 393 -273 439 -208 q 292 -372 347 -338 q 175 -406 237 -406 q 13 -313 68 -406 q -43 -190 -43 -221 q -9 -114 -43 -145 q 70 -83 24 -83 q 138 -129 111 -83 m 466 964 q 216 790 272 790 q 159 811 182 790 q 137 860 137 832 q 177 924 137 894 q 413 1121 263 992 q 478 1146 445 1146 q 644 1034 544 1146 l 682 992 q 746 920 739 931 q 754 890 754 909 q 722 831 754 857 q 650 804 690 804 q 586 836 612 804 q 466 964 559 868 z "},"Ķ":{"ha":848,"x_min":76,"x_max":932,"o":"m 266 16 q 233 -49 260 -23 q 166 -75 205 -75 q 99 -44 121 -75 q 76 23 76 -12 q 158 493 76 54 q 238 946 212 773 q 277 1012 245 985 q 349 1039 309 1039 q 407 1017 384 1039 q 430 960 430 995 q 416 874 430 940 l 362 616 q 773 993 384 631 q 850 1028 808 1028 q 909 1005 885 1028 q 932 949 932 982 q 896 879 932 924 q 732 714 859 833 q 444 461 606 595 q 665 225 604 281 q 774 151 726 169 q 834 79 834 132 q 804 5 834 40 q 730 -31 774 -31 q 590 21 674 -31 q 313 300 507 72 l 266 16 m 406 -231 q 321 -164 321 -216 q 352 -93 321 -121 q 429 -65 382 -65 q 510 -93 479 -65 q 541 -164 541 -121 q 470 -309 541 -237 q 340 -382 400 -382 q 293 -338 293 -382 q 347 -284 293 -311 q 406 -231 400 -258 z "},"ķ":{"ha":750,"x_min":59,"x_max":802,"o":"m 382 309 q 283 248 305 259 q 247 66 260 138 q 210 2 240 28 q 140 -24 180 -24 q 59 56 59 -24 q 94 250 59 87 q 127 411 120 363 l 207 860 q 214 928 210 885 q 227 1021 219 998 q 263 1066 235 1044 q 330 1088 292 1088 q 388 1067 366 1088 q 410 1012 410 1046 l 401 926 q 358 665 391 827 q 325 476 340 577 q 647 734 431 549 q 719 765 682 765 q 778 742 753 765 q 802 687 802 718 q 789 640 802 661 q 692 546 776 618 q 544 425 608 474 l 656 243 q 731 70 731 122 q 696 3 731 33 q 618 -28 661 -28 q 545 24 564 -28 q 406 270 517 100 q 382 309 384 304 m 369 -231 q 284 -164 284 -216 q 314 -93 284 -121 q 391 -65 345 -65 q 472 -93 441 -65 q 503 -164 503 -121 q 433 -309 503 -237 q 302 -382 363 -382 q 256 -338 256 -382 q 310 -284 256 -311 q 369 -231 363 -258 z "},"ĸ":{"ha":750,"x_min":64,"x_max":806,"o":"m 388 302 q 288 243 300 248 q 253 65 264 140 q 216 1 245 26 q 146 -24 186 -24 q 64 56 64 -24 q 100 245 64 98 q 134 404 124 345 l 180 700 q 217 763 186 738 q 288 789 248 789 q 345 769 322 789 q 368 715 368 749 q 353 614 368 690 l 339 529 q 331 468 336 508 q 652 724 347 477 q 724 753 687 753 q 782 729 758 753 q 806 673 806 705 q 759 593 806 646 q 551 418 712 541 q 663 239 589 355 q 737 68 737 112 q 702 3 737 33 q 625 -28 667 -28 q 552 22 572 -28 q 412 263 529 76 q 388 302 390 297 z "},"Ĺ":{"ha":765,"x_min":31,"x_max":762,"o":"m 33 84 l 81 297 q 201 953 142 576 q 238 1017 207 989 q 311 1046 269 1046 q 369 1024 347 1046 q 391 968 391 1002 q 357 751 391 941 l 303 462 q 228 121 284 363 q 652 200 388 123 q 683 204 669 204 q 743 179 724 204 q 762 127 762 154 q 704 33 762 65 q 470 -31 645 1 q 175 -62 294 -62 q 31 49 31 -62 q 33 84 31 65 m 438 1112 q 384 1131 406 1112 q 361 1177 361 1151 q 405 1246 361 1211 q 532 1358 448 1280 q 675 1435 617 1435 q 729 1415 708 1435 q 750 1368 750 1394 q 705 1297 750 1328 q 602 1215 667 1276 q 512 1139 549 1166 q 438 1112 475 1112 z "},"ĺ":{"ha":380,"x_min":96,"x_max":694,"o":"m 296 100 q 182 -29 276 -29 q 119 -4 142 -29 q 103 62 96 21 l 252 1002 q 291 1065 258 1041 q 361 1089 323 1089 q 424 1064 402 1089 q 439 1002 445 1040 l 296 100 m 382 1145 q 328 1164 351 1145 q 306 1211 306 1184 q 349 1279 306 1244 q 477 1391 392 1314 q 619 1468 562 1468 q 673 1448 652 1468 q 694 1401 694 1428 q 650 1331 694 1361 q 547 1249 611 1309 q 456 1172 494 1199 q 382 1145 419 1145 z "},"Ļ":{"ha":765,"x_min":31,"x_max":762,"o":"m 33 84 l 81 297 q 201 953 142 576 q 238 1017 207 989 q 311 1046 269 1046 q 369 1024 347 1046 q 391 968 391 1002 q 357 751 391 941 l 303 462 q 228 121 284 363 q 652 200 388 123 q 683 204 669 204 q 743 179 724 204 q 762 127 762 154 q 704 33 762 65 q 470 -31 645 1 q 175 -62 294 -62 q 31 49 31 -62 q 33 84 31 65 m 399 -231 q 315 -164 315 -216 q 345 -93 315 -121 q 422 -65 375 -65 q 503 -93 472 -65 q 534 -164 534 -121 q 464 -309 534 -237 q 333 -382 393 -382 q 286 -338 286 -382 q 340 -284 286 -311 q 399 -231 393 -258 z "},"ļ":{"ha":380,"x_min":18,"x_max":445,"o":"m 296 100 q 182 -29 276 -29 q 119 -4 142 -29 q 103 62 96 21 l 252 1002 q 291 1065 258 1041 q 361 1089 323 1089 q 424 1064 402 1089 q 439 1002 445 1040 l 296 100 m 132 -231 q 47 -164 47 -216 q 77 -93 47 -121 q 154 -65 107 -65 q 235 -93 204 -65 q 266 -164 266 -121 q 196 -309 266 -237 q 65 -382 125 -382 q 18 -338 18 -382 q 73 -284 18 -311 q 132 -231 125 -258 z "},"Ľ":{"ha":765,"x_min":31,"x_max":762,"o":"m 33 83 l 81 297 q 201 953 142 576 q 238 1017 207 989 q 311 1046 269 1046 q 369 1024 347 1046 q 391 968 391 1002 q 357 751 391 941 l 303 462 q 228 121 284 363 q 652 200 388 123 q 683 204 669 204 q 743 179 724 204 q 762 127 762 154 q 704 33 762 65 q 470 -31 645 1 q 175 -62 294 -62 q 31 49 31 -62 q 33 83 31 65 m 608 864 q 564 939 564 895 q 594 1009 564 979 q 672 1040 625 1040 q 753 961 753 1040 q 697 794 753 887 q 579 701 641 701 q 534 745 534 701 q 590 836 534 780 q 608 864 603 851 z "},"ľ":{"ha":640,"x_min":96,"x_max":711,"o":"m 296 100 q 182 -29 276 -29 q 119 -4 142 -29 q 103 62 96 21 l 252 1002 q 291 1065 258 1041 q 361 1089 323 1089 q 424 1064 402 1089 q 439 1002 445 1040 l 296 100 m 566 911 q 523 985 523 941 q 554 1058 523 1027 q 631 1088 586 1088 q 711 1008 711 1088 q 655 842 711 935 q 538 749 598 749 q 492 792 492 749 q 548 884 492 823 q 566 911 560 898 z "},"Ŀ":{"ha":765,"x_min":31,"x_max":762,"o":"m 33 84 l 81 297 q 201 953 142 576 q 238 1017 207 989 q 311 1046 269 1046 q 369 1024 347 1046 q 391 968 391 1002 q 357 751 391 941 l 303 462 q 228 121 284 363 q 652 200 388 123 q 683 204 669 204 q 743 179 724 204 q 762 127 762 154 q 704 33 762 65 q 470 -31 645 1 q 175 -62 294 -62 q 31 49 31 -62 q 33 84 31 65 m 593 378 q 527 404 553 378 q 501 469 501 431 q 539 556 501 517 q 626 595 576 595 q 694 568 667 595 q 721 503 721 541 q 681 417 721 456 q 593 378 642 378 z "},"ŀ":{"ha":575,"x_min":96,"x_max":661,"o":"m 296 100 q 182 -29 276 -29 q 119 -4 142 -29 q 103 62 96 21 l 252 1002 q 291 1065 258 1041 q 361 1089 323 1089 q 424 1064 402 1089 q 439 1002 445 1040 l 296 100 m 532 378 q 467 404 493 378 q 441 469 441 431 q 478 555 441 516 q 566 595 515 595 q 634 568 608 595 q 661 503 661 541 q 621 417 661 456 q 532 378 581 378 z "},"Ł":{"ha":873,"x_min":37,"x_max":871,"o":"m 336 121 q 762 200 483 123 q 792 204 781 204 q 849 182 827 204 q 871 125 871 160 q 821 38 871 73 q 585 -30 770 2 q 284 -62 401 -62 q 140 49 140 -62 q 201 353 140 81 l 187 349 q 152 332 184 348 q 117 322 136 322 q 59 347 82 322 q 37 401 37 371 q 48 446 37 422 q 105 497 60 471 q 247 585 151 524 q 311 953 269 694 q 348 1017 316 989 q 420 1046 380 1046 q 478 1023 456 1046 q 500 969 500 1000 q 458 704 500 961 q 552 736 527 736 q 610 713 587 736 q 633 656 633 690 q 562 562 633 594 q 419 492 488 532 q 376 288 390 342 q 336 121 354 205 z "},"ł":{"ha":492,"x_min":-4,"x_max":526,"o":"m 369 673 q 472 728 448 728 q 526 667 526 728 q 499 604 526 633 q 393 515 473 574 l 338 473 q 254 18 277 54 q 170 -18 231 -18 q 107 42 107 -18 q 123 158 107 45 q 138 318 138 271 q 131 351 138 351 q 126 349 129 351 q 52 310 81 310 q -4 366 -4 310 q 24 436 -4 407 q 187 561 52 466 l 256 997 q 291 1059 262 1033 q 358 1084 319 1084 q 422 1022 422 1084 q 420 997 422 1010 l 369 673 z "},"Ń":{"ha":1129,"x_min":62,"x_max":1201,"o":"m 369 686 q 292 214 325 455 q 233 -8 269 38 q 153 -54 197 -54 q 84 -30 107 -54 q 62 27 62 -5 q 81 123 62 48 q 159 576 132 358 l 178 704 q 190 827 186 752 q 201 942 195 898 q 247 1019 207 986 q 332 1051 286 1051 q 430 965 382 1051 q 924 249 667 527 l 941 351 q 973 565 943 363 q 1005 812 1003 766 l 1010 918 q 1126 1043 1017 1043 q 1201 886 1201 1043 q 1164 596 1201 783 l 1094 167 q 1059 45 1086 118 q 951 -28 1031 -28 q 874 4 913 -28 q 696 209 836 37 q 369 686 557 380 m 709 1112 q 654 1131 677 1112 q 632 1177 632 1151 q 675 1246 632 1211 q 803 1358 718 1280 q 945 1435 888 1435 q 1000 1415 979 1435 q 1021 1368 1021 1394 q 976 1297 1021 1328 q 873 1215 937 1276 q 783 1139 820 1166 q 709 1112 745 1112 z "},"ń":{"ha":727,"x_min":59,"x_max":764,"o":"m 348 627 q 572 726 463 726 q 743 530 743 726 q 731 404 743 476 l 723 355 q 706 175 706 254 q 701 45 706 83 q 666 -21 696 7 q 594 -49 636 -49 q 513 29 513 -49 q 524 281 513 201 q 557 460 534 361 q 567 513 567 498 q 544 547 567 547 q 407 471 479 547 q 297 315 334 395 q 252 113 260 235 q 241 31 250 54 q 206 -13 233 8 q 140 -33 178 -33 q 82 -13 104 -33 q 59 39 59 7 l 64 113 q 108 350 70 187 q 150 558 144 500 q 161 656 155 622 q 198 715 167 690 q 270 741 229 741 q 348 635 358 741 l 348 627 m 452 806 q 397 825 420 806 q 375 871 375 845 q 418 940 375 905 q 546 1052 461 975 q 688 1129 631 1129 q 743 1109 722 1129 q 764 1062 764 1088 q 719 991 764 1022 q 616 909 680 970 q 526 833 563 860 q 452 806 488 806 z "},"Ņ":{"ha":1129,"x_min":62,"x_max":1201,"o":"m 369 686 q 292 214 325 455 q 233 -8 269 38 q 153 -54 197 -54 q 84 -30 107 -54 q 62 27 62 -5 q 81 123 62 48 q 159 576 132 358 l 178 704 q 190 827 186 752 q 201 942 195 898 q 247 1019 207 986 q 332 1051 286 1051 q 430 965 382 1051 q 924 249 667 527 l 941 351 q 973 565 943 363 q 1005 812 1003 766 l 1010 918 q 1126 1043 1017 1043 q 1201 886 1201 1043 q 1164 596 1201 783 l 1094 167 q 1059 45 1086 118 q 951 -28 1031 -28 q 874 4 913 -28 q 696 209 836 37 q 369 686 557 380 m 509 -231 q 424 -164 424 -216 q 454 -93 424 -121 q 531 -65 484 -65 q 612 -93 581 -65 q 643 -164 643 -121 q 573 -309 643 -237 q 442 -382 503 -382 q 395 -338 395 -382 q 450 -284 395 -311 q 509 -231 503 -258 z "},"ņ":{"ha":727,"x_min":59,"x_max":743,"o":"m 348 627 q 572 726 463 726 q 743 530 743 726 q 731 404 743 476 l 723 355 q 706 175 706 254 q 701 45 706 83 q 666 -21 696 7 q 594 -49 636 -49 q 513 29 513 -49 q 524 281 513 201 q 557 460 534 361 q 567 513 567 498 q 544 547 567 547 q 407 471 479 547 q 297 315 334 395 q 252 113 260 235 q 241 31 250 54 q 206 -13 233 8 q 140 -33 178 -33 q 82 -13 104 -33 q 59 39 59 7 l 64 113 q 108 350 70 187 q 150 558 144 500 q 161 656 155 622 q 198 715 167 690 q 270 741 229 741 q 348 635 358 741 l 348 627 m 309 -231 q 224 -164 224 -216 q 254 -93 224 -121 q 331 -65 284 -65 q 412 -93 381 -65 q 443 -164 443 -121 q 373 -309 443 -237 q 242 -382 302 -382 q 195 -338 195 -382 q 250 -284 195 -311 q 309 -231 302 -258 z "},"Ň":{"ha":1129,"x_min":62,"x_max":1201,"o":"m 369 686 q 292 214 325 455 q 233 -8 269 38 q 153 -54 197 -54 q 84 -30 107 -54 q 62 27 62 -5 q 81 123 62 48 q 159 576 132 358 l 178 704 q 190 827 186 752 q 201 942 195 898 q 247 1019 207 986 q 332 1051 286 1051 q 430 965 382 1051 q 924 249 667 527 l 941 351 q 973 565 943 363 q 1005 812 1003 766 l 1010 918 q 1126 1043 1017 1043 q 1201 886 1201 1043 q 1164 596 1201 783 l 1094 167 q 1059 45 1086 118 q 951 -28 1031 -28 q 874 4 913 -28 q 696 209 836 37 q 369 686 557 380 m 772 1264 q 930 1372 916 1364 q 970 1379 945 1379 q 1019 1362 1000 1379 q 1038 1322 1038 1345 q 1008 1267 1038 1291 q 871 1173 977 1242 q 737 1103 765 1103 q 684 1127 705 1103 l 613 1211 q 576 1252 595 1231 q 534 1339 534 1310 q 563 1386 534 1364 q 625 1409 591 1409 q 686 1375 667 1409 q 772 1264 720 1320 z "},"ň":{"ha":727,"x_min":59,"x_max":829,"o":"m 348 627 q 572 726 463 726 q 743 530 743 726 q 731 404 743 476 l 723 355 q 706 175 706 254 q 701 45 706 83 q 666 -21 696 7 q 594 -49 636 -49 q 513 29 513 -49 q 524 281 513 201 q 557 460 534 361 q 567 513 567 498 q 544 547 567 547 q 407 471 479 547 q 297 315 334 395 q 252 113 260 235 q 241 31 250 54 q 206 -13 233 8 q 140 -33 178 -33 q 82 -13 104 -33 q 59 39 59 7 l 64 113 q 108 350 70 187 q 150 558 144 500 q 161 656 155 622 q 198 715 167 690 q 270 741 229 741 q 348 635 358 741 l 348 627 m 563 958 q 721 1066 706 1058 q 761 1074 736 1074 q 809 1057 790 1074 q 829 1016 829 1040 q 798 961 829 985 q 662 867 768 937 q 528 798 555 798 q 475 821 496 798 l 404 905 q 367 946 386 925 q 325 1033 325 1004 q 353 1080 325 1058 q 415 1103 381 1103 q 477 1069 458 1103 q 563 958 510 1015 z "},"ŉ":{"ha":890,"x_min":216,"x_max":907,"o":"m 216 889 q 220 1057 216 1019 q 250 1120 224 1095 q 315 1145 276 1145 q 370 1127 352 1145 q 389 1080 388 1109 q 391 996 391 1050 q 382 878 391 909 q 349 829 374 848 q 290 810 323 810 q 235 834 254 810 q 216 889 216 859 m 513 627 q 736 726 627 726 q 907 530 907 726 q 896 404 907 476 l 888 355 q 879 313 886 343 q 871 175 871 260 q 866 44 871 82 q 831 -21 861 7 q 758 -49 800 -49 q 677 29 677 -49 q 688 281 677 199 q 722 460 699 364 l 726 477 q 729 492 728 486 q 708 547 737 547 q 532 426 635 547 q 416 113 429 304 q 406 31 414 54 q 370 -13 397 8 q 304 -33 342 -33 q 246 -13 269 -33 q 224 39 224 7 l 229 113 q 272 350 235 191 q 315 558 309 498 q 324 647 319 606 q 361 714 329 688 q 435 741 393 741 q 513 635 523 741 l 513 627 z "},"Ŋ":{"ha":1129,"x_min":62,"x_max":1201,"o":"m 884 -1 q 709 192 857 12 q 369 686 562 372 q 292 214 325 455 q 233 -8 269 38 q 153 -54 197 -54 q 84 -30 107 -54 q 62 27 62 -5 q 81 123 62 48 q 159 576 132 358 l 178 704 q 190 827 186 752 q 201 942 195 898 q 247 1019 207 986 q 332 1051 286 1051 q 430 965 382 1051 q 924 249 667 527 l 941 351 q 973 565 943 363 q 1005 812 1003 766 l 1010 918 q 1126 1043 1017 1043 q 1201 886 1201 1043 q 1177 660 1201 787 q 1117 315 1152 533 q 1056 0 1082 98 q 959 -186 1029 -98 q 786 -319 889 -275 q 548 -363 684 -363 q 495 -342 513 -363 q 476 -296 476 -322 q 504 -224 476 -254 q 574 -195 532 -195 q 777 -148 705 -195 q 884 -1 849 -100 z "},"ŋ":{"ha":727,"x_min":59,"x_max":743,"o":"m 348 627 q 572 726 463 726 q 701 679 659 726 q 743 553 743 631 q 715 313 743 481 q 708 167 708 271 q 692 -15 705 56 q 637 -157 680 -86 q 528 -264 595 -227 q 374 -301 460 -301 q 260 -227 260 -301 q 289 -154 260 -184 q 359 -125 318 -125 q 380 -128 366 -125 q 401 -132 393 -132 q 499 -66 465 -132 q 537 225 534 1 q 565 492 543 414 q 544 547 573 547 q 369 431 473 547 q 252 113 266 314 q 241 31 249 54 q 205 -13 233 8 q 140 -33 178 -33 q 81 -12 104 -33 q 59 41 59 9 l 64 113 q 109 351 71 199 q 150 558 144 495 q 161 656 155 622 q 198 715 167 690 q 270 741 229 741 q 348 627 356 741 z "},"Ō":{"ha":1109,"x_min":85,"x_max":1158,"o":"m 85 321 q 176 636 85 463 q 420 919 267 810 q 745 1028 574 1028 q 1158 696 1158 1028 q 969 194 1158 429 q 516 -41 780 -41 q 206 60 327 -41 q 85 321 85 162 m 281 354 q 355 202 281 262 q 545 143 430 143 q 837 316 711 143 q 963 671 963 489 q 907 804 963 764 q 716 843 852 843 q 505 764 606 843 q 342 563 403 686 q 281 354 281 441 m 988 1084 l 804 1084 q 747 1085 780 1084 l 690 1086 q 612 1091 629 1088 q 577 1113 595 1095 q 559 1154 559 1131 q 719 1244 559 1244 q 797 1242 744 1244 l 844 1240 l 960 1240 l 1008 1242 q 1137 1176 1137 1245 q 988 1084 1137 1084 z "},"ō":{"ha":730,"x_min":64,"x_max":799,"o":"m 64 239 q 188 555 64 408 q 504 703 311 703 q 679 627 615 703 q 742 427 742 551 q 626 104 742 249 q 336 -40 509 -40 q 140 39 215 -40 q 64 239 64 118 m 254 266 q 282 174 254 208 q 363 139 311 139 q 504 213 452 139 q 556 404 556 288 q 465 524 556 524 q 315 437 375 524 q 254 266 254 351 m 650 778 l 466 778 q 408 779 441 778 l 352 781 q 273 785 290 782 q 238 807 256 789 q 220 848 220 825 q 380 939 220 939 q 458 936 406 939 l 505 935 l 622 935 l 670 936 q 799 870 799 939 q 650 778 799 778 z "},"Ŏ":{"ha":1109,"x_min":85,"x_max":1195,"o":"m 85 321 q 176 636 85 463 q 420 919 267 810 q 745 1028 574 1028 q 1158 696 1158 1028 q 969 194 1158 429 q 516 -41 780 -41 q 206 60 327 -41 q 85 321 85 162 m 281 354 q 355 202 281 262 q 545 143 430 143 q 837 316 711 143 q 963 671 963 489 q 907 804 963 764 q 716 843 852 843 q 505 764 606 843 q 342 563 403 686 q 281 354 281 441 m 808 1106 q 637 1161 706 1106 q 568 1289 568 1216 q 659 1383 568 1383 q 708 1368 689 1383 q 727 1328 727 1352 q 731 1283 727 1295 q 761 1254 735 1272 q 827 1235 787 1235 q 1042 1310 1006 1235 q 1126 1363 1069 1363 q 1195 1305 1195 1363 q 1093 1168 1195 1231 q 808 1106 990 1106 z "},"ŏ":{"ha":730,"x_min":64,"x_max":875,"o":"m 64 239 q 188 555 64 408 q 504 703 311 703 q 679 627 615 703 q 742 427 742 551 q 626 104 742 249 q 336 -40 509 -40 q 140 39 215 -40 q 64 239 64 118 m 254 266 q 282 174 254 208 q 363 139 311 139 q 504 213 452 139 q 556 404 556 288 q 465 524 556 524 q 315 437 375 524 q 254 266 254 351 m 488 800 q 317 855 386 800 q 248 983 248 910 q 338 1078 248 1078 q 388 1062 369 1078 q 407 1022 407 1046 q 411 978 407 989 q 441 948 415 966 q 507 929 467 929 q 722 1004 686 929 q 806 1057 749 1057 q 875 999 875 1057 q 772 863 875 925 q 488 800 670 800 z "},"Ő":{"ha":1109,"x_min":85,"x_max":1223,"o":"m 85 321 q 176 636 85 463 q 420 919 267 810 q 745 1028 574 1028 q 1158 696 1158 1028 q 969 194 1158 429 q 516 -41 780 -41 q 206 60 327 -41 q 85 321 85 162 m 281 354 q 355 202 281 262 q 545 143 430 143 q 837 316 711 143 q 963 671 963 489 q 907 804 963 764 q 716 843 852 843 q 505 764 606 843 q 342 563 403 686 q 281 354 281 441 m 637 1109 q 589 1125 610 1109 q 568 1166 568 1141 q 583 1199 568 1179 q 624 1239 599 1219 q 726 1317 649 1260 q 816 1381 803 1374 q 853 1388 829 1388 q 903 1371 884 1388 q 922 1331 922 1354 q 903 1288 922 1310 q 799 1206 884 1265 q 701 1134 738 1164 q 637 1109 673 1109 m 1060 1167 q 942 1109 977 1109 q 893 1126 913 1109 q 874 1166 874 1143 q 903 1218 874 1197 q 1027 1305 932 1240 q 1156 1370 1123 1370 q 1204 1353 1185 1370 q 1223 1312 1223 1335 q 1179 1251 1223 1276 l 1060 1167 z "},"ő":{"ha":730,"x_min":64,"x_max":938,"o":"m 64 239 q 188 555 64 408 q 504 703 311 703 q 679 627 615 703 q 742 427 742 551 q 626 104 742 249 q 336 -40 509 -40 q 140 39 215 -40 q 64 239 64 118 m 254 266 q 282 174 254 208 q 363 139 311 139 q 504 213 452 139 q 556 404 556 288 q 465 524 556 524 q 315 437 375 524 q 254 266 254 351 m 353 803 q 304 819 325 803 q 283 860 283 836 q 298 893 283 873 q 339 933 314 913 q 441 1011 364 954 q 531 1075 518 1068 q 568 1082 545 1082 q 618 1065 600 1082 q 637 1025 637 1048 q 618 982 637 1004 q 514 900 600 960 q 416 828 453 859 q 353 803 389 803 m 775 861 q 657 803 692 803 q 609 820 628 803 q 589 861 589 837 q 618 912 589 891 q 743 999 647 934 q 871 1064 838 1064 q 919 1047 900 1064 q 938 1006 938 1029 q 895 945 938 970 l 775 861 z "},"Œ":{"ha":1658,"x_min":70,"x_max":1784,"o":"m 1199 886 q 1197 863 1198 875 q 1151 618 1191 798 q 1420 643 1225 623 q 1586 656 1545 656 q 1645 634 1621 656 q 1668 576 1668 612 q 1645 509 1668 541 q 1567 471 1621 477 l 1403 458 l 1109 432 q 1069 172 1069 245 q 1075 140 1069 149 q 1158 132 1080 132 q 1284 135 1198 132 q 1412 138 1369 138 q 1452 141 1421 138 q 1492 144 1482 144 q 1554 123 1530 144 q 1579 72 1579 102 q 1519 -28 1579 -5 q 1200 -52 1459 -52 q 944 -11 1004 -52 q 878 117 885 29 q 499 -41 710 -41 q 191 61 311 -41 q 70 320 70 163 q 267 792 70 554 q 730 1031 465 1031 q 1012 970 913 1031 l 1013 978 q 1124 1080 1030 1080 q 1177 1065 1155 1080 q 1466 1104 1338 1104 q 1651 1088 1575 1104 q 1756 1053 1727 1072 q 1784 997 1784 1033 q 1751 919 1784 952 q 1674 885 1718 885 q 1647 889 1661 885 q 1437 920 1539 920 q 1199 886 1343 920 m 266 355 q 336 202 266 261 q 528 143 406 143 q 821 314 694 143 q 947 673 947 486 q 888 810 947 774 q 701 846 828 846 q 398 675 530 846 q 266 355 266 505 z "},"œ":{"ha":1246,"x_min":66,"x_max":1264,"o":"m 601 77 q 336 -40 488 -40 q 141 38 217 -40 q 66 241 66 115 q 187 557 66 412 q 504 703 309 703 q 705 590 644 703 q 983 708 823 708 q 1181 665 1109 708 q 1253 545 1253 623 q 1224 450 1253 490 q 1146 381 1194 409 q 981 306 1097 353 l 737 204 q 911 134 791 134 q 1023 151 958 134 q 1109 192 1088 168 q 1190 237 1148 237 q 1242 217 1221 237 q 1264 169 1264 197 q 1135 30 1264 92 q 884 -32 1005 -32 q 601 77 686 -32 m 749 376 q 1072 519 963 456 q 958 545 1032 545 q 749 376 831 545 m 254 258 q 284 172 254 205 q 363 139 315 139 q 502 208 446 139 q 557 404 557 277 q 465 525 557 525 q 314 437 374 525 q 254 258 254 349 z "},"Ŕ":{"ha":889,"x_min":68,"x_max":907,"o":"m 287 288 l 262 79 q 224 4 256 31 q 151 -24 192 -24 q 91 -1 114 -24 q 68 52 68 21 q 96 221 68 70 l 210 921 q 254 1005 218 969 q 351 1042 290 1042 q 502 1031 431 1042 q 643 998 595 1018 q 759 929 690 979 q 868 814 828 880 q 907 672 907 749 q 617 350 907 454 q 785 225 699 304 q 871 100 871 147 q 838 25 871 59 q 760 -8 804 -8 q 696 21 724 -8 q 287 288 519 214 m 381 850 l 324 490 l 353 490 q 625 541 535 490 q 715 641 715 591 q 631 775 715 710 q 448 846 548 840 q 381 850 448 846 m 559 1112 q 505 1131 527 1112 q 482 1177 482 1151 q 525 1246 482 1211 q 653 1358 568 1280 q 795 1435 738 1435 q 850 1415 829 1435 q 871 1368 871 1394 q 826 1297 871 1328 q 723 1215 787 1276 q 633 1139 670 1166 q 559 1112 595 1112 z "},"ŕ":{"ha":667,"x_min":58,"x_max":743,"o":"m 714 489 q 681 417 709 450 q 603 385 654 385 q 531 450 531 385 q 533 473 531 460 l 539 542 q 296 385 384 518 l 243 45 q 207 -20 237 7 q 135 -46 177 -46 q 77 -21 97 -46 q 64 45 58 5 l 134 489 l 151 586 q 169 654 158 633 q 202 688 179 674 q 257 703 226 703 q 335 625 333 703 q 615 715 469 715 q 726 593 726 715 q 721 534 726 566 l 714 489 m 431 806 q 377 825 399 806 q 355 871 355 845 q 398 940 355 905 q 526 1052 441 975 q 668 1129 610 1129 q 722 1109 701 1129 q 743 1062 743 1088 q 699 991 743 1022 q 595 909 660 970 q 505 833 543 860 q 431 806 468 806 z "},"Ŗ":{"ha":889,"x_min":68,"x_max":907,"o":"m 287 288 l 262 79 q 224 4 256 31 q 151 -24 192 -24 q 91 -1 114 -24 q 68 52 68 21 q 96 221 68 70 l 210 921 q 254 1005 218 969 q 351 1042 290 1042 q 502 1031 431 1042 q 643 998 595 1018 q 759 929 690 979 q 868 814 828 880 q 907 672 907 749 q 617 350 907 454 q 785 225 699 304 q 871 100 871 147 q 838 25 871 59 q 760 -8 804 -8 q 696 21 724 -8 q 287 288 519 214 m 381 850 l 324 490 l 353 490 q 625 541 535 490 q 715 641 715 591 q 631 775 715 710 q 448 846 548 840 q 381 850 448 846 m 382 -231 q 298 -164 298 -216 q 328 -93 298 -121 q 405 -65 358 -65 q 486 -93 455 -65 q 517 -164 517 -121 q 447 -309 517 -237 q 316 -382 376 -382 q 269 -338 269 -382 q 323 -284 269 -311 q 382 -231 376 -258 z "},"ŗ":{"ha":667,"x_min":-5,"x_max":726,"o":"m 714 489 q 681 417 709 450 q 603 385 654 385 q 531 450 531 385 q 533 473 531 460 l 539 542 q 296 385 384 518 l 243 45 q 207 -20 237 7 q 135 -46 177 -46 q 77 -21 97 -46 q 64 45 58 5 l 134 489 l 151 586 q 169 654 158 633 q 202 688 179 674 q 257 703 226 703 q 335 625 333 703 q 615 715 469 715 q 726 593 726 715 q 721 534 726 566 l 714 489 m 109 -231 q 24 -164 24 -216 q 54 -93 24 -121 q 131 -65 84 -65 q 212 -93 181 -65 q 243 -164 243 -121 q 173 -309 243 -237 q 42 -382 102 -382 q -5 -338 -5 -382 q 50 -284 -5 -311 q 109 -231 102 -258 z "},"Ř":{"ha":889,"x_min":68,"x_max":907,"o":"m 287 288 l 262 79 q 224 4 256 31 q 151 -24 192 -24 q 91 -1 114 -24 q 68 52 68 21 q 96 221 68 70 l 210 921 q 254 1005 218 969 q 351 1042 290 1042 q 502 1031 431 1042 q 643 998 595 1018 q 759 929 690 979 q 868 814 828 880 q 907 672 907 749 q 617 350 907 454 q 785 225 699 304 q 871 100 871 147 q 838 25 871 59 q 760 -8 804 -8 q 696 21 724 -8 q 287 288 519 214 m 381 850 l 324 490 l 353 490 q 625 541 535 490 q 715 641 715 591 q 631 775 715 710 q 448 846 548 840 q 381 850 448 846 m 610 1264 q 768 1372 753 1364 q 808 1379 783 1379 q 857 1362 838 1379 q 876 1322 876 1345 q 846 1267 876 1291 q 709 1173 815 1242 q 575 1103 603 1103 q 522 1127 543 1103 l 451 1211 q 414 1252 433 1231 q 372 1339 372 1310 q 400 1386 372 1364 q 463 1409 429 1409 q 524 1375 505 1409 q 610 1264 557 1320 z "},"ř":{"ha":667,"x_min":58,"x_max":762,"o":"m 714 489 q 681 417 709 450 q 603 385 654 385 q 531 450 531 385 q 533 473 531 460 l 539 542 q 296 385 384 518 l 243 45 q 207 -20 237 7 q 135 -46 177 -46 q 77 -21 97 -46 q 64 45 58 5 l 134 489 l 151 586 q 169 654 158 633 q 202 688 179 674 q 257 703 226 703 q 335 625 333 703 q 615 715 469 715 q 726 593 726 715 q 721 534 726 566 l 714 489 m 496 958 q 654 1066 639 1058 q 694 1074 669 1074 q 742 1057 723 1074 q 762 1016 762 1040 q 731 961 762 985 q 594 867 701 937 q 460 798 488 798 q 408 821 429 798 l 336 905 q 300 946 319 925 q 258 1033 258 1004 q 286 1080 258 1058 q 348 1103 314 1103 q 410 1069 391 1103 q 496 958 443 1015 z "},"Ś":{"ha":963,"x_min":54,"x_max":996,"o":"m 54 157 q 87 247 54 212 q 170 282 121 282 q 250 220 229 282 q 411 136 275 136 q 650 188 522 136 q 779 328 779 239 q 731 411 779 388 q 525 436 683 433 q 312 486 402 439 q 222 612 222 533 q 383 870 222 745 q 728 994 544 994 q 897 961 798 994 q 996 883 996 927 q 964 818 996 852 q 886 783 932 783 q 792 798 852 783 q 699 811 736 811 q 520 767 610 811 q 430 669 430 722 q 518 611 430 625 l 675 604 q 839 568 768 600 q 945 482 909 537 q 980 351 980 427 q 799 60 980 161 q 376 -41 618 -41 q 138 17 222 -41 q 54 157 54 76 m 673 1112 q 618 1131 641 1112 q 596 1177 596 1151 q 639 1246 596 1211 q 767 1358 682 1280 q 909 1435 852 1435 q 964 1415 943 1435 q 985 1368 985 1394 q 940 1297 985 1328 q 837 1215 901 1276 q 747 1139 784 1166 q 673 1112 709 1112 z "},"ś":{"ha":676,"x_min":37,"x_max":770,"o":"m 541 553 q 485 557 513 557 q 315 510 315 557 q 403 441 315 483 q 596 320 548 368 q 644 206 644 271 q 546 33 644 106 q 282 -40 449 -40 q 111 -7 186 -40 q 37 81 37 25 q 130 167 37 167 q 216 147 161 167 q 304 127 276 127 q 451 188 451 127 q 368 260 451 220 q 179 370 227 326 q 131 482 131 413 q 218 653 131 583 q 568 724 304 724 q 700 642 700 724 q 678 547 700 599 q 613 496 656 496 q 541 553 545 496 m 458 806 q 404 825 427 806 q 382 871 382 845 q 425 940 382 905 q 553 1052 468 975 q 695 1129 637 1129 q 749 1109 728 1129 q 770 1062 770 1088 q 726 991 770 1022 q 623 909 687 970 q 532 833 570 860 q 458 806 495 806 z "},"Ŝ":{"ha":963,"x_min":54,"x_max":1018,"o":"m 54 157 q 87 247 54 212 q 170 282 121 282 q 250 220 229 282 q 411 136 275 136 q 650 188 522 136 q 779 328 779 239 q 731 411 779 388 q 525 436 683 433 q 312 486 402 439 q 222 612 222 533 q 383 870 222 745 q 728 994 544 994 q 897 961 798 994 q 996 883 996 927 q 964 818 996 852 q 886 783 932 783 q 792 798 852 783 q 699 811 736 811 q 520 767 610 811 q 430 669 430 722 q 518 611 430 625 l 675 604 q 839 568 768 600 q 945 482 909 537 q 980 351 980 427 q 799 60 980 161 q 376 -41 618 -41 q 138 17 222 -41 q 54 157 54 76 m 730 1270 q 479 1096 536 1096 q 423 1117 446 1096 q 401 1166 401 1138 q 441 1230 401 1200 q 677 1427 527 1298 q 742 1452 709 1452 q 907 1339 808 1452 l 946 1298 q 1010 1226 1002 1237 q 1018 1196 1018 1215 q 986 1137 1018 1163 q 914 1110 954 1110 q 849 1142 876 1110 q 730 1270 823 1174 z "},"ŝ":{"ha":676,"x_min":37,"x_max":942,"o":"m 541 553 q 485 557 513 557 q 315 510 315 557 q 403 441 315 483 q 596 320 548 368 q 644 206 644 271 q 546 33 644 106 q 282 -40 449 -40 q 111 -7 186 -40 q 37 81 37 25 q 130 167 37 167 q 216 147 161 167 q 304 127 276 127 q 451 188 451 127 q 368 260 451 220 q 179 370 227 326 q 131 482 131 413 q 218 653 131 583 q 568 724 304 724 q 700 642 700 724 q 678 547 700 599 q 613 496 656 496 q 541 553 545 496 m 654 964 q 404 790 460 790 q 347 811 370 790 q 325 860 325 832 q 365 924 325 894 q 601 1121 451 992 q 666 1146 633 1146 q 831 1034 732 1146 l 870 992 q 934 920 926 931 q 942 890 942 909 q 910 831 942 857 q 838 804 878 804 q 773 836 800 804 q 654 964 747 868 z "},"Ş":{"ha":963,"x_min":54,"x_max":996,"o":"m 54 157 q 87 247 54 212 q 170 282 121 282 q 250 220 229 282 q 411 136 275 136 q 650 188 522 136 q 779 328 779 239 q 731 411 779 388 q 525 436 683 433 q 312 486 402 439 q 222 612 222 533 q 383 870 222 745 q 728 994 544 994 q 897 961 798 994 q 996 883 996 927 q 964 818 996 852 q 886 783 932 783 q 792 798 852 783 q 699 811 736 811 q 520 767 610 811 q 430 669 430 722 q 518 611 430 625 l 675 604 q 839 568 768 600 q 945 482 909 537 q 980 351 980 427 q 799 60 980 161 q 376 -41 618 -41 q 138 17 222 -41 q 54 157 54 76 m 414 -81 l 334 -52 q 297 -2 297 -38 q 321 52 297 26 q 384 78 345 78 q 544 20 473 78 q 614 -107 614 -38 q 557 -242 614 -184 q 393 -301 499 -301 q 265 -272 321 -301 q 210 -201 210 -243 q 292 -135 210 -135 q 351 -149 312 -135 q 407 -164 389 -164 q 453 -124 453 -164 q 414 -81 453 -94 z "},"ş":{"ha":676,"x_min":37,"x_max":700,"o":"m 541 553 q 485 557 513 557 q 315 510 315 557 q 403 441 315 483 q 596 320 548 368 q 644 206 644 271 q 546 33 644 106 q 282 -40 449 -40 q 111 -7 186 -40 q 37 81 37 25 q 130 167 37 167 q 216 147 161 167 q 304 127 276 127 q 451 188 451 127 q 368 260 451 220 q 179 370 227 326 q 131 482 131 413 q 218 653 131 583 q 568 724 304 724 q 700 642 700 724 q 678 547 700 599 q 613 496 656 496 q 541 553 545 496 m 286 -81 l 205 -52 q 168 -2 168 -38 q 192 52 168 26 q 255 78 216 78 q 415 20 345 78 q 486 -107 486 -38 q 428 -242 486 -184 q 264 -301 370 -301 q 136 -272 192 -301 q 81 -201 81 -243 q 163 -135 81 -135 q 222 -149 183 -135 q 278 -164 260 -164 q 324 -124 324 -164 q 286 -81 324 -94 z "},"Š":{"ha":963,"x_min":54,"x_max":1041,"o":"m 54 157 q 87 247 54 212 q 170 282 121 282 q 250 220 229 282 q 411 136 275 136 q 650 188 522 136 q 779 328 779 239 q 731 411 779 388 q 525 436 683 433 q 312 486 402 439 q 222 612 222 533 q 383 870 222 745 q 728 994 544 994 q 897 961 798 994 q 996 883 996 927 q 964 818 996 852 q 886 783 932 783 q 792 798 852 783 q 699 811 736 811 q 520 767 610 811 q 430 669 430 722 q 518 611 430 625 l 675 604 q 839 568 768 600 q 945 482 909 537 q 980 351 980 427 q 799 60 980 161 q 376 -41 618 -41 q 138 17 222 -41 q 54 157 54 76 m 775 1264 q 933 1372 918 1364 q 973 1379 948 1379 q 1022 1362 1002 1379 q 1041 1322 1041 1345 q 1010 1267 1041 1291 q 874 1173 980 1242 q 740 1103 768 1103 q 687 1127 708 1103 l 616 1211 q 579 1252 598 1231 q 537 1339 537 1310 q 565 1386 537 1364 q 627 1409 593 1409 q 689 1375 670 1409 q 775 1264 722 1320 z "},"š":{"ha":705,"x_min":37,"x_max":771,"o":"m 541 553 q 485 557 513 557 q 315 510 315 557 q 403 441 315 483 q 596 320 548 368 q 644 206 644 271 q 546 33 644 106 q 282 -40 449 -40 q 111 -7 186 -40 q 37 81 37 25 q 130 167 37 167 q 216 147 161 167 q 304 127 276 127 q 451 188 451 127 q 368 260 451 220 q 179 370 227 326 q 131 482 131 413 q 218 653 131 583 q 568 724 304 724 q 700 642 700 724 q 678 547 700 599 q 613 496 656 496 q 541 553 545 496 m 505 958 q 663 1066 648 1058 q 703 1074 678 1074 q 752 1057 732 1074 q 771 1016 771 1040 q 741 961 771 985 q 604 867 710 937 q 470 798 498 798 q 417 821 438 798 l 346 905 q 309 946 328 925 q 267 1033 267 1004 q 295 1080 267 1058 q 357 1103 323 1103 q 419 1069 400 1103 q 505 958 452 1015 z "},"Ţ":{"ha":966,"x_min":146,"x_max":1118,"o":"m 681 831 l 649 513 q 621 275 633 348 q 614 208 618 260 q 565 37 606 80 q 485 -5 523 -5 q 424 18 448 -5 q 401 73 401 41 q 410 114 401 84 q 423 189 420 148 q 446 431 426 230 l 486 819 l 414 817 q 218 828 290 812 q 146 899 146 844 q 177 978 146 943 q 257 1013 208 1013 l 449 1000 q 621 1008 500 1000 q 785 1015 741 1015 l 998 1011 q 1067 1008 1051 1011 q 1100 987 1082 1006 q 1118 939 1118 968 q 1084 862 1118 896 q 1010 828 1050 828 l 718 831 l 681 831 m 448 -231 q 363 -164 363 -216 q 393 -93 363 -121 q 470 -65 423 -65 q 551 -93 520 -65 q 582 -164 582 -121 q 512 -309 582 -237 q 381 -382 441 -382 q 334 -338 334 -382 q 389 -284 334 -311 q 448 -231 441 -258 z "},"ţ":{"ha":654,"x_min":111,"x_max":694,"o":"m 595 534 l 540 534 q 460 533 492 534 q 453 511 456 522 q 447 489 450 500 q 395 224 395 312 q 427 144 395 144 q 494 180 458 144 q 558 216 528 216 q 612 193 586 216 q 637 132 637 170 q 559 18 637 66 q 401 -29 480 -29 q 212 200 212 -29 q 279 528 212 325 q 138 555 164 534 q 111 627 111 576 q 139 694 111 668 q 210 720 166 720 l 315 710 l 332 846 q 364 906 336 881 q 431 932 392 932 q 511 819 511 932 q 497 714 511 800 q 529 718 517 716 q 631 713 567 723 q 694 631 694 703 q 665 561 694 587 q 595 534 635 534 m 291 -231 q 206 -164 206 -216 q 236 -93 206 -121 q 313 -65 267 -65 q 394 -93 363 -65 q 425 -164 425 -121 q 355 -309 425 -237 q 224 -382 285 -382 q 178 -338 178 -382 q 232 -284 178 -311 q 291 -231 285 -258 z "},"Ť":{"ha":966,"x_min":146,"x_max":1118,"o":"m 681 831 l 649 513 q 621 275 633 348 q 614 208 618 260 q 565 37 606 80 q 485 -5 523 -5 q 424 18 448 -5 q 401 73 401 41 q 410 114 401 84 q 423 189 420 148 q 446 431 426 230 l 486 819 l 414 817 q 218 828 290 812 q 146 899 146 844 q 177 978 146 943 q 257 1013 208 1013 l 449 1000 q 621 1008 500 1000 q 785 1015 741 1015 l 998 1011 q 1067 1008 1051 1011 q 1100 987 1082 1006 q 1118 939 1118 968 q 1084 862 1118 896 q 1010 828 1050 828 l 718 831 l 681 831 m 657 1264 q 815 1372 800 1364 q 855 1379 830 1379 q 904 1362 884 1379 q 923 1322 923 1345 q 892 1267 923 1291 q 756 1173 862 1242 q 622 1103 650 1103 q 569 1127 590 1103 l 498 1211 q 461 1252 480 1231 q 419 1339 419 1310 q 447 1386 419 1364 q 509 1409 475 1409 q 571 1375 552 1409 q 657 1264 604 1320 z "},"ť":{"ha":888,"x_min":104,"x_max":878,"o":"m 732 972 q 689 1046 689 1003 q 720 1119 689 1089 q 796 1149 751 1149 q 878 1067 878 1149 q 821 902 878 994 q 705 810 764 810 q 658 853 658 810 q 698 926 658 881 q 732 972 727 959 m 490 543 q 448 184 467 321 q 446 171 446 180 l 443 152 q 439 132 441 142 q 314 -43 417 -43 q 252 -22 274 -43 q 231 27 231 -1 q 237 72 231 35 q 303 539 287 345 q 149 555 171 547 q 115 579 126 563 q 104 618 104 595 q 137 696 104 665 q 213 728 169 728 q 328 721 239 728 l 336 811 q 382 924 345 901 q 453 947 419 947 q 531 843 531 947 q 526 779 531 814 l 515 724 q 585 729 548 729 q 701 715 669 729 q 733 656 733 701 q 701 578 733 610 q 624 546 669 546 l 556 549 q 490 543 519 549 z "},"Ŧ":{"ha":966,"x_min":144,"x_max":1110,"o":"m 672 828 q 650 597 659 730 q 790 604 747 604 q 914 542 914 604 q 899 493 914 513 q 862 468 883 473 q 760 463 842 463 q 637 456 718 463 q 616 275 629 353 q 609 207 614 259 q 571 51 609 107 q 480 -5 532 -5 q 419 18 443 -5 q 395 71 395 41 q 405 114 395 84 q 422 236 418 158 l 433 332 q 448 449 444 402 l 429 450 l 287 450 q 212 508 212 450 q 240 568 212 545 q 309 591 268 591 l 459 591 l 479 825 l 444 825 q 212 844 280 825 q 144 918 144 863 q 176 995 144 961 q 254 1028 209 1028 q 365 1015 264 1028 q 472 1008 431 1008 l 524 1008 q 597 1010 555 1008 l 668 1011 q 873 1004 748 1013 q 1027 997 989 997 q 1087 975 1064 997 q 1110 919 1110 953 q 1076 845 1110 878 q 998 812 1042 812 q 834 821 945 812 q 672 828 720 828 z "},"ŧ":{"ha":654,"x_min":92,"x_max":736,"o":"m 307 539 q 135 566 162 544 q 108 622 108 588 q 139 696 108 665 q 216 728 171 728 q 332 721 242 728 l 342 829 q 383 921 347 895 q 456 947 419 947 q 534 842 534 947 q 519 724 534 793 q 604 729 551 729 q 712 710 687 729 q 736 656 736 691 q 718 590 736 618 q 671 555 699 562 q 559 549 644 549 q 494 543 523 549 l 475 364 q 495 367 482 366 q 529 371 508 368 q 583 376 557 376 q 632 360 612 376 q 652 319 652 343 q 456 228 652 233 l 448 171 q 404 6 431 54 q 317 -43 376 -43 q 258 -21 281 -43 q 235 28 235 0 l 263 187 l 269 236 l 174 248 q 111 269 130 253 q 92 308 92 285 q 117 362 92 340 q 183 385 143 385 q 287 374 195 385 l 307 539 z "},"Ũ":{"ha":1023,"x_min":113,"x_max":1099,"o":"m 376 819 l 356 701 q 337 603 347 648 l 327 546 q 319 505 322 521 q 305 363 305 422 q 504 136 305 136 q 728 295 627 136 q 897 889 828 454 q 941 973 905 938 q 1025 1008 977 1008 q 1099 938 1099 1008 q 1028 586 1099 891 q 813 116 958 281 q 475 -49 668 -49 q 113 332 113 -49 q 150 626 113 433 l 180 782 q 194 861 188 821 q 237 977 203 925 q 313 1028 270 1028 q 372 1007 347 1028 q 397 953 397 985 q 376 819 397 928 m 859 1109 q 732 1130 772 1109 q 657 1203 692 1152 q 616 1232 639 1232 q 541 1182 578 1232 q 460 1134 507 1134 q 410 1149 431 1134 q 389 1188 389 1164 q 457 1293 389 1227 q 636 1360 526 1360 q 729 1342 701 1360 q 802 1265 757 1324 q 859 1236 825 1236 q 939 1307 903 1236 q 1020 1354 962 1354 q 1069 1339 1050 1354 q 1088 1300 1088 1324 q 1022 1188 1088 1267 q 859 1109 956 1109 z "},"ũ":{"ha":722,"x_min":83,"x_max":872,"o":"m 724 392 l 677 76 q 672 33 674 52 q 635 -29 667 -4 q 564 -54 604 -54 q 489 -3 507 -54 q 306 -35 399 -35 q 168 -5 220 -35 q 99 64 115 25 q 83 174 83 104 q 118 512 83 363 q 182 692 153 661 q 260 724 211 724 q 319 703 296 724 q 342 650 342 682 q 317 542 342 625 q 269 214 269 390 q 272 160 269 184 q 334 144 298 144 q 501 165 412 144 l 552 475 q 586 633 570 585 q 627 700 601 681 q 693 720 653 720 q 752 699 730 720 q 775 647 775 679 q 749 509 775 635 l 724 391 l 724 392 m 642 803 q 516 824 556 803 q 441 897 476 846 q 399 926 422 926 q 324 876 362 926 q 243 828 290 828 q 194 843 215 828 q 172 882 172 859 q 241 987 172 921 q 420 1054 310 1054 q 512 1036 484 1054 q 585 960 541 1018 q 642 930 608 930 q 722 1001 687 930 q 804 1048 746 1048 q 853 1033 834 1048 q 872 994 872 1018 q 806 882 872 962 q 642 803 740 803 z "},"Ū":{"ha":1023,"x_min":113,"x_max":1099,"o":"m 376 819 l 356 701 q 337 603 347 648 l 327 546 q 319 505 322 521 q 305 363 305 422 q 504 136 305 136 q 728 295 627 136 q 897 889 828 454 q 941 973 905 938 q 1025 1008 977 1008 q 1099 938 1099 1008 q 1028 586 1099 891 q 813 116 958 281 q 475 -49 668 -49 q 113 332 113 -49 q 150 626 113 433 l 180 782 q 194 861 188 821 q 237 977 203 925 q 313 1028 270 1028 q 372 1007 347 1028 q 397 953 397 985 q 376 819 397 928 m 859 1084 l 675 1084 q 618 1085 651 1084 l 562 1086 q 483 1091 500 1088 q 448 1113 466 1095 q 430 1154 430 1131 q 590 1244 430 1244 q 668 1242 615 1244 l 715 1240 l 831 1240 l 880 1242 q 1008 1176 1008 1245 q 859 1084 1008 1084 z "},"ū":{"ha":722,"x_min":83,"x_max":816,"o":"m 724 392 l 677 76 q 672 33 674 52 q 635 -29 667 -4 q 564 -54 604 -54 q 489 -3 507 -54 q 306 -35 399 -35 q 168 -5 220 -35 q 99 64 115 25 q 83 174 83 104 q 118 512 83 363 q 182 692 153 661 q 260 724 211 724 q 319 703 296 724 q 342 650 342 682 q 317 542 342 625 q 269 214 269 390 q 272 160 269 184 q 334 144 298 144 q 501 165 412 144 l 552 475 q 586 633 570 585 q 627 700 601 681 q 693 720 653 720 q 752 699 730 720 q 775 647 775 679 q 749 509 775 635 l 724 391 l 724 392 m 667 778 l 483 778 q 425 779 458 778 l 369 781 q 290 785 307 782 q 255 807 273 789 q 237 848 237 825 q 397 939 237 939 q 475 936 422 939 l 522 935 l 639 935 l 687 936 q 816 870 816 939 q 667 778 816 778 z "},"Ŭ":{"ha":1023,"x_min":113,"x_max":1099,"o":"m 376 819 l 356 701 q 337 603 347 648 l 327 546 q 319 505 322 521 q 305 363 305 422 q 504 136 305 136 q 728 295 627 136 q 897 889 828 454 q 941 973 905 938 q 1025 1008 977 1008 q 1099 938 1099 1008 q 1028 586 1099 891 q 813 116 958 281 q 475 -49 668 -49 q 113 332 113 -49 q 150 626 113 433 l 180 782 q 194 861 188 821 q 237 977 203 925 q 313 1028 270 1028 q 372 1007 347 1028 q 397 953 397 985 q 376 819 397 928 m 656 1106 q 485 1161 554 1106 q 416 1289 416 1216 q 507 1383 416 1383 q 556 1368 537 1383 q 575 1328 575 1352 q 579 1283 575 1295 q 609 1254 583 1272 q 675 1235 635 1235 q 890 1310 854 1235 q 975 1363 917 1363 q 1043 1305 1043 1363 q 941 1168 1043 1231 q 656 1106 838 1106 z "},"ŭ":{"ha":722,"x_min":83,"x_max":834,"o":"m 724 392 l 677 76 q 672 33 674 52 q 635 -29 667 -4 q 564 -54 604 -54 q 489 -3 507 -54 q 306 -35 399 -35 q 168 -5 220 -35 q 99 64 115 25 q 83 174 83 104 q 118 512 83 363 q 182 692 153 661 q 260 724 211 724 q 319 703 296 724 q 342 650 342 682 q 317 542 342 625 q 269 214 269 390 q 272 160 269 184 q 334 144 298 144 q 501 165 412 144 l 552 475 q 586 633 570 585 q 627 700 601 681 q 693 720 653 720 q 752 699 730 720 q 775 647 775 679 q 749 509 775 635 l 724 391 l 724 392 m 448 800 q 276 855 345 800 q 208 983 208 910 q 298 1078 208 1078 q 347 1062 328 1078 q 366 1022 366 1046 q 370 978 366 989 q 400 948 374 966 q 467 929 427 929 q 681 1004 645 929 q 766 1057 708 1057 q 834 999 834 1057 q 732 863 834 925 q 448 800 629 800 z "},"Ů":{"ha":1023,"x_min":113,"x_max":1099,"o":"m 376 819 l 356 701 q 337 603 347 648 l 327 546 q 319 505 322 521 q 305 363 305 422 q 504 136 305 136 q 728 295 627 136 q 897 889 828 454 q 941 973 905 938 q 1025 1008 977 1008 q 1099 938 1099 1008 q 1028 586 1099 891 q 813 116 958 281 q 475 -49 668 -49 q 113 332 113 -49 q 150 626 113 433 l 180 782 q 194 861 188 821 q 237 977 203 925 q 313 1028 270 1028 q 372 1007 347 1028 q 397 953 397 985 q 376 819 397 928 m 656 1110 q 508 1156 567 1110 q 450 1265 450 1202 q 535 1430 450 1362 q 757 1497 620 1497 q 908 1453 849 1497 q 968 1343 968 1408 q 887 1177 968 1243 q 656 1110 806 1110 m 607 1289 q 638 1259 607 1274 q 708 1244 669 1244 q 787 1268 764 1244 q 810 1320 810 1292 q 736 1361 810 1361 q 607 1289 607 1361 z "},"ů":{"ha":722,"x_min":83,"x_max":775,"o":"m 724 392 l 677 76 q 672 33 674 52 q 635 -29 667 -4 q 564 -54 604 -54 q 489 -3 507 -54 q 306 -35 399 -35 q 168 -5 220 -35 q 99 64 115 25 q 83 174 83 104 q 118 512 83 363 q 182 692 153 661 q 260 724 211 724 q 319 703 296 724 q 342 650 342 682 q 317 542 342 625 q 269 214 269 390 q 272 160 269 184 q 334 144 298 144 q 501 165 412 144 l 552 475 q 586 633 570 585 q 627 700 601 681 q 693 720 653 720 q 752 699 730 720 q 775 647 775 679 q 749 509 775 635 l 724 391 l 724 392 m 462 804 q 314 850 372 804 q 255 959 255 896 q 340 1124 255 1057 q 562 1192 425 1192 q 714 1147 654 1192 q 773 1038 773 1102 q 692 871 773 937 q 462 804 612 804 m 412 983 q 444 953 412 968 q 513 939 475 939 q 592 962 569 939 q 616 1015 616 986 q 541 1055 616 1055 q 412 983 412 1055 z "},"Ű":{"ha":1023,"x_min":113,"x_max":1101,"o":"m 376 819 l 356 701 q 337 603 347 648 l 327 546 q 319 505 322 521 q 305 363 305 422 q 504 136 305 136 q 728 295 627 136 q 897 889 828 454 q 941 973 905 938 q 1025 1008 977 1008 q 1099 938 1099 1008 q 1028 586 1099 891 q 813 116 958 281 q 475 -49 668 -49 q 113 332 113 -49 q 150 626 113 433 l 180 782 q 194 861 188 821 q 237 977 203 925 q 313 1028 270 1028 q 372 1007 347 1028 q 397 953 397 985 q 376 819 397 928 m 515 1109 q 467 1125 488 1109 q 446 1166 446 1141 q 461 1199 446 1179 q 502 1239 477 1219 q 604 1317 527 1260 q 694 1381 681 1374 q 731 1388 707 1388 q 781 1371 762 1388 q 800 1331 800 1354 q 781 1288 800 1310 q 677 1206 762 1265 q 579 1134 616 1164 q 515 1109 551 1109 m 938 1167 q 820 1109 854 1109 q 771 1126 791 1109 q 752 1166 752 1143 q 781 1218 752 1197 q 905 1305 810 1240 q 1034 1370 1001 1370 q 1082 1353 1063 1370 q 1101 1312 1101 1335 q 1057 1251 1101 1276 l 938 1167 z "},"ű":{"ha":722,"x_min":83,"x_max":911,"o":"m 724 392 l 677 76 q 672 33 674 52 q 635 -29 667 -4 q 564 -54 604 -54 q 489 -3 507 -54 q 306 -35 399 -35 q 168 -5 220 -35 q 99 64 115 25 q 83 174 83 104 q 118 512 83 363 q 182 692 153 661 q 260 724 211 724 q 319 703 296 724 q 342 650 342 682 q 317 542 342 625 q 269 214 269 390 q 272 160 269 184 q 334 144 298 144 q 501 165 412 144 l 552 475 q 586 633 570 585 q 627 700 601 681 q 693 720 653 720 q 752 699 730 720 q 775 647 775 679 q 749 509 775 635 l 724 391 l 724 392 m 326 803 q 277 819 298 803 q 256 860 256 836 q 272 893 256 873 q 313 933 288 913 q 415 1011 338 954 q 505 1075 492 1068 q 542 1082 518 1082 q 592 1065 573 1082 q 611 1025 611 1048 q 592 982 611 1004 q 488 900 573 960 q 390 828 427 859 q 326 803 362 803 m 749 861 q 631 803 665 803 q 582 820 602 803 q 563 861 563 837 q 592 912 563 891 q 716 999 621 934 q 844 1064 812 1064 q 892 1047 873 1064 q 911 1006 911 1029 q 868 945 911 970 l 749 861 z "},"Ų":{"ha":1023,"x_min":113,"x_max":1099,"o":"m 376 819 l 356 701 q 337 603 347 648 l 327 546 q 319 505 322 521 q 305 363 305 422 q 504 136 305 136 q 728 295 627 136 q 897 889 828 454 q 941 973 905 938 q 1025 1008 977 1008 q 1099 938 1099 1008 q 1028 586 1099 891 q 813 116 958 281 q 475 -49 668 -49 q 113 332 113 -49 q 150 626 113 433 l 180 782 q 194 861 188 821 q 237 977 203 925 q 313 1028 270 1028 q 372 1007 347 1028 q 397 953 397 985 q 376 819 397 928 m 355 -193 q 429 -17 355 -96 q 566 62 503 62 q 613 44 595 62 q 632 4 632 26 q 570 -67 632 -43 q 524 -113 544 -79 q 504 -179 504 -147 q 520 -229 504 -209 q 564 -250 536 -250 q 659 -230 612 -250 q 700 -222 680 -222 q 748 -239 730 -222 q 766 -280 766 -257 q 684 -356 766 -328 q 530 -384 602 -384 q 406 -335 458 -384 q 355 -193 355 -286 z "},"ų":{"ha":722,"x_min":83,"x_max":801,"o":"m 724 392 l 677 76 q 672 33 674 52 q 635 -29 667 -4 q 564 -54 604 -54 q 489 -3 507 -54 q 306 -35 399 -35 q 168 -5 220 -35 q 99 64 115 25 q 83 174 83 104 q 118 512 83 363 q 182 692 153 661 q 260 724 211 724 q 319 703 296 724 q 342 650 342 682 q 317 542 342 625 q 269 214 269 390 q 272 160 269 184 q 334 144 298 144 q 501 165 412 144 l 552 475 q 586 633 570 585 q 627 700 601 681 q 693 720 653 720 q 752 699 730 720 q 775 647 775 679 q 749 509 775 635 l 724 391 l 724 392 m 389 -193 q 463 -17 389 -96 q 601 62 537 62 q 648 44 629 62 q 667 4 667 26 q 605 -67 667 -43 q 558 -113 578 -79 q 538 -179 538 -147 q 554 -229 538 -209 q 598 -250 570 -250 q 694 -230 646 -250 q 734 -222 715 -222 q 783 -239 764 -222 q 801 -280 801 -257 q 719 -356 801 -328 q 565 -384 637 -384 q 441 -335 492 -384 q 389 -193 389 -286 z "},"Ŵ":{"ha":1444,"x_min":181,"x_max":1565,"o":"m 825 21 q 803 183 808 88 q 791 583 798 278 q 658 339 727 448 q 517 83 554 174 q 520 64 520 73 q 484 -8 520 23 q 395 -39 447 -39 q 317 -13 345 -39 q 292 61 288 12 l 284 142 l 267 385 q 241 596 260 480 q 184 916 222 712 q 181 936 181 927 q 214 1005 181 975 q 294 1035 247 1035 q 346 1019 323 1035 q 385 956 369 1003 q 421 736 400 909 q 456 347 441 563 q 617 660 534 485 q 781 949 719 882 q 884 1015 843 1015 q 952 984 924 1015 q 980 818 980 953 q 976 682 980 790 q 994 257 971 554 q 1155 542 1056 361 l 1265 741 q 1319 867 1274 760 q 1481 1035 1387 1035 q 1542 1014 1520 1035 q 1565 960 1565 993 q 1558 928 1565 945 q 1519 851 1552 911 q 1459 735 1486 792 q 1388 602 1432 677 q 1307 463 1345 526 l 1165 226 q 1097 106 1122 154 q 1001 -37 1036 -8 q 920 -65 966 -65 q 849 -41 878 -65 q 825 21 820 -16 m 960 1270 q 710 1096 766 1096 q 654 1117 676 1096 q 631 1166 631 1138 q 671 1230 631 1200 q 907 1427 758 1298 q 972 1452 939 1452 q 1138 1339 1038 1452 l 1177 1298 q 1241 1226 1233 1237 q 1249 1196 1249 1215 q 1217 1137 1249 1163 q 1145 1110 1185 1110 q 1080 1142 1107 1110 q 960 1270 1053 1174 z "},"ŵ":{"ha":950,"x_min":115,"x_max":1038,"o":"m 525 399 q 435 229 505 368 q 301 -5 338 41 q 218 -52 264 -52 q 166 -11 191 -52 q 128 109 141 29 q 115 524 115 188 q 122 621 115 585 q 160 681 130 656 q 231 705 191 705 q 298 673 282 705 q 310 541 315 642 l 306 408 l 306 272 q 475 615 408 474 q 593 703 514 703 q 652 677 631 703 q 677 579 673 651 q 684 425 682 507 l 688 233 l 863 655 q 953 704 887 704 q 1013 683 987 704 q 1038 629 1038 661 q 1023 576 1038 608 q 915 335 1007 544 q 784 68 822 127 q 713 -23 747 9 q 631 -56 680 -56 q 548 19 577 -56 q 525 399 519 94 m 642 964 q 392 790 448 790 q 336 811 358 790 q 313 860 313 832 q 353 924 313 894 q 589 1121 439 992 q 654 1146 621 1146 q 820 1034 720 1146 l 859 992 q 923 920 915 931 q 930 890 930 909 q 899 831 930 857 q 827 804 867 804 q 762 836 789 804 q 642 964 735 868 z "},"Ŷ":{"ha":882,"x_min":138,"x_max":1006,"o":"m 418 323 q 243 680 337 481 l 143 891 q 138 924 138 906 q 171 1000 138 968 q 249 1032 205 1032 q 323 986 304 1032 l 448 707 q 541 515 517 551 q 823 971 694 747 q 921 1032 859 1032 q 982 1008 958 1032 q 1006 954 1006 983 q 947 838 1006 928 q 878 724 920 794 q 538 180 651 347 q 389 -17 425 14 q 315 -47 353 -47 q 256 -26 280 -47 q 232 28 232 -5 q 263 103 232 51 q 418 323 294 155 m 642 1270 q 392 1096 448 1096 q 336 1117 358 1096 q 313 1166 313 1138 q 353 1230 313 1200 q 589 1427 439 1298 q 654 1452 621 1452 q 820 1339 720 1452 l 859 1298 q 923 1226 915 1237 q 930 1196 930 1215 q 899 1137 930 1163 q 827 1110 867 1110 q 762 1142 789 1110 q 642 1270 735 1174 z "},"ŷ":{"ha":768,"x_min":96,"x_max":850,"o":"m 299 69 q 133 503 267 175 q 97 600 97 571 q 132 670 97 637 q 209 704 168 704 q 260 687 239 704 q 334 555 281 671 q 437 285 386 440 q 671 649 623 592 q 766 705 720 705 q 826 683 802 705 q 850 630 850 661 q 832 575 850 605 q 522 89 814 545 q 315 -256 382 -121 q 245 -372 267 -350 q 181 -393 222 -393 q 120 -371 144 -393 q 96 -318 96 -349 q 299 69 96 -259 m 547 964 q 296 790 353 790 q 240 811 262 790 q 218 860 218 832 q 258 924 218 894 q 494 1121 344 992 q 559 1146 526 1146 q 724 1034 625 1146 l 763 992 q 827 920 819 931 q 835 890 835 909 q 803 831 835 857 q 731 804 771 804 q 666 836 693 804 q 547 964 640 868 z "},"Ÿ":{"ha":882,"x_min":138,"x_max":1006,"o":"m 418 323 q 243 680 337 481 l 143 891 q 138 924 138 906 q 171 1000 138 968 q 249 1032 205 1032 q 323 986 304 1032 l 448 707 q 541 515 517 551 q 823 971 694 747 q 921 1032 859 1032 q 982 1008 958 1032 q 1006 954 1006 983 q 947 838 1006 928 q 878 724 920 794 q 538 180 651 347 q 389 -17 425 14 q 315 -47 353 -47 q 256 -26 280 -47 q 232 28 232 -5 q 263 103 232 51 q 418 323 294 155 m 346 1174 q 395 1254 346 1225 q 480 1282 445 1282 q 596 1204 596 1282 q 541 1124 596 1151 q 458 1097 486 1097 q 346 1174 346 1097 m 646 1173 q 683 1247 646 1215 q 802 1280 719 1280 q 871 1256 839 1280 q 903 1200 903 1232 q 861 1128 903 1158 q 749 1097 819 1097 q 678 1120 710 1097 q 646 1173 646 1143 z "},"Ź":{"ha":963,"x_min":9,"x_max":1095,"o":"m 273 134 q 749 149 634 149 q 913 132 871 149 q 955 77 955 115 q 921 1 955 32 q 838 -29 888 -29 q 779 -26 818 -29 l 745 -25 l 101 -35 q 33 -14 57 -35 q 9 39 9 7 q 33 116 9 72 q 128 236 56 159 q 387 519 199 312 q 727 847 574 727 q 564 840 621 840 l 290 840 q 214 843 228 840 q 180 864 199 845 q 161 912 161 883 q 315 1023 161 1023 q 454 1018 379 1023 q 593 1013 528 1013 l 658 1013 l 905 1017 q 1095 940 1095 1017 q 1066 874 1095 907 q 987 812 1037 840 l 884 751 q 649 545 781 682 q 276 136 516 408 l 273 134 m 621 1112 q 567 1131 589 1112 q 545 1177 545 1151 q 588 1246 545 1211 q 715 1358 631 1280 q 858 1435 800 1435 q 912 1415 891 1435 q 933 1368 933 1394 q 888 1297 933 1328 q 785 1215 850 1276 q 695 1139 732 1166 q 621 1112 658 1112 z "},"ź":{"ha":747,"x_min":31,"x_max":808,"o":"m 391 154 l 429 155 q 537 146 484 157 q 614 136 581 136 q 674 115 651 136 q 696 60 696 94 q 664 -13 696 18 q 587 -43 631 -43 q 508 -33 552 -43 q 431 -24 463 -24 q 144 -49 276 -24 q 112 -53 125 -53 q 54 -34 76 -53 q 31 14 31 -14 q 88 107 31 66 q 507 525 271 243 q 426 522 465 522 q 216 538 284 522 q 148 608 148 554 q 179 684 148 652 q 254 717 211 717 q 353 708 292 717 q 454 701 422 701 q 593 707 519 701 q 732 714 699 714 q 808 659 808 714 q 728 518 808 593 q 391 154 684 475 m 478 806 q 424 825 446 806 q 401 871 401 845 q 445 940 401 905 q 572 1052 488 975 q 715 1129 657 1129 q 769 1109 748 1129 q 790 1062 790 1088 q 745 991 790 1022 q 642 909 707 970 q 552 833 589 860 q 478 806 515 806 z "},"Ż":{"ha":963,"x_min":9,"x_max":1095,"o":"m 273 134 q 749 149 634 149 q 913 132 871 149 q 955 77 955 115 q 921 1 955 32 q 838 -29 888 -29 q 779 -26 818 -29 l 745 -25 l 101 -35 q 33 -14 57 -35 q 9 39 9 7 q 33 116 9 72 q 128 236 56 159 q 387 519 199 312 q 727 847 574 727 q 564 840 621 840 l 290 840 q 214 843 228 840 q 180 864 199 845 q 161 912 161 883 q 315 1023 161 1023 q 454 1018 379 1023 q 593 1013 528 1013 l 658 1013 l 905 1017 q 1095 940 1095 1017 q 1066 874 1095 907 q 987 812 1037 840 l 884 751 q 649 545 781 682 q 276 136 516 408 l 273 134 m 578 1181 q 616 1254 578 1223 q 694 1285 654 1285 q 760 1253 723 1285 q 797 1185 797 1221 q 759 1113 797 1145 q 681 1081 721 1081 q 613 1114 648 1081 q 578 1181 578 1147 z "},"ż":{"ha":747,"x_min":31,"x_max":808,"o":"m 391 154 l 429 155 q 537 146 484 157 q 614 136 581 136 q 674 115 651 136 q 696 60 696 94 q 664 -13 696 18 q 587 -43 631 -43 q 508 -33 552 -43 q 431 -24 463 -24 q 144 -49 276 -24 q 112 -53 125 -53 q 54 -34 76 -53 q 31 14 31 -14 q 88 107 31 66 q 507 525 271 243 q 426 522 465 522 q 216 538 284 522 q 148 608 148 554 q 179 684 148 652 q 254 717 211 717 q 353 708 292 717 q 454 701 422 701 q 593 707 519 701 q 732 714 699 714 q 808 659 808 714 q 728 518 808 593 q 391 154 684 475 m 450 876 q 488 948 450 917 q 566 979 526 979 q 632 947 595 979 q 669 880 669 916 q 631 807 669 839 q 553 775 593 775 q 485 808 519 775 q 450 876 450 841 z "}}}
